<svg xmlns="http://www.w3.org/2000/svg" width="202.685" height="240.091" viewBox="0 0 202.685 240.091">
  <g id="Group_934" data-name="Group 934" transform="translate(3.647 -171.831) rotate(9)">
    <rect id="Rectangle_1481" data-name="Rectangle 1481" width="171" height="216" rx="15" transform="translate(56.652 165)" fill="#fff"/>
    <text id="Apps" transform="translate(73.022 190.841)" fill="#2c40ce" font-size="14" font-family="DMSans-Medium, DM Sans" font-weight="500" opacity="0.9"><tspan x="0" y="0">Apps</tspan></text>
    <rect id="Rectangle_2433" data-name="Rectangle 2433" width="83" height="6" rx="3" transform="translate(122.207 351.405)" fill="#e3e7e9"/>
    <g id="Apps_icons_-01" data-name="Apps icons -01" transform="translate(77.253 197.806)">
      <path id="Path_4716" data-name="Path 4716" d="M25.169,20.357h0a1.741,1.741,0,0,0-.34-.546,1.8,1.8,0,0,0-1.023-.589.753.753,0,0,0-.748.173.572.572,0,0,0-.177.41.624.624,0,0,0,.189.442l0,0a.578.578,0,0,0,.381.179.9.9,0,0,1,.506.273.616.616,0,0,1,0,.566c-.174.236-.232.254-.775.266l-.407.014-.017-.108c-.013-.094-.031-.239-.047-.355l-.015-.122a8.635,8.635,0,0,0-4.138-6.209l-.2-.116,0-.631a3.869,3.869,0,0,0-.131-1.213,5.17,5.17,0,0,0-3.7-3.7,6.513,6.513,0,0,0-2.008-.114,5.409,5.409,0,0,0-2.163.867,5.121,5.121,0,0,0-2.212,3.978l-.016.283-.863-.5c-1.079-.631-1.122-.655-1.456-.661a.933.933,0,0,0-.9.539l0,.008c-.107.231-.111.3-.111,1.839V16.84l-.158.208a9.29,9.29,0,0,0-1.112,2.035l-.047.133-.508.019a1.891,1.891,0,0,0-.93.165,1.385,1.385,0,0,0-.67.67c-.122.224-.122.224-.122,2.1v1.873l.16.288a1.581,1.581,0,0,0,.7.645,3.372,3.372,0,0,0,.82.094l.53.019.073.189a9,9,0,0,0,2.851,3.764l.126.09V30.2c0,1.085.008,1.2.1,1.4l0,.007a1.264,1.264,0,0,0,.692.59,12.548,12.548,0,0,0,2.392,0c.339-.094.595-.373.914-1l.219-.434H14.9l.242.459c.29.555.519.874.886.971a9.231,9.231,0,0,0,1.247.058c.993,0,1.053,0,1.333-.134a1.121,1.121,0,0,0,.6-.776,9.92,9.92,0,0,0,.056-1.273v-.945l.444-.37a8.719,8.719,0,0,0,2.58-3.706,9.045,9.045,0,0,0,.431-1.87c.005-.053.009-.1.012-.141,0-.024.006-.085.011-.137l.01-.1.1-.008c.062-.005.149-.008.232-.01H23.1l.17,0a2,2,0,0,0,.97-.155,1.789,1.789,0,0,0,1.011-1.282,1.835,1.835,0,0,0,.036-.358A1.722,1.722,0,0,0,25.169,20.357ZM9.746,12.465a4.049,4.049,0,0,1,.325-.59,4.111,4.111,0,0,1,2.5-1.633,4.268,4.268,0,0,1,1.722.089,3.763,3.763,0,0,1,1.633.936,3.848,3.848,0,0,1,.912,4.259c-.034.09-.063.159-.085.212l-.05.115-.128-.064a8.069,8.069,0,0,0-1.466-.546l-.085-.022-.166-.043.036-.117a1.532,1.532,0,0,0-.129-1.129,1.633,1.633,0,0,0-.333-.424l-.163-.149.214-.053a.6.6,0,0,0,.135-.051.65.65,0,0,0,.333-.613,1.638,1.638,0,0,0-.9-1.342c-.058-.028-.1-.052-.136-.072l-.042-.027-.01-.047a.622.622,0,0,0-1.216,0l-.01.047-.04.027a.725.725,0,0,1-.083.047,1.724,1.724,0,0,0-.765.711,1.139,1.139,0,0,0-.16.724,1.241,1.241,0,0,0,.126.671,1.666,1.666,0,0,0,.377.476l.174.152-.225.051a.576.576,0,0,0-.381.265.894.894,0,0,0-.036.738l.036.117-.119.032-.207.053a6.247,6.247,0,0,0-.605.2c-.231.087-.493.2-.8.332l-.105.047-.047-.1a3.853,3.853,0,0,1-.033-3.271Zm3.894.635a2.006,2.006,0,0,0-.236-.039c-.354-.039-.414-.074-.519-.2a.241.241,0,0,1-.032-.269A.388.388,0,0,1,13,12.431a.51.51,0,0,1,.266-.072c.253,0,.4.139.457.424a.72.72,0,0,0,.047.155l.094.214Zm.065,1.566v.02l-.007.019a.509.509,0,0,1-.3.262h0a.44.44,0,0,1-.127.018.519.519,0,0,1-.3-.1.313.313,0,0,1-.145-.24.455.455,0,0,0-.058-.221l-.122-.226.25.055a1.838,1.838,0,0,0,.218.033h0c.4.043.59.164.591.381Zm7.71,8.853a7.4,7.4,0,0,1-2.945,4.626c-.062.045-.335.247-.369.279-.047.047-.047.047-.061.5-.009.342-.017.653-.022.922L18,30.984,17.246,31,16.44,31l-.324-.616c-.44-.849-.532-.987-1.176-.908-.409.047-3.733.047-4.137,0-.652-.08-.754.075-1.175.907l-.318.618H7.766V29.948a4.55,4.55,0,0,0-.076-1.4v0a2.178,2.178,0,0,0-.477-.447,9.526,9.526,0,0,1-.884-.8,7.092,7.092,0,0,1-1.7-2.673,2.283,2.283,0,0,0-.289-.6c-.174-.18-.339-.21-1.172-.21-.268,0-.462,0-.547-.01l-.05-.008-.03-.04-.006-.008c-.047-.062-.059-.1-.059-.566V22.8h.236c.4,0,.472-.006.671-.205a.559.559,0,0,0,.136-.692c-.141-.326-.506-.354-.835-.354H2.479v-.39c0-.463,0-.5.07-.58l.066-.076.723-.013c.774-.014.849-.02,1-.172a1.252,1.252,0,0,0,.236-.439,7.412,7.412,0,0,1,1.115-2.13c.1-.135.239-.32.283-.4l.008-.016a6.514,6.514,0,0,0,.066-1.7c0-.4,0-.782.008-1.076l0-.2.177.1.556.318.156.089c.888.519,1.132.64,1.32.649l.083,0,.024.081a5.817,5.817,0,0,0,.257.629l.136.3-.084.066c-.109.089-.33.283-.5.439-.288.278-.35.36-.35.6a.512.512,0,0,0,.211.454c.377.34.722.106.979-.136a6.318,6.318,0,0,1,3.112-1.579,7.894,7.894,0,0,1,2.263,0,6.382,6.382,0,0,1,3.027,1.515,1.784,1.784,0,0,0,.494.351l.011,0a.616.616,0,0,0,.588-.167.626.626,0,0,0,.159-.6,2.351,2.351,0,0,0-.786-.831l-.067-.053-.07-.057.036-.083c.025-.058.068-.151.125-.272l.12-.258.283.189a8.732,8.732,0,0,1,1.958,1.991A7.7,7.7,0,0,1,21.437,20.9,8.824,8.824,0,0,1,21.416,23.52Z" transform="translate(0 0)" fill="#fe85bb"/>
      <path id="Path_4717" data-name="Path 4717" d="M114.118,217.985a.617.617,0,0,1-.295.534.606.606,0,0,1-.313.089.634.634,0,0,1-.29-.07.565.565,0,0,1-.33-.553.6.6,0,0,1,.353-.559.66.66,0,0,1,.251-.047.635.635,0,0,1,.355.108A.6.6,0,0,1,114.118,217.985Z" transform="translate(-106.376 -198.608)" fill="#fe85bb"/>
    </g>
    <text id="Nudges" transform="translate(143 224)" fill="#202020" font-size="12" font-family="DMSans-Regular, DM Sans"><tspan x="-20.94" y="0">Nudges</tspan></text>
    <text id="Budgeting" transform="translate(150 256)" fill="#202020" font-size="12" font-family="DMSans-Regular, DM Sans"><tspan x="-27.816" y="0">Budgeting</tspan></text>
    <text id="Microsaving" transform="translate(155 292)" fill="#202020" font-size="12" font-family="DMSans-Regular, DM Sans"><tspan x="-32.988" y="0">Microsaving</tspan></text>
    <text id="Smart_Goals" data-name="Smart Goals" transform="translate(156 326)" fill="#202020" font-size="12" font-family="DMSans-Regular, DM Sans"><tspan x="-33.846" y="0">Smart Goals</tspan></text>
    <g id="Apps_icons_-07" data-name="Apps icons -07" transform="translate(62.158 227.149)">
      <path id="Path_4728" data-name="Path 4728" d="M27.055,13.166a2.127,2.127,0,0,0-1.344,1.04l-.16.306H24.362c-1.089,0-1.2.009-1.368.094a.73.73,0,0,0-.366.681c.014.089.282.945.594,1.9s.569,1.767.569,1.8-.1.132-.235.216A2.1,2.1,0,0,0,23,22.144c.085.132.127.24.1.254s-.127.085-.23.146a11.165,11.165,0,0,0-2.264,2.043,9.876,9.876,0,0,0-2.228,6.937,5.255,5.255,0,0,0,1.508,3.483c1.166,1.184,2.717,1.776,5.4,2.068a40.433,40.433,0,0,0,4.465,0,13.992,13.992,0,0,0,2.933-.569l.272-.1.226.2a2.278,2.278,0,0,0,.978.5c.329.071,6.138.071,6.5,0a2.116,2.116,0,0,0,1.589-2.8,2.889,2.889,0,0,0-.235-.465l-.146-.216.146-.216a2.229,2.229,0,0,0,0-2.387l-.146-.216.146-.216a2.229,2.229,0,0,0,0-2.387L41.872,28l.146-.216a2.115,2.115,0,0,0-1.353-3.262c-.155-.028-1.41-.047-3.262-.047H34.4l-.489-.513a9.534,9.534,0,0,0-1.613-1.367c-.169-.112-.315-.207-.324-.216a.829.829,0,0,1,.132-.235,2.105,2.105,0,0,0-.56-2.937c-.131-.085-.235-.179-.235-.216s.254-.846.569-1.8.578-1.814.594-1.9A.73.73,0,0,0,32.1,14.6c-.165-.085-.277-.094-1.368-.094H29.546l-.16-.306A2.108,2.108,0,0,0,27.055,13.166Zm.823,1.436c.329.169.376.329.376,1.316,0,.757.009.87.094,1.034a.684.684,0,0,0,1.222,0,1.2,1.2,0,0,0,.094-.611V15.92h.564a2.4,2.4,0,0,1,.564.033c0,.019-.211.672-.466,1.448l-.459,1.41H25.231l-.461-1.41c-.254-.776-.466-1.424-.466-1.448a6.534,6.534,0,0,1,.987-.033c.9,0,1.006-.009,1.175-.094a.743.743,0,0,0,.376-.611.753.753,0,0,1,.366-.607.666.666,0,0,1,.668,0Zm2.82,5.736a.685.685,0,0,1,0,1.222c-.179.089-.272.094-3.149.094s-2.971,0-3.149-.094a.743.743,0,0,1-.376-.611.752.752,0,0,1,.366-.606c.169-.09.282-.094,3.149-.1C30.429,20.244,30.518,20.248,30.7,20.338Zm-.216,2.839A7.694,7.694,0,0,1,31.848,24a7.877,7.877,0,0,1,1.2,1.086,1.236,1.236,0,0,1-.16.277,2.213,2.213,0,0,0-.024,2.416l.146.216-.146.216a2.229,2.229,0,0,0,0,2.387l.146.216-.146.216a2.229,2.229,0,0,0,0,2.387l.146.216-.144.214a2.341,2.341,0,0,0-.357.973l-.033.268-.432.136a13.941,13.941,0,0,1-3.929.5c-4.521.117-7.082-.78-7.966-2.783a7.348,7.348,0,0,1,.31-5.456,8.1,8.1,0,0,1,1.852-2.67,7.377,7.377,0,0,1,2.007-1.495l.531-.267h5.377Zm10.133,2.8a.684.684,0,0,1,0,1.222c-.179.089-.273.094-3.172.094s-2.994,0-3.172-.094a.743.743,0,0,1-.376-.611.754.754,0,0,1,.367-.606c.169-.089.282-.094,3.172-.1C40.346,25.884,40.435,25.888,40.613,25.978Zm0,2.82a.684.684,0,0,1,0,1.222c-.179.09-.273.094-3.172.094s-2.994,0-3.172-.094a.743.743,0,0,1-.376-.611.754.754,0,0,1,.367-.607c.169-.089.282-.094,3.172-.1,2.914,0,3,0,3.182.094Zm0,2.82a.684.684,0,0,1,0,1.222c-.179.09-.273.094-3.172.094s-2.994,0-3.172-.094a.743.743,0,0,1-.376-.611.754.754,0,0,1,.367-.607c.169-.089.282-.094,3.172-.1,2.914,0,3,0,3.182.094Zm0,2.82a.685.685,0,0,1,0,1.222c-.179.089-.273.094-3.172.094s-2.994,0-3.172-.094a.743.743,0,0,1-.376-.611.752.752,0,0,1,.367-.606c.169-.09.282-.094,3.172-.1,2.914,0,3,0,3.182.094Z" transform="translate(0)" fill="#ffb867"/>
      <path id="Path_4729" data-name="Path 4729" d="M163.246,242.917c-.3.155-.366.357-.366,1.043v.587l-.263.127a2.494,2.494,0,0,0-.517.381,2.106,2.106,0,0,0,.917,3.526,1.542,1.542,0,0,0,.381.066c.644,0,1.029.465.818.978a.644.644,0,0,1-.625.432.694.694,0,0,1-.715-.693.7.7,0,1,0-1.4.061,2.142,2.142,0,0,0,1.133,1.809l.277.146v.37a1.136,1.136,0,0,0,.094.559.684.684,0,0,0,1.222,0,1.136,1.136,0,0,0,.094-.559v-.376l.282-.149a2.251,2.251,0,0,0,.513-.4,2.1,2.1,0,0,0-1.316-3.558c-.446-.05-.63-.136-.78-.366a.685.685,0,0,1,.56-1.043.7.7,0,0,1,.738.677c.061.451.31.7.71.7a.634.634,0,0,0,.62-.409.752.752,0,0,0,.043-.573,2.02,2.02,0,0,0-.639-1.217,2.624,2.624,0,0,0-.508-.376l-.221-.1v-.586a1.539,1.539,0,0,0-.094-.776A.687.687,0,0,0,163.246,242.917Z" transform="translate(-136.037 -218.345)" fill="#ffb867"/>
    </g>
    <g id="Apps_icons_-03" data-name="Apps icons -03" transform="translate(51.02 239.344)">
      <path id="Path_4718" data-name="Path 4718" d="M149.885,42.628a7.008,7.008,0,0,0-4.664-5.413,7.49,7.49,0,0,0-3.316-.256h0a6.959,6.959,0,0,0-5.062,3.759,6.5,6.5,0,0,0-.713,3.076,6.686,6.686,0,0,0,1.886,4.762,6.929,6.929,0,0,0,4.267,2.125,6.85,6.85,0,0,0,.738.04,7.149,7.149,0,0,0,3.922-1.188,7.33,7.33,0,0,0,.978-.839,6.855,6.855,0,0,0,1.964-3.728A9.938,9.938,0,0,0,149.885,42.628Zm-1.4,2.555a5.614,5.614,0,1,1-6.538-6.892,6.624,6.624,0,0,1,1.182-.081,5.368,5.368,0,0,1,5.356,4.21,4.069,4.069,0,0,1,.137,1.373A4.238,4.238,0,0,1,148.488,45.183Z" transform="translate(-102.63 0)" fill="#c464d5"/>
      <path id="Path_4719" data-name="Path 4719" d="M225.8,84.462a2.227,2.227,0,0,1-1.516,2.622,1.121,1.121,0,0,0-.006.14c0,.373-.064.6-.4.734a.541.541,0,0,1-.479,0c-.332-.142-.4-.364-.4-.749,0-.052,0-.125,0-.166l-.045-.016a2.294,2.294,0,0,1-1.358-1.495c-.12-.47-.146-.72.128-1a.62.62,0,0,1,.633-.184.8.8,0,0,1,.482.678.86.86,0,0,0,1.63.3.845.845,0,0,0-.131-.92c-.151-.18-.281-.25-.761-.309a2.023,2.023,0,0,1-1.107-.379,2.308,2.308,0,0,1-.963-1.779,2.251,2.251,0,0,1,1.376-2.019l.118-.046V79.7a.684.684,0,0,1,.35-.72h0a.518.518,0,0,1,.55-.011.757.757,0,0,1,.383.73l.009.142.2.081a2.023,2.023,0,0,1,.989.785,2.622,2.622,0,0,1,.4,1.218.771.771,0,0,1-.664.675.753.753,0,0,1-.664-.7.83.83,0,0,0-.345-.638.813.813,0,0,0-.694-.156.891.891,0,0,0-.657.693.791.791,0,0,0,.3.8c.187.133.212.151.75.221A2.111,2.111,0,0,1,225.8,84.462Z" transform="translate(-183.283 -39.692)" fill="#c464d5"/>
      <path id="Path_4720" data-name="Path 4720" d="M52.584,290.552a2.5,2.5,0,0,0-1.049-.86,2.9,2.9,0,0,0-1.757-.111h-.006c-.163.059-1.126.493-2.172.988-.89.421-1.515.714-1.729.783a3.31,3.31,0,0,0-2.092-1.412c-.174-.035-1.293-.085-2.258-.115-2.257-.066-2.411-.091-3.286-.533a6.005,6.005,0,0,0-3.271-.724,5.559,5.559,0,0,0-2.136.462l-.185.073.007-.075c.007-.082.012-.166.012-.246,0-.341-.086-.656-.455-.765-.233-.068-2.071-.106-2.15-.111-2-.035-2-.035-2.172.135a.86.86,0,0,0-.123.161.566.566,0,0,0-.075.188c-.048.291-.126,3.606-.141,4.275-.094,4.078-.058,4.173-.043,4.212.147.4.417.4,2.525.448l2.024.038.185-.2a.924.924,0,0,0,.217-.539l.025-.189.546-.285.119-.061c.709-.37.709-.37,3.579.439l.479.135c1.453.409,3.156.868,3.458.913a5.412,5.412,0,0,0,.733.042,6.941,6.941,0,0,0,1.273-.1,7.071,7.071,0,0,0,2.879-1.378c5.962-3.846,6.882-4.446,7.032-4.584A.727.727,0,0,0,52.584,290.552ZM29.971,296c-.546-.016-.966-.03-1.188-.039.02-.984.151-5.767.184-6.749.488,0,1.883.034,2.364.055-.007.283-.024.886-.044,1.606-.013.463-.027.989-.043,1.545-.052,1.723-.1,3.425-.1,3.567v.049Zm13.5-.118a5.85,5.85,0,0,1-.661.242,3.51,3.51,0,0,1-1.345.141h-.886l-2.935-.839c-3.664-1.052-3.884-1.113-4.988-.564l-.151.072c.011-.9.095-3.815.126-4.336a7.434,7.434,0,0,1,1.019-.477,4.924,4.924,0,0,1,2.83-.106,7.961,7.961,0,0,1,1.237.474,5.169,5.169,0,0,0,2.855.609c2.967.115,3.062.122,3.371.265a1.916,1.916,0,0,1,.893.858l.039.076c.021.042.043.086.061.125-.121.006-.332,0-.565-.011l-.166-.006c-.512-.021-1.677-.055-2.594-.072-1.582-.039-1.677-.042-1.87.12a.636.636,0,0,0-.218.5.6.6,0,0,0,.2.475c.214.177.382.19,3.591.271l2.63.063.221-.244a.7.7,0,0,0,.188-.676l-.011-.225,1.8-.849c1.107-.527,2.005-.921,2.126-.955a1.236,1.236,0,0,1,.38-.015h.006a1.773,1.773,0,0,1,.433.152C49.9,291.761,43.775,295.726,43.472,295.883Z" transform="translate(0 -237.114)" fill="#c464d5"/>
    </g>
    <path id="Apps_icons_-02" data-name="Apps icons -02" d="M9.713.35,9.194.41A10.242,10.242,0,0,0,.332,9.263a14.248,14.248,0,0,0,.016,2.673A10.341,10.341,0,0,0,5.811,19.63a10.24,10.24,0,0,0,10.255-.543,10.411,10.411,0,0,0,3.894-4.76,10.236,10.236,0,0,0,.124-7.238c-.1-.263-.331-.8-.527-1.189L19.2,5.185l.547-.547c.6-.6.662-.706.583-1a.65.65,0,0,0-.447-.423c-.072-.012-.523-.056-1-.1s-.882-.084-.894-.1-.052-.415-.1-.894-.084-.93-.1-1A.65.65,0,0,0,17.37.684c-.291-.08-.4-.016-.994.579a6.807,6.807,0,0,1-.571.539,4.349,4.349,0,0,1-.439-.223A10.322,10.322,0,0,0,11.908.425,17.331,17.331,0,0,0,9.713.35Zm1.62,1.217a9.214,9.214,0,0,1,3.045.854,3.357,3.357,0,0,1,.523.287,3.947,3.947,0,0,1-.379.411,1.743,1.743,0,0,0-.415.511,1.661,1.661,0,0,0,0,.5c.016.2.036.435.036.519v.146l-.152-.1a7.855,7.855,0,0,0-1.285-.6A6.821,6.821,0,1,0,9.334,17.267a6.137,6.137,0,0,0,1.177.072,5.049,5.049,0,0,0,1.281-.108,6.834,6.834,0,0,0,5.1-8.986,8.116,8.116,0,0,0-.583-1.225l-.1-.152h.148c.084,0,.319.02.519.036a1.661,1.661,0,0,0,.5,0,1.743,1.743,0,0,0,.511-.415,3.54,3.54,0,0,1,.411-.379,3.015,3.015,0,0,1,.287.523,9.009,9.009,0,0,1-1.58,10.107,8.834,8.834,0,0,1-2.554,1.875A8.992,8.992,0,0,1,4.274,17.084,8.757,8.757,0,0,1,2.4,14.526,9.006,9.006,0,0,1,11.333,1.567Zm5.459,1.756c.08.778.148.838,1.053.914l.575.052L17.706,5l-.714.714-.774-.064c-.427-.036-.782-.068-.786-.072s-.036-.355-.072-.782l-.068-.774.714-.714c.662-.662.71-.706.722-.6C16.736,2.773,16.764,3.048,16.792,3.323ZM11.6,5.033a6.007,6.007,0,0,1,1.369.467,5.914,5.914,0,0,1,.93.583l.092.084-.85.85-.846.846-.247-.14a3.347,3.347,0,0,0-2.374-.315A3.3,3.3,0,0,0,7.58,9.123a2.8,2.8,0,0,0-.323,1.257,3.192,3.192,0,0,0,1.808,3.057,3.232,3.232,0,0,0,3.922-.87,3.864,3.864,0,0,0,.614-1.229,3.306,3.306,0,0,0-.311-2.37l-.14-.247L14,7.874l.85-.85.084.092a5.914,5.914,0,0,1,.583.93,6.239,6.239,0,0,1,.475,1.389,6.631,6.631,0,0,1,0,2.211,5.637,5.637,0,0,1-4.409,4.409,6.631,6.631,0,0,1-2.211,0,5.643,5.643,0,0,1-4.409-4.409,6.631,6.631,0,0,1,0-2.211A5.643,5.643,0,0,1,9.795,4.954,7.429,7.429,0,0,1,11.6,5.033ZM11.091,8.6c.367.116.387.072-.387.85a8.874,8.874,0,0,0-.766.838.593.593,0,0,0,.786.786,8.874,8.874,0,0,0,.838-.766c.778-.774.734-.754.85-.387a2.048,2.048,0,0,1-2.346,2.61A2.033,2.033,0,0,1,10,8.561,2.6,2.6,0,0,1,11.09,8.6Z" transform="translate(80.226 311.415)" fill="#8d7bf6"/>
  </g>
</svg>
