<svg xmlns="http://www.w3.org/2000/svg" width="267.585" height="238.368" viewBox="0 0 267.585 238.368">
  <g id="Group_933" data-name="Group 933" transform="translate(-1016.895 -416.924) rotate(9)">
    <rect id="Rectangle_2373" data-name="Rectangle 2373" width="238.684" height="203.536" rx="18" transform="translate(1101.044 247.732)" fill="#fff"/>
    <text id="Contacts" transform="translate(1117.044 272.521)" fill="#2c40ce" font-size="16" font-family="DMSans-Medium, DM Sans" font-weight="500"><tspan x="0" y="0">Contacts</tspan></text>
    <circle id="Ellipse_569" data-name="Ellipse 569" cx="18" cy="18" r="18" transform="translate(1287 288)" fill="#e5e5e5"/>
    <circle id="Ellipse_570" data-name="Ellipse 570" cx="18" cy="18" r="18" transform="translate(1287 341)" fill="#e5e5e5"/>
    <circle id="Ellipse_571" data-name="Ellipse 571" cx="18" cy="18" r="18" transform="translate(1287 394)" fill="#e5e5e5"/>
    <text id="New_contacts" data-name="New contacts" transform="translate(1117 302)" fill="#3b3c40" font-size="12" font-family="DMSans-Regular, DM Sans"><tspan x="0" y="0">New contacts</tspan></text>
    <text id="Subscribed" transform="translate(1117 355)" fill="#3b3c40" font-size="12" font-family="DMSans-Regular, DM Sans"><tspan x="0" y="0">Subscribed</tspan></text>
    <text id="Unsubscribed" transform="translate(1117 408)" fill="#3b3c40" font-size="12" font-family="DMSans-Regular, DM Sans"><tspan x="0" y="0">Unsubscribed</tspan></text>
    <rect id="Rectangle_2437" data-name="Rectangle 2437" width="161" height="7" rx="3.5" transform="translate(1117 313)" fill="#dfdfdf"/>
    <rect id="Rectangle_2440" data-name="Rectangle 2440" width="161" height="7" rx="3.5" transform="translate(1117 366)" fill="#dfdfdf"/>
    <rect id="Rectangle_2442" data-name="Rectangle 2442" width="161" height="7" rx="3.5" transform="translate(1117 419)" fill="#dfdfdf"/>
    <rect id="Rectangle_2438" data-name="Rectangle 2438" width="68" height="7" rx="3.5" transform="translate(1117 313)" fill="#c2c2c2"/>
    <rect id="Rectangle_2439" data-name="Rectangle 2439" width="68" height="7" rx="3.5" transform="translate(1117 366)" fill="#c2c2c2"/>
    <rect id="Rectangle_2441" data-name="Rectangle 2441" width="68" height="7" rx="3.5" transform="translate(1117 419)" fill="#c2c2c2"/>
    <text id="_10" data-name="10" transform="translate(1305 312)" fill="#202020" font-size="16" font-family="DMSans-Medium, DM Sans" font-weight="500"><tspan x="-8.208" y="0">10</tspan></text>
    <text id="_42" data-name="42" transform="translate(1305 365)" fill="#202020" font-size="16" font-family="DMSans-Medium, DM Sans" font-weight="500"><tspan x="-9.56" y="0">42</tspan></text>
    <text id="_08" data-name="08" transform="translate(1305 418)" fill="#202020" font-size="16" font-family="DMSans-Medium, DM Sans" font-weight="500"><tspan x="-10.576" y="0">08</tspan></text>
  </g>
</svg>
