<svg xmlns="http://www.w3.org/2000/svg" xmlns:xlink="http://www.w3.org/1999/xlink" width="297.896" height="253.909" viewBox="0 0 297.896 253.909">
  <defs>
    <filter id="Rectangle_1473" x="0" y="0" width="297.896" height="253.909" filterUnits="userSpaceOnUse">
      <feOffset dx="15" dy="15" input="SourceAlpha"/>
      <feGaussianBlur stdDeviation="10" result="blur"/>
      <feFlood flood-opacity="0.031"/>
      <feComposite operator="in" in2="blur"/>
      <feComposite in="SourceGraphic"/>
    </filter>
  </defs>
  <g id="Group_1052" data-name="Group 1052" transform="translate(-1070.104 -276.135)">
    <g transform="matrix(1, 0, 0, 1, 1070.1, 276.13)" filter="url(#Rectangle_1473)">
      <rect id="Rectangle_1473-2" data-name="Rectangle 1473" width="217" height="165.318" rx="14" transform="translate(15 45.2) rotate(-8)" fill="#fff"/>
    </g>
    <text id="Calculators" transform="translate(1102.535 344.606) rotate(-8)" fill="#2c40ce" font-size="14" font-family="DMSans-Medium, DM Sans" font-weight="500" opacity="0.9"><tspan x="0" y="0">Calculators</tspan></text>
    <text id="Investment_Calculator" data-name="Investment Calculator" transform="translate(1127.633 368.705) rotate(-8)" fill="#141727" font-size="12" font-family="DMSans-Regular, DM Sans" opacity="0.9"><tspan x="0" y="0">Investment Calculator</tspan></text>
    <text id="Savings_Calculator" data-name="Savings Calculator" transform="translate(1131.947 399.403) rotate(-8)" fill="#141727" font-size="12" font-family="DMSans-Regular, DM Sans" opacity="0.9"><tspan x="0" y="0">Savings Calculator</tspan></text>
    <text id="Small_Business_Calculator" data-name="Small Business Calculator" transform="translate(1136.262 430.102) rotate(-8)" fill="#141727" font-size="12" font-family="DMSans-Regular, DM Sans" opacity="0.9"><tspan x="0" y="0">Small Business Calculator</tspan></text>
    <g id="noun-calculator-1040748" transform="translate(941.4 344.86) rotate(-8)">
      <path id="Path_4680" data-name="Path 4680" d="M160.485,39.2a.885.885,0,0,0-.883.884v10.9a.885.885,0,0,0,.883.884h8.246a.885.885,0,0,0,.883-.884v-10.9a.885.885,0,0,0-.883-.884Zm0,.294h8.246a.585.585,0,0,1,.589.589v10.9a.585.585,0,0,1-.589.589h-8.246a.585.585,0,0,1-.589-.589v-10.9A.585.585,0,0,1,160.485,39.493Zm1.031.589a.738.738,0,0,0-.736.736v1.472a.738.738,0,0,0,.736.736H167.7a.738.738,0,0,0,.736-.736V40.819a.738.738,0,0,0-.736-.736Zm0,.294H167.7a.438.438,0,0,1,.442.442v1.472a.438.438,0,0,1-.442.442h-6.184a.438.438,0,0,1-.442-.442V40.819A.438.438,0,0,1,161.516,40.377Zm-.617,3.239a.147.147,0,0,0-.12.147v1.767a.147.147,0,0,0,.147.147h1.767a.147.147,0,0,0,.147-.147V43.764a.147.147,0,0,0-.147-.147H160.9Zm2.8,0a.147.147,0,0,0-.12.147v1.767a.147.147,0,0,0,.147.147h1.767a.147.147,0,0,0,.147-.147V43.764a.147.147,0,0,0-.147-.147H163.7Zm2.816,0a.147.147,0,0,0-.138.147v1.767a.147.147,0,0,0,.147.147h1.767a.147.147,0,0,0,.147-.147V43.764a.147.147,0,0,0-.12-.147h-1.8Zm-5.439.294h1.472v1.472h-1.472Zm2.8,0h1.472v1.472h-1.472Zm2.8,0h1.472v1.472H166.67Zm-5.77,2.356a.147.147,0,0,0-.12.147v1.767a.147.147,0,0,0,.147.147h1.767a.147.147,0,0,0,.147-.147V46.414a.147.147,0,0,0-.147-.147H160.9Zm2.8,0a.147.147,0,0,0-.12.147v1.767a.147.147,0,0,0,.147.147h1.767a.147.147,0,0,0,.147-.147V46.414a.147.147,0,0,0-.147-.147H163.7Zm2.816,0a.147.147,0,0,0-.138.147v1.767a.147.147,0,0,0,.147.147h1.767a.147.147,0,0,0,.147-.147V46.414a.147.147,0,0,0-.12-.147h-1.8Zm-5.439.294h1.472v1.472h-1.472Zm2.8,0h1.472v1.472h-1.472Zm2.8,0h1.472v1.472H166.67Zm-5.77,2.356a.147.147,0,0,0-.12.147v1.767a.147.147,0,0,0,.147.147h1.767a.147.147,0,0,0,.147-.147V49.065a.147.147,0,0,0-.147-.147H160.9Zm2.8,0a.147.147,0,0,0-.12.147v1.767a.147.147,0,0,0,.147.147h1.767a.147.147,0,0,0,.147-.147V49.065a.147.147,0,0,0-.147-.147H163.7Zm2.816,0a.147.147,0,0,0-.138.147v1.767a.147.147,0,0,0,.147.147h1.767a.147.147,0,0,0,.147-.147V49.065a.147.147,0,0,0-.12-.147h-1.8Zm-5.439.294h1.472v1.472h-1.472Zm2.8,0h1.472v1.472h-1.472Zm2.8,0h1.472v1.472H166.67Z" transform="translate(0 0)" fill="#2c40ce" stroke="#2c40ce" stroke-width="0.2"/>
    </g>
    <g id="noun-calculator-1040748-2" data-name="noun-calculator-1040748" transform="translate(945.715 375.559) rotate(-8)">
      <path id="Path_4680-2" data-name="Path 4680" d="M160.485,39.2a.885.885,0,0,0-.883.884v10.9a.885.885,0,0,0,.883.884h8.246a.885.885,0,0,0,.883-.884v-10.9a.885.885,0,0,0-.883-.884Zm0,.294h8.246a.585.585,0,0,1,.589.589v10.9a.585.585,0,0,1-.589.589h-8.246a.585.585,0,0,1-.589-.589v-10.9A.585.585,0,0,1,160.485,39.493Zm1.031.589a.738.738,0,0,0-.736.736v1.472a.738.738,0,0,0,.736.736H167.7a.738.738,0,0,0,.736-.736V40.819a.738.738,0,0,0-.736-.736Zm0,.294H167.7a.438.438,0,0,1,.442.442v1.472a.438.438,0,0,1-.442.442h-6.184a.438.438,0,0,1-.442-.442V40.819A.438.438,0,0,1,161.516,40.377Zm-.617,3.239a.147.147,0,0,0-.12.147v1.767a.147.147,0,0,0,.147.147h1.767a.147.147,0,0,0,.147-.147V43.764a.147.147,0,0,0-.147-.147H160.9Zm2.8,0a.147.147,0,0,0-.12.147v1.767a.147.147,0,0,0,.147.147h1.767a.147.147,0,0,0,.147-.147V43.764a.147.147,0,0,0-.147-.147H163.7Zm2.816,0a.147.147,0,0,0-.138.147v1.767a.147.147,0,0,0,.147.147h1.767a.147.147,0,0,0,.147-.147V43.764a.147.147,0,0,0-.12-.147h-1.8Zm-5.439.294h1.472v1.472h-1.472Zm2.8,0h1.472v1.472h-1.472Zm2.8,0h1.472v1.472H166.67Zm-5.77,2.356a.147.147,0,0,0-.12.147v1.767a.147.147,0,0,0,.147.147h1.767a.147.147,0,0,0,.147-.147V46.414a.147.147,0,0,0-.147-.147H160.9Zm2.8,0a.147.147,0,0,0-.12.147v1.767a.147.147,0,0,0,.147.147h1.767a.147.147,0,0,0,.147-.147V46.414a.147.147,0,0,0-.147-.147H163.7Zm2.816,0a.147.147,0,0,0-.138.147v1.767a.147.147,0,0,0,.147.147h1.767a.147.147,0,0,0,.147-.147V46.414a.147.147,0,0,0-.12-.147h-1.8Zm-5.439.294h1.472v1.472h-1.472Zm2.8,0h1.472v1.472h-1.472Zm2.8,0h1.472v1.472H166.67Zm-5.77,2.356a.147.147,0,0,0-.12.147v1.767a.147.147,0,0,0,.147.147h1.767a.147.147,0,0,0,.147-.147V49.065a.147.147,0,0,0-.147-.147H160.9Zm2.8,0a.147.147,0,0,0-.12.147v1.767a.147.147,0,0,0,.147.147h1.767a.147.147,0,0,0,.147-.147V49.065a.147.147,0,0,0-.147-.147H163.7Zm2.816,0a.147.147,0,0,0-.138.147v1.767a.147.147,0,0,0,.147.147h1.767a.147.147,0,0,0,.147-.147V49.065a.147.147,0,0,0-.12-.147h-1.8Zm-5.439.294h1.472v1.472h-1.472Zm2.8,0h1.472v1.472h-1.472Zm2.8,0h1.472v1.472H166.67Z" transform="translate(0 0)" fill="#2c40ce" stroke="#2c40ce" stroke-width="0.2"/>
    </g>
    <g id="noun-calculator-1040748-3" data-name="noun-calculator-1040748" transform="translate(950.028 406.257) rotate(-8)">
      <path id="Path_4680-3" data-name="Path 4680" d="M160.485,39.2a.885.885,0,0,0-.883.884v10.9a.885.885,0,0,0,.883.884h8.246a.885.885,0,0,0,.883-.884v-10.9a.885.885,0,0,0-.883-.884Zm0,.294h8.246a.585.585,0,0,1,.589.589v10.9a.585.585,0,0,1-.589.589h-8.246a.585.585,0,0,1-.589-.589v-10.9A.585.585,0,0,1,160.485,39.493Zm1.031.589a.738.738,0,0,0-.736.736v1.472a.738.738,0,0,0,.736.736H167.7a.738.738,0,0,0,.736-.736V40.819a.738.738,0,0,0-.736-.736Zm0,.294H167.7a.438.438,0,0,1,.442.442v1.472a.438.438,0,0,1-.442.442h-6.184a.438.438,0,0,1-.442-.442V40.819A.438.438,0,0,1,161.516,40.377Zm-.617,3.239a.147.147,0,0,0-.12.147v1.767a.147.147,0,0,0,.147.147h1.767a.147.147,0,0,0,.147-.147V43.764a.147.147,0,0,0-.147-.147H160.9Zm2.8,0a.147.147,0,0,0-.12.147v1.767a.147.147,0,0,0,.147.147h1.767a.147.147,0,0,0,.147-.147V43.764a.147.147,0,0,0-.147-.147H163.7Zm2.816,0a.147.147,0,0,0-.138.147v1.767a.147.147,0,0,0,.147.147h1.767a.147.147,0,0,0,.147-.147V43.764a.147.147,0,0,0-.12-.147h-1.8Zm-5.439.294h1.472v1.472h-1.472Zm2.8,0h1.472v1.472h-1.472Zm2.8,0h1.472v1.472H166.67Zm-5.77,2.356a.147.147,0,0,0-.12.147v1.767a.147.147,0,0,0,.147.147h1.767a.147.147,0,0,0,.147-.147V46.414a.147.147,0,0,0-.147-.147H160.9Zm2.8,0a.147.147,0,0,0-.12.147v1.767a.147.147,0,0,0,.147.147h1.767a.147.147,0,0,0,.147-.147V46.414a.147.147,0,0,0-.147-.147H163.7Zm2.816,0a.147.147,0,0,0-.138.147v1.767a.147.147,0,0,0,.147.147h1.767a.147.147,0,0,0,.147-.147V46.414a.147.147,0,0,0-.12-.147h-1.8Zm-5.439.294h1.472v1.472h-1.472Zm2.8,0h1.472v1.472h-1.472Zm2.8,0h1.472v1.472H166.67Zm-5.77,2.356a.147.147,0,0,0-.12.147v1.767a.147.147,0,0,0,.147.147h1.767a.147.147,0,0,0,.147-.147V49.065a.147.147,0,0,0-.147-.147H160.9Zm2.8,0a.147.147,0,0,0-.12.147v1.767a.147.147,0,0,0,.147.147h1.767a.147.147,0,0,0,.147-.147V49.065a.147.147,0,0,0-.147-.147H163.7Zm2.816,0a.147.147,0,0,0-.138.147v1.767a.147.147,0,0,0,.147.147h1.767a.147.147,0,0,0,.147-.147V49.065a.147.147,0,0,0-.12-.147h-1.8Zm-5.439.294h1.472v1.472h-1.472Zm2.8,0h1.472v1.472h-1.472Zm2.8,0h1.472v1.472H166.67Z" transform="translate(0 0)" fill="#2c40ce" stroke="#2c40ce" stroke-width="0.2"/>
    </g>
    <g id="noun-calculator-1040748-4" data-name="noun-calculator-1040748" transform="translate(954.343 436.956) rotate(-8)">
      <path id="Path_4680-4" data-name="Path 4680" d="M160.485,39.2a.885.885,0,0,0-.883.884v10.9a.885.885,0,0,0,.883.884h8.246a.885.885,0,0,0,.883-.884v-10.9a.885.885,0,0,0-.883-.884Zm0,.294h8.246a.585.585,0,0,1,.589.589v10.9a.585.585,0,0,1-.589.589h-8.246a.585.585,0,0,1-.589-.589v-10.9A.585.585,0,0,1,160.485,39.493Zm1.031.589a.738.738,0,0,0-.736.736v1.472a.738.738,0,0,0,.736.736H167.7a.738.738,0,0,0,.736-.736V40.819a.738.738,0,0,0-.736-.736Zm0,.294H167.7a.438.438,0,0,1,.442.442v1.472a.438.438,0,0,1-.442.442h-6.184a.438.438,0,0,1-.442-.442V40.819A.438.438,0,0,1,161.516,40.377Zm-.617,3.239a.147.147,0,0,0-.12.147v1.767a.147.147,0,0,0,.147.147h1.767a.147.147,0,0,0,.147-.147V43.764a.147.147,0,0,0-.147-.147H160.9Zm2.8,0a.147.147,0,0,0-.12.147v1.767a.147.147,0,0,0,.147.147h1.767a.147.147,0,0,0,.147-.147V43.764a.147.147,0,0,0-.147-.147H163.7Zm2.816,0a.147.147,0,0,0-.138.147v1.767a.147.147,0,0,0,.147.147h1.767a.147.147,0,0,0,.147-.147V43.764a.147.147,0,0,0-.12-.147h-1.8Zm-5.439.294h1.472v1.472h-1.472Zm2.8,0h1.472v1.472h-1.472Zm2.8,0h1.472v1.472H166.67Zm-5.77,2.356a.147.147,0,0,0-.12.147v1.767a.147.147,0,0,0,.147.147h1.767a.147.147,0,0,0,.147-.147V46.414a.147.147,0,0,0-.147-.147H160.9Zm2.8,0a.147.147,0,0,0-.12.147v1.767a.147.147,0,0,0,.147.147h1.767a.147.147,0,0,0,.147-.147V46.414a.147.147,0,0,0-.147-.147H163.7Zm2.816,0a.147.147,0,0,0-.138.147v1.767a.147.147,0,0,0,.147.147h1.767a.147.147,0,0,0,.147-.147V46.414a.147.147,0,0,0-.12-.147h-1.8Zm-5.439.294h1.472v1.472h-1.472Zm2.8,0h1.472v1.472h-1.472Zm2.8,0h1.472v1.472H166.67Zm-5.77,2.356a.147.147,0,0,0-.12.147v1.767a.147.147,0,0,0,.147.147h1.767a.147.147,0,0,0,.147-.147V49.065a.147.147,0,0,0-.147-.147H160.9Zm2.8,0a.147.147,0,0,0-.12.147v1.767a.147.147,0,0,0,.147.147h1.767a.147.147,0,0,0,.147-.147V49.065a.147.147,0,0,0-.147-.147H163.7Zm2.816,0a.147.147,0,0,0-.138.147v1.767a.147.147,0,0,0,.147.147h1.767a.147.147,0,0,0,.147-.147V49.065a.147.147,0,0,0-.12-.147h-1.8Zm-5.439.294h1.472v1.472h-1.472Zm2.8,0h1.472v1.472h-1.472Zm2.8,0h1.472v1.472H166.67Z" transform="translate(0 0)" fill="#2c40ce" stroke="#2c40ce" stroke-width="0.2"/>
    </g>
    <g id="noun-forward-1748854" transform="translate(1258.126 229.311) rotate(-8)">
      <path id="Path_4681" data-name="Path 4681" d="M15.829,116.524l-3.48-2.441a.455.455,0,0,0-.675.364v1.662l-3.268.052a.347.347,0,0,0-.364.312v.779a.386.386,0,0,0,.344.415h3.288v1.61a.423.423,0,0,0,.675.364l3.48-2.389a.436.436,0,0,0,0-.727Z" fill="#2c40ce" fill-rule="evenodd"/>
    </g>
    <g id="noun-forward-1748854-2" data-name="noun-forward-1748854" transform="translate(1262.44 260.009) rotate(-8)">
      <path id="Path_4681-2" data-name="Path 4681" d="M15.829,116.524l-3.48-2.441a.455.455,0,0,0-.675.364v1.662l-3.268.052a.347.347,0,0,0-.364.312v.779a.386.386,0,0,0,.344.415h3.288v1.61a.423.423,0,0,0,.675.364l3.48-2.389a.436.436,0,0,0,0-.727Z" fill="#2c40ce" fill-rule="evenodd"/>
    </g>
    <g id="noun-forward-1748854-3" data-name="noun-forward-1748854" transform="translate(1266.755 290.708) rotate(-8)">
      <path id="Path_4681-3" data-name="Path 4681" d="M15.829,116.524l-3.48-2.441a.455.455,0,0,0-.675.364v1.662l-3.268.052a.347.347,0,0,0-.364.312v.779a.386.386,0,0,0,.344.415h3.288v1.61a.423.423,0,0,0,.675.364l3.48-2.389a.436.436,0,0,0,0-.727Z" fill="#2c40ce" fill-rule="evenodd"/>
    </g>
    <g id="noun-forward-1748854-4" data-name="noun-forward-1748854" transform="translate(1271.069 321.406) rotate(-8)">
      <path id="Path_4681-4" data-name="Path 4681" d="M15.829,116.524l-3.48-2.441a.455.455,0,0,0-.675.364v1.662l-3.268.052a.347.347,0,0,0-.364.312v.779a.386.386,0,0,0,.344.415h3.288v1.61a.423.423,0,0,0,.675.364l3.48-2.389a.436.436,0,0,0,0-.727Z" fill="#2c40ce" fill-rule="evenodd"/>
    </g>
    <line id="Line_35" data-name="Line 35" x2="215" transform="translate(1095.15 385.4) rotate(-8)" fill="none" stroke="#b8b8b8" stroke-width="0.3"/>
    <line id="Line_36" data-name="Line 36" x2="215" transform="translate(1099.465 416.099) rotate(-8)" fill="none" stroke="#b8b8b8" stroke-width="0.3"/>
    <line id="Line_37" data-name="Line 37" x2="215" transform="translate(1103.779 446.797) rotate(-8)" fill="none" stroke="#b8b8b8" stroke-width="0.3"/>
    <rect id="Rectangle_2427" data-name="Rectangle 2427" width="141" height="6" rx="3" transform="translate(1139.283 454.794) rotate(-8)" fill="#b1b1b1" opacity="0.41"/>
  </g>
</svg>
