<svg xmlns="http://www.w3.org/2000/svg" xmlns:xlink="http://www.w3.org/1999/xlink" width="1440" height="450" viewBox="0 0 1440 450">
  <defs>
    <clipPath id="clip-path">
      <rect id="Rectangle_2434" data-name="Rectangle 2434" width="1440" height="450" transform="translate(0 80)" fill="#232958"/>
    </clipPath>
    <clipPath id="clip-path-2">
      <rect id="Rectangle_2426" data-name="Rectangle 2426" width="238.684" height="238.536" rx="18" transform="translate(5991.816 3793.365)" fill="#fff"/>
    </clipPath>
  </defs>
  <g id="Mask_Group_19" data-name="Mask Group 19" transform="translate(0 -80)" clip-path="url(#clip-path)">
    <g id="Group_910" data-name="Group 910" transform="translate(-5912.171 -3490.091)">
      <rect id="Rectangle_2404" data-name="Rectangle 2404" width="238.684" height="238.536" rx="18" transform="translate(5991.816 3793.365)" fill="#fff"/>
      <text id="Create_Deal" data-name="Create Deal" transform="translate(6048.393 3819.401)" fill="#2c40ce" font-size="14" font-family="DMSans-Medium, DM Sans" font-weight="500"><tspan x="-38.787" y="0">Create Deal</tspan></text>
      <text id="Name" transform="translate(6025.393 3841.401)" fill="#202020" font-size="12" font-family="DMSans-Regular, DM Sans"><tspan x="-16.164" y="0">Name</tspan></text>
      <text id="Pipeline" transform="translate(6031.393 3897.401)" fill="#202020" font-size="12" font-family="DMSans-Regular, DM Sans"><tspan x="-21.702" y="0">Pipeline</tspan></text>
      <text id="Amount" transform="translate(6031.393 3953.401)" fill="#202020" font-size="12" font-family="DMSans-Regular, DM Sans"><tspan x="-22.092" y="0">Amount</tspan></text>
      <text id="Stage" transform="translate(6136.393 3897.401)" fill="#202020" font-size="12" font-family="DMSans-Regular, DM Sans"><tspan x="-15.642" y="0">Stage</tspan></text>
      <text id="Close_date" data-name="Close date" transform="translate(6150.393 3953.401)" fill="#202020" font-size="12" font-family="DMSans-Regular, DM Sans"><tspan x="-29.79" y="0">Close date</tspan></text>
      <g id="Rectangle_2405" data-name="Rectangle 2405" transform="translate(6009.393 3851.401)" fill="none" stroke="#777" stroke-width="0.5">
        <rect width="206" height="25" rx="3" stroke="none"/>
        <rect x="0.25" y="0.25" width="205.5" height="24.5" rx="2.75" fill="none"/>
      </g>
      <g id="Rectangle_2406" data-name="Rectangle 2406" transform="translate(6009.393 3907.401)" fill="none" stroke="#777" stroke-width="0.5">
        <rect width="95" height="25" rx="3" stroke="none"/>
        <rect x="0.25" y="0.25" width="94.5" height="24.5" rx="2.75" fill="none"/>
      </g>
      <g id="Rectangle_2407" data-name="Rectangle 2407" transform="translate(6009.393 3963.401)" fill="none" stroke="#777" stroke-width="0.5">
        <rect width="95" height="25" rx="3" stroke="none"/>
        <rect x="0.25" y="0.25" width="94.5" height="24.5" rx="2.75" fill="none"/>
      </g>
      <g id="Rectangle_2408" data-name="Rectangle 2408" transform="translate(6120.393 3907.401)" fill="none" stroke="#777" stroke-width="0.5">
        <rect width="95" height="25" rx="3" stroke="none"/>
        <rect x="0.25" y="0.25" width="94.5" height="24.5" rx="2.75" fill="none"/>
      </g>
      <g id="Rectangle_2409" data-name="Rectangle 2409" transform="translate(6120.393 3963.401)" fill="none" stroke="#777" stroke-width="0.5">
        <rect width="95" height="25" rx="3" stroke="none"/>
        <rect x="0.25" y="0.25" width="94.5" height="24.5" rx="2.75" fill="none"/>
      </g>
      <text id="Sales_Pipeline" data-name="Sales Pipeline" transform="translate(6046.393 3923.401)" fill="#202020" font-size="10" font-family="DMSans-Regular, DM Sans"><tspan x="-31.46" y="0">Sales Pipeline</tspan></text>
      <text id="_4875" data-name="$4875" transform="translate(6029.393 3979.401)" fill="#202020" font-size="10" font-family="DMSans-Regular, DM Sans"><tspan x="-14.415" y="0">$4875</tspan></text>
      <text id="Appoinment" transform="translate(6157.393 3923.401)" fill="#202020" font-size="10" font-family="DMSans-Regular, DM Sans"><tspan x="-28.73" y="0">Appoinment</tspan></text>
      <text id="_09-05-2022" data-name="09-05-2022" transform="translate(6157.393 3979.401)" fill="#202020" font-size="10" font-family="DMSans-Regular, DM Sans"><tspan x="-30.215" y="0">09-05-2022</tspan></text>
      <path id="Polygon_31" data-name="Polygon 31" d="M2,0,4,4H0Z" transform="translate(6090.393 3922.401) rotate(180)" fill="#202020"/>
      <path id="Polygon_32" data-name="Polygon 32" d="M2,0,4,4H0Z" transform="translate(6203.393 3922.401) rotate(180)" fill="#202020"/>
      <g id="calendar" transform="translate(6196.792 3945.192)">
        <path id="Path_4660" data-name="Path 4660" d="M98.162,249h-.791a.371.371,0,1,0,0,.741h.791a.371.371,0,1,0,0-.741Z" transform="translate(-94.603 -218.464)" fill="#202020"/>
        <path id="Path_4661" data-name="Path 4661" d="M98.162,313h-.791a.371.371,0,1,0,0,.741h.791a.371.371,0,1,0,0-.741Z" transform="translate(-94.603 -280.882)" fill="#202020"/>
        <path id="Path_4662" data-name="Path 4662" d="M98.162,377h-.791a.371.371,0,0,0,0,.741h.791a.371.371,0,0,0,0-.741Z" transform="translate(-94.603 -343.301)" fill="#202020"/>
        <path id="Path_4663" data-name="Path 4663" d="M226.162,249h-.791a.371.371,0,0,0,0,.741h.791a.371.371,0,1,0,0-.741Z" transform="translate(-219.439 -218.464)" fill="#202020"/>
        <path id="Path_4664" data-name="Path 4664" d="M226.162,313h-.791a.371.371,0,0,0,0,.741h.791a.371.371,0,1,0,0-.741Z" transform="translate(-219.439 -280.882)" fill="#202020"/>
        <path id="Path_4665" data-name="Path 4665" d="M226.162,377h-.791a.371.371,0,0,0,0,.741h.791a.371.371,0,0,0,0-.741Z" transform="translate(-219.439 -343.301)" fill="#202020"/>
        <path id="Path_4666" data-name="Path 4666" d="M354.162,249h-.791a.371.371,0,0,0,0,.741h.791a.371.371,0,0,0,0-.741Z" transform="translate(-344.276 -218.464)" fill="#202020"/>
        <path id="Path_4667" data-name="Path 4667" d="M354.162,313h-.791a.371.371,0,0,0,0,.741h.791a.371.371,0,0,0,0-.741Z" transform="translate(-344.276 -280.882)" fill="#202020"/>
        <path id="Path_4668" data-name="Path 4668" d="M354.162,377h-.791a.371.371,0,0,0,0,.741h.791a.371.371,0,0,0,0-.741Z" transform="translate(-344.276 -343.301)" fill="#202020"/>
        <path id="Path_4669" data-name="Path 4669" d="M11.542,25.989h-.89v-.618a.371.371,0,1,0-.741,0v.618H6.7v-.618a.371.371,0,1,0-.741,0v.618H2.743v-.618a.371.371,0,1,0-.741,0v.618h-.89A1.113,1.113,0,0,0,0,27.1v8.205a1.113,1.113,0,0,0,1.112,1.112H11.542a1.113,1.113,0,0,0,1.112-1.112V27.1A1.113,1.113,0,0,0,11.542,25.989ZM.741,27.1a.371.371,0,0,1,.371-.371H2v.618a.371.371,0,1,0,.741,0V26.73H5.956v.618a.371.371,0,1,0,.741,0V26.73H9.91v.618a.371.371,0,1,0,.741,0V26.73h.89a.371.371,0,0,1,.371.371v1.458H.741Zm10.8,8.576H1.112a.371.371,0,0,1-.371-.371V29.3H11.912v6.006A.371.371,0,0,1,11.542,35.677Z" fill="#202020"/>
      </g>
      <text id="Assignee" transform="translate(6034.393 4009.401)" fill="#202020" font-size="12" font-family="DMSans-Regular, DM Sans"><tspan x="-24.99" y="0">Assignee</tspan></text>
      <text id="Contacts" transform="translate(6146.393 4009.401)" fill="#202020" font-size="12" font-family="DMSans-Regular, DM Sans"><tspan x="-25.53" y="0">Contacts</tspan></text>
      <g id="Mask_Group_18" data-name="Mask Group 18" clip-path="url(#clip-path-2)">
        <g id="Group_909" data-name="Group 909">
          <g id="Rectangle_2410" data-name="Rectangle 2410" transform="translate(6009.393 4019.401)" fill="none" stroke="#202020" stroke-width="0.5">
            <rect width="95" height="25" rx="3" stroke="none"/>
            <rect x="0.25" y="0.25" width="94.5" height="24.5" rx="2.75" fill="none"/>
          </g>
          <g id="Rectangle_2411" data-name="Rectangle 2411" transform="translate(6120.393 4019.401)" fill="none" stroke="#575757" stroke-width="0.5">
            <rect width="95" height="25" rx="3" stroke="none"/>
            <rect x="0.25" y="0.25" width="94.5" height="24.5" rx="2.75" fill="none"/>
          </g>
          <text id="Catherine" transform="translate(6038.393 4035.401)" fill="#202020" font-size="10" font-family="DMSans-Regular, DM Sans"><tspan x="-22.59" y="0">Catherine</tspan></text>
          <text id="Alex" transform="translate(6137.393 4035.401)" fill="#505050" font-size="10" font-family="DMSans-Regular, DM Sans"><tspan x="-9.65" y="0">Alex</tspan></text>
        </g>
      </g>
    </g>
  </g>
</svg>
