<svg xmlns="http://www.w3.org/2000/svg" width="41.911" height="41.943" viewBox="0 0 41.911 41.943">
  <g id="Apps_icons_-07" data-name="Apps icons -07" transform="translate(-18.345 -13.108)">
    <path id="Path_4763" data-name="Path 4763" d="M33.53,13.209a3.708,3.708,0,0,0-2.343,1.813l-.279.533H28.836c-1.9,0-2.1.016-2.385.164a1.272,1.272,0,0,0-.639,1.188c.025.155.491,1.647,1.036,3.319s.991,3.081.991,3.138-.18.23-.409.377a3.661,3.661,0,0,0-.967,5.121c.148.23.221.418.173.443s-.221.148-.4.254a19.466,19.466,0,0,0-3.947,3.562A17.22,17.22,0,0,0,18.4,45.215a9.162,9.162,0,0,0,2.63,6.072c2.033,2.064,4.737,3.1,9.423,3.6a70.493,70.493,0,0,0,7.785.009,24.4,24.4,0,0,0,5.113-.992l.475-.173.394.352a3.972,3.972,0,0,0,1.7.869c.573.123,10.7.123,11.332.009a3.689,3.689,0,0,0,2.77-4.876,5.038,5.038,0,0,0-.41-.812l-.254-.376.254-.377a3.886,3.886,0,0,0,0-4.163l-.254-.376.254-.377a3.886,3.886,0,0,0,0-4.163l-.254-.377.254-.376a3.687,3.687,0,0,0-2.36-5.687c-.27-.049-2.458-.082-5.687-.082H46.329l-.852-.894a16.622,16.622,0,0,0-2.813-2.384c-.3-.2-.549-.36-.566-.376a1.446,1.446,0,0,1,.23-.41,3.67,3.67,0,0,0-.976-5.121c-.229-.148-.409-.312-.409-.377s.442-1.475.991-3.138,1.008-3.164,1.036-3.319a1.272,1.272,0,0,0-.639-1.188c-.288-.148-.484-.164-2.385-.164H37.875L37.6,15.02A3.675,3.675,0,0,0,33.53,13.209Zm1.434,2.5c.573.3.655.573.655,2.294,0,1.319.016,1.516.164,1.8a1.193,1.193,0,0,0,2.13,0,2.1,2.1,0,0,0,.164-1.065v-.734h.983a4.193,4.193,0,0,1,.983.058c0,.033-.369,1.172-.812,2.524l-.8,2.458H30.351l-.8-2.458c-.443-1.352-.812-2.483-.812-2.524a11.392,11.392,0,0,1,1.721-.058c1.573,0,1.754-.016,2.049-.164a1.3,1.3,0,0,0,.655-1.065,1.313,1.313,0,0,1,.639-1.058,1.161,1.161,0,0,1,1.164-.008Zm4.916,10a1.194,1.194,0,0,1,0,2.131c-.312.155-.475.163-5.491.163S29.209,28,28.9,27.844a1.3,1.3,0,0,1-.655-1.065,1.31,1.31,0,0,1,.639-1.057c.3-.156.491-.164,5.49-.173C39.413,25.549,39.569,25.558,39.881,25.713ZM39.5,30.662a13.415,13.415,0,0,1,2.384,1.443A13.734,13.734,0,0,1,43.977,34a2.155,2.155,0,0,1-.279.484,3.859,3.859,0,0,0-.042,4.212l.254.376-.254.377a3.886,3.886,0,0,0,0,4.163l.254.377-.254.376a3.886,3.886,0,0,0,0,4.163l.254.377-.251.373a4.082,4.082,0,0,0-.623,1.7l-.058.467-.754.237a24.307,24.307,0,0,1-6.85.877c-7.882.2-12.347-1.361-13.889-4.852-1.082-2.442-.863-6.3.541-9.513a14.13,14.13,0,0,1,3.229-4.655,12.863,12.863,0,0,1,3.5-2.606l.926-.466h9.374ZM57.17,35.548a1.193,1.193,0,0,1,0,2.13c-.312.155-.476.164-5.531.164s-5.22-.009-5.531-.164a1.3,1.3,0,0,1-.656-1.065,1.314,1.314,0,0,1,.64-1.057c.294-.155.491-.164,5.531-.173C56.7,35.383,56.859,35.39,57.17,35.548Zm0,4.916a1.193,1.193,0,0,1,0,2.13c-.312.156-.476.164-5.531.164s-5.22-.008-5.531-.164a1.3,1.3,0,0,1-.656-1.065,1.314,1.314,0,0,1,.64-1.058c.294-.155.491-.164,5.531-.173,5.081,0,5.237.008,5.548.164Zm0,4.916a1.193,1.193,0,0,1,0,2.13c-.312.156-.476.164-5.531.164s-5.22-.008-5.531-.164a1.3,1.3,0,0,1-.656-1.065,1.314,1.314,0,0,1,.64-1.058c.294-.155.491-.163,5.531-.173,5.081,0,5.237.009,5.548.164Zm0,4.916a1.194,1.194,0,0,1,0,2.131c-.312.155-.476.163-5.531.163s-5.22-.008-5.531-.163a1.3,1.3,0,0,1-.656-1.065,1.311,1.311,0,0,1,.64-1.057c.294-.156.491-.164,5.531-.173,5.081,0,5.237.007,5.548.163Z" fill="#2c40ce"/>
    <path id="Path_4764" data-name="Path 4764" d="M164.567,242.983c-.518.27-.639.623-.639,1.819v1.024l-.459.221a4.347,4.347,0,0,0-.9.664,3.672,3.672,0,0,0,1.6,6.148,2.69,2.69,0,0,0,.664.115c1.122.008,1.794.811,1.426,1.7a1.123,1.123,0,0,1-1.09.754,1.209,1.209,0,0,1-1.246-1.209,1.226,1.226,0,1,0-2.45.107,3.735,3.735,0,0,0,1.975,3.154l.484.255v.646a1.981,1.981,0,0,0,.164.975,1.193,1.193,0,0,0,2.13,0,1.981,1.981,0,0,0,.164-.975v-.655l.491-.259a3.927,3.927,0,0,0,.894-.691,3.666,3.666,0,0,0-2.294-6.2c-.777-.086-1.1-.237-1.361-.639a1.2,1.2,0,0,1,.976-1.819,1.227,1.227,0,0,1,1.287,1.18c.106.787.54,1.213,1.237,1.213a1.1,1.1,0,0,0,1.081-.713,1.312,1.312,0,0,0,.074-1,3.522,3.522,0,0,0-1.115-2.122,4.576,4.576,0,0,0-.885-.655l-.385-.18v-1.022a2.684,2.684,0,0,0-.164-1.352A1.2,1.2,0,0,0,164.567,242.983Z" transform="translate(-130.767 -209.886)" fill="#2c40ce"/>
  </g>
</svg>
