<svg xmlns="http://www.w3.org/2000/svg" width="26.851" height="26.851" viewBox="0 0 26.851 26.851">
  <path id="Path_4605" data-name="Path 4605" d="M97.959,14.547A13.426,13.426,0,1,1,84.55,27.956,13.436,13.436,0,0,1,97.959,14.547ZM94.381,31.768l-4.314-4.314a.1.1,0,0,0-.134,0L88.6,28.792a.1.1,0,0,0,0,.134l6.052,6.052a.1.1,0,0,0,.134,0l12.573-12.539a.1.1,0,0,0,0-.134l-1.337-1.337c-.067-.033-.1-.033-.134,0L95.05,31.768a.446.446,0,0,1-.669,0Z" transform="translate(-84.55 -14.547)" fill="#2c40ce" fill-rule="evenodd"/>
</svg>
