<svg xmlns="http://www.w3.org/2000/svg" width="33.591" height="42.272" viewBox="0 0 33.591 42.272">
  <g id="noun-calculator-1040748" transform="translate(-159.202 -38.799)">
    <path id="Path_4680" data-name="Path 4680" d="M162.5,39.2a2.9,2.9,0,0,0-2.893,2.894V77.777a2.9,2.9,0,0,0,2.893,2.894h27a2.9,2.9,0,0,0,2.893-2.894V42.093A2.9,2.9,0,0,0,189.5,39.2Zm0,.964h27a1.914,1.914,0,0,1,1.929,1.929V77.777a1.914,1.914,0,0,1-1.929,1.929h-27a1.914,1.914,0,0,1-1.929-1.929V42.092A1.914,1.914,0,0,1,162.5,40.163Zm3.375,1.929A2.416,2.416,0,0,0,163.46,44.5v4.822a2.417,2.417,0,0,0,2.411,2.411h20.253a2.417,2.417,0,0,0,2.411-2.411V44.5a2.416,2.416,0,0,0-2.411-2.411Zm0,.964h20.253a1.433,1.433,0,0,1,1.446,1.447v4.822a1.433,1.433,0,0,1-1.446,1.447H165.871a1.433,1.433,0,0,1-1.446-1.447V44.5A1.433,1.433,0,0,1,165.871,43.057Zm-2.019,10.609a.483.483,0,0,0-.392.482v5.787a.482.482,0,0,0,.482.482h5.787a.482.482,0,0,0,.482-.482V54.148a.482.482,0,0,0-.482-.482h-5.787A.509.509,0,0,0,163.851,53.666Zm9.162,0a.482.482,0,0,0-.392.482v5.787a.482.482,0,0,0,.482.482h5.787a.482.482,0,0,0,.482-.482V54.148a.482.482,0,0,0-.482-.482H173.1A.505.505,0,0,0,173.014,53.666Zm9.223,0a.483.483,0,0,0-.452.482v5.787a.482.482,0,0,0,.482.482h5.787a.482.482,0,0,0,.482-.482V54.148a.483.483,0,0,0-.392-.482.509.509,0,0,0-.09,0h-5.817Zm-17.812.964h4.822v4.822h-4.822Zm9.162,0h4.822v4.822h-4.822Zm9.162,0h4.822v4.822h-4.822Zm-18.9,7.716a.483.483,0,0,0-.392.482v5.787a.482.482,0,0,0,.482.482h5.787a.482.482,0,0,0,.482-.482V62.828a.482.482,0,0,0-.482-.482h-5.787A.509.509,0,0,0,163.851,62.346Zm9.162,0a.482.482,0,0,0-.392.482v5.787a.482.482,0,0,0,.482.482h5.787a.482.482,0,0,0,.482-.482V62.828a.482.482,0,0,0-.482-.482H173.1A.505.505,0,0,0,173.014,62.346Zm9.223,0a.483.483,0,0,0-.452.482v5.787a.482.482,0,0,0,.482.482h5.787a.482.482,0,0,0,.482-.482V62.828a.483.483,0,0,0-.392-.482.509.509,0,0,0-.09,0h-5.817Zm-17.812.964h4.822v4.822h-4.822Zm9.162,0h4.822v4.822h-4.822Zm9.162,0h4.822v4.822h-4.822Zm-18.9,7.716a.483.483,0,0,0-.392.482v5.787a.482.482,0,0,0,.482.482h5.787a.482.482,0,0,0,.482-.482V71.508a.482.482,0,0,0-.482-.482h-5.787A.453.453,0,0,0,163.851,71.026Zm9.162,0a.482.482,0,0,0-.392.482v5.787a.482.482,0,0,0,.482.482h5.787a.482.482,0,0,0,.482-.482V71.508a.482.482,0,0,0-.482-.482H173.1A.449.449,0,0,0,173.014,71.026Zm9.223,0a.482.482,0,0,0-.452.482v5.787a.482.482,0,0,0,.482.482h5.787a.482.482,0,0,0,.482-.482V71.508a.483.483,0,0,0-.392-.482.452.452,0,0,0-.09,0h-5.817Zm-17.812.964h4.822v4.822h-4.822Zm9.162,0h4.822v4.822h-4.822Zm9.162,0h4.822v4.822h-4.822Z" transform="translate(0 0)" fill="#2c40ce" stroke="#2c40ce" stroke-width="0.8"/>
  </g>
</svg>
