<svg xmlns="http://www.w3.org/2000/svg" width="43.804" height="36.284" viewBox="0 0 43.804 36.284">
  <path id="Apps_icons_-06" data-name="Apps icons -06" d="M58.113,44.516a5.584,5.584,0,0,0-3.852,3.852,6.884,6.884,0,0,0-.009,2.645,5.748,5.748,0,0,0,1.19,2.243,3.44,3.44,0,0,1,.48.582c0,.034-1.118,2.192-2.5,4.8l-2.5,4.743-.3-.061a7.666,7.666,0,0,0-1.207-.068,4.544,4.544,0,0,0-2.534.659,1.28,1.28,0,0,1-.466.223c-.038-.017-.9-.779-1.917-1.7a10.511,10.511,0,0,1-1.816-1.8c.018-.068.145-.419.274-.77a6.365,6.365,0,0,0,.214-2.843,6.413,6.413,0,0,0-1.1-2.311,5.592,5.592,0,0,0-2.825-1.831,6.836,6.836,0,0,0-2.671.008,5.555,5.555,0,0,0-3.887,3.981,5.372,5.372,0,0,0,.967,4.443,1.266,1.266,0,0,1,.291.559c-.043.077-5.581,8.356-5.633,8.415a5.352,5.352,0,0,1-.727-.154,5.368,5.368,0,0,0-6.566,4.9,5.43,5.43,0,0,0,4.04,5.513,6.973,6.973,0,0,0,2.594,0,5.522,5.522,0,0,0,3.9-3.861,6.9,6.9,0,0,0,.008-2.645,6.366,6.366,0,0,0-1.019-2.05l-.292-.343,2.826-4.212c1.549-2.32,2.842-4.237,2.876-4.255a1.759,1.759,0,0,1,.53.086,5.379,5.379,0,0,0,3.835-.393l.711-.351.316.274a27.991,27.991,0,0,1,3.408,3.244c-.017.069-.145.394-.274.728a6.413,6.413,0,0,0-.213,2.885A5.551,5.551,0,0,0,48.3,73.8a6.1,6.1,0,0,0,2.983-.163,5.384,5.384,0,0,0,3.442-6.343,5.566,5.566,0,0,0-1.244-2.343l-.446-.5,2.5-4.753,2.508-4.753.325.043a7.507,7.507,0,0,0,2.646-.145,5.552,5.552,0,0,0,3.561-3.535,5.442,5.442,0,0,0-3.821-6.8A7.239,7.239,0,0,0,58.113,44.516Zm2.662,2.517a3.235,3.235,0,0,1,1.413,1.438,2.407,2.407,0,0,1,.2,1.258,2.134,2.134,0,0,1-.24,1.31,3.2,3.2,0,0,1-1.361,1.352,3.312,3.312,0,0,1-2.4.12,3.049,3.049,0,0,1-1.832-3.561A2.988,2.988,0,0,1,60.775,47.032ZM39.167,55.38a3.492,3.492,0,0,1,.865.608,2.991,2.991,0,0,1-.805,4.793,2.068,2.068,0,0,1-1.283.249,2.436,2.436,0,0,1-1.293-.223,3.063,3.063,0,0,1-1.413-1.378,3.307,3.307,0,0,1-.119-2.4A3.011,3.011,0,0,1,39.167,55.38Zm11.686,10.5a3.353,3.353,0,0,1,1.378,1.4,3.645,3.645,0,0,1,.145,2.237,3.263,3.263,0,0,1-1.957,1.935,4.161,4.161,0,0,1-.958.1,3,3,0,0,1-2.663-1.78,2.956,2.956,0,0,1-.017-2.38A3.035,3.035,0,0,1,50.853,65.875ZM27.448,72.552a3.079,3.079,0,0,1,1.61,1.515,2.079,2.079,0,0,1,.273,1.258,2.691,2.691,0,0,1-.565,1.8,2.839,2.839,0,0,1-2.423,1.19,2.067,2.067,0,0,1-1.258-.274,3.2,3.2,0,0,1-1.456-1.456,2.427,2.427,0,0,1-.2-1.258,2.117,2.117,0,0,1,.205-1.241,3.051,3.051,0,0,1,1.79-1.592A3.645,3.645,0,0,1,27.448,72.552Z" transform="translate(-21.006 -44.389)" fill="#2c40ce"/>
</svg>
