<svg xmlns="http://www.w3.org/2000/svg" xmlns:xlink="http://www.w3.org/1999/xlink" width="37.974" height="35.807" viewBox="0 0 37.974 35.807">
  <defs>
    <linearGradient id="linear-gradient" x1="1.907" y1="-1.308" x2="0" y2="2.12" gradientUnits="objectBoundingBox">
      <stop offset="0" stop-color="#2c40ce"/>
      <stop offset="1" stop-color="#8f97d6"/>
    </linearGradient>
  </defs>
  <g id="data-analytics" transform="translate(0 496.795)">
    <path id="Path_4495" data-name="Path 4495" d="M34.32-496.684a3.2,3.2,0,0,0-1.914,1.713,2.057,2.057,0,0,0-.237,1.2,8.164,8.164,0,0,0,.037.92c.037.208,0,.237-2.574,1.765l-2.618,1.557-.274-.237a3.243,3.243,0,0,0-1.55-.69,3.213,3.213,0,0,0-3.108,1.38l-.148.215L19.613-490l-2.321-1.135.03-.223A3.212,3.212,0,0,0,16.965-493,3.126,3.126,0,0,0,12-493.836a3.082,3.082,0,0,0-.927,2.744c.052.26.1.541.1.63.007.126-.616.623-2.974,2.388l-2.982,2.225-.3-.133a3.119,3.119,0,0,0-4.153,1.55A2.1,2.1,0,0,0,.5-483.163a2.843,2.843,0,0,0,.541,1.847A3.181,3.181,0,0,0,5.024-480.3,3.179,3.179,0,0,0,6.5-481.828a2,2,0,0,0,.215-1.261c-.007-.43-.022-.875-.037-.986-.022-.2.156-.341,2.982-2.455l3-2.24.482.178a2.388,2.388,0,0,0,1.187.148,2.777,2.777,0,0,0,1.773-.616l.245-.215L19-487.947l2.655,1.328.089.3a3.229,3.229,0,0,0,1.691,1.847,2.469,2.469,0,0,0,1.1.26,3.122,3.122,0,0,0,3.338-2.907l.052-.482,2.8-1.676c1.543-.92,2.833-1.669,2.87-1.669a2.681,2.681,0,0,1,.475.185,3.108,3.108,0,0,0,3.464-.742,3.125,3.125,0,0,0-.912-5.006,2.156,2.156,0,0,0-1.224-.274A2.708,2.708,0,0,0,34.32-496.684Z" transform="translate(-0.463 0)" fill="url(#linear-gradient)"/>
    <path id="Path_4496" data-name="Path 4496" d="M427.711-326.666a1.2,1.2,0,0,0-.356.2c-.371.334-.356-.23-.356,11.377,0,10.739,0,10.843.148,11.081.289.467.393.482,3.019.482,2.225,0,2.373-.007,2.6-.148a1.364,1.364,0,0,0,.386-.386c.148-.245.148-.4.148-11.036,0-10.391-.007-10.806-.141-11.051a1.269,1.269,0,0,0-.386-.408c-.237-.141-.4-.148-2.551-.163C428.964-326.725,427.83-326.7,427.711-326.666Z" transform="translate(-395.33 -157.461)" fill="url(#linear-gradient)"/>
    <path id="Path_4497" data-name="Path 4497" d="M142.512-297.829a1.209,1.209,0,0,0-.378.423c-.126.245-.134.875-.134,9.938s.007,9.694.134,9.938a1.21,1.21,0,0,0,.378.423c.252.171.282.171,2.67.171,2.27,0,2.433-.007,2.655-.148a1.153,1.153,0,0,0,.371-.386c.126-.23.133-.749.133-10s-.007-9.768-.133-10a1.154,1.154,0,0,0-.371-.386c-.222-.141-.386-.148-2.655-.148C142.794-298,142.764-298,142.512-297.829Z" transform="translate(-131.468 -184.051)" fill="url(#linear-gradient)"/>
    <path id="Path_4498" data-name="Path 4498" d="M285-240.852a1.152,1.152,0,0,0-.371.386c-.126.23-.134.667-.134,7.884s.007,7.654.134,7.884a1.153,1.153,0,0,0,.371.386c.223.141.386.148,2.655.148,2.388,0,2.418,0,2.67-.171.549-.363.512.193.512-8.247s.037-7.884-.512-8.247c-.252-.171-.282-.171-2.67-.171C285.39-241,285.227-240.993,285-240.852Z" transform="translate(-263.399 -236.823)" fill="url(#linear-gradient)"/>
    <path id="Path_4499" data-name="Path 4499" d="M.5-183.874a1.257,1.257,0,0,0-.349.4C0-183.206,0-183.14,0-177.688c0,5.377.007,5.525.148,5.763a1.364,1.364,0,0,0,.386.386c.23.141.378.148,2.6.148,2.626,0,2.729-.015,3.019-.482.148-.237.148-.356.148-5.815,0-6.156.022-5.867-.467-6.163-.223-.141-.386-.148-2.685-.148C1.009-183.993.682-183.978.5-183.874Z" transform="translate(0 -289.596)" fill="url(#linear-gradient)"/>
  </g>
</svg>
