<svg xmlns="http://www.w3.org/2000/svg" xmlns:xlink="http://www.w3.org/1999/xlink" width="35.279" height="36.796" viewBox="0 0 35.279 36.796">
  <defs>
    <linearGradient id="linear-gradient" x1="0.886" y1="0.178" x2="0.178" y2="0.883" gradientUnits="objectBoundingBox">
      <stop offset="0" stop-color="#2c40ce"/>
      <stop offset="1" stop-color="#8f97d6"/>
    </linearGradient>
  </defs>
  <g id="discount" transform="translate(-10.8 511.768)">
    <path id="Path_4500" data-name="Path 4500" d="M27.8-511.705c-.748.144-1.129.41-2.583,1.8a10.305,10.305,0,0,1-1.662,1.424c-.252.093-.424.079-1.921-.122-.906-.13-1.863-.237-2.122-.237a3.134,3.134,0,0,0-2.662,1.4c-.36.547-.439.813-.784,2.8a17,17,0,0,1-.4,1.863c-.137.252-.324.374-1.8,1.144-2.007,1.05-2.352,1.324-2.77,2.194a3.1,3.1,0,0,0-.3,1.489c0,.6.108.906,1,2.734a6.649,6.649,0,0,1,.763,1.856,6.65,6.65,0,0,1-.763,1.856c-.892,1.827-1,2.129-1,2.734a3.1,3.1,0,0,0,.3,1.489c.417.87.763,1.144,2.77,2.194,1.475.77,1.662.892,1.8,1.144a16.875,16.875,0,0,1,.4,1.87c.158.906.338,1.8.388,1.978a3.126,3.126,0,0,0,2.957,2.208c.281.007,1.259-.1,2.187-.23,1.532-.209,1.7-.223,1.957-.129a10.3,10.3,0,0,1,1.662,1.424,7.973,7.973,0,0,0,1.834,1.532,3.165,3.165,0,0,0,1.863.288c.9-.151,1.23-.367,2.748-1.82a10.3,10.3,0,0,1,1.662-1.424c.252-.094.424-.079,1.921.122.906.129,1.863.237,2.122.237a3.135,3.135,0,0,0,2.662-1.4c.36-.547.439-.813.784-2.8a17,17,0,0,1,.4-1.863c.137-.259.295-.36,1.985-1.245,1.6-.842,1.95-1.094,2.331-1.669a3.027,3.027,0,0,0,.554-1.8c0-.734-.072-.942-1-2.849a6.65,6.65,0,0,1-.763-1.856,6.649,6.649,0,0,1,.763-1.856c.928-1.906,1-2.115,1-2.849a3.027,3.027,0,0,0-.554-1.8c-.381-.576-.734-.827-2.331-1.669-1.691-.885-1.849-.985-1.985-1.244a17.005,17.005,0,0,1-.4-1.863c-.345-1.986-.424-2.252-.784-2.8a3.134,3.134,0,0,0-2.662-1.4c-.259,0-1.216.108-2.122.237-1.5.2-1.669.216-1.921.122a10.305,10.305,0,0,1-1.662-1.424,8.562,8.562,0,0,0-1.82-1.525A3.175,3.175,0,0,0,27.8-511.705Zm-2.791,8.877a3.922,3.922,0,0,1,3.05,3.539,3.918,3.918,0,0,1-2.906,4.014,3.821,3.821,0,0,1-3.69-1.043,3.8,3.8,0,0,1-.784-4.367A3.892,3.892,0,0,1,25.008-502.828Zm10.971,1.547a1.067,1.067,0,0,1,.417,1.352c-.129.237-14.33,14.424-14.553,14.539a1.118,1.118,0,0,1-.942-.065,1.067,1.067,0,0,1-.417-1.352c.122-.216,14.316-14.416,14.539-14.539A1.153,1.153,0,0,1,35.978-501.281Zm-2.28,9.827a4.2,4.2,0,0,1,2.432,1.964,3.868,3.868,0,0,1-.59,4.4,3.789,3.789,0,0,1-4.546.863,3.858,3.858,0,0,1-2.173-3.223,3.944,3.944,0,0,1,2.878-4.014A4.8,4.8,0,0,1,33.7-491.455Z" transform="translate(0 0)" fill="url(#linear-gradient)"/>
    <path id="Path_4501" data-name="Path 4501" d="M173.692-358.787a1.672,1.672,0,0,0-.993,1.561,1.707,1.707,0,0,0,1.748,1.755,1.741,1.741,0,0,0,.906-3.23A1.81,1.81,0,0,0,173.692-358.787Z" transform="translate(-150.253 -141.826)" fill="url(#linear-gradient)"/>
    <path id="Path_4502" data-name="Path 4502" d="M292.1-201.517a1.755,1.755,0,0,0-.511,3.2,1.77,1.77,0,0,0,1.611.115,1.75,1.75,0,0,0,.079-3.165A2.046,2.046,0,0,0,292.1-201.517Z" transform="translate(-259.813 -287.901)" fill="url(#linear-gradient)"/>
  </g>
</svg>
