<svg xmlns="http://www.w3.org/2000/svg" xmlns:xlink="http://www.w3.org/1999/xlink" width="36.224" height="34.95" viewBox="0 0 36.224 34.95">
  <defs>
    <linearGradient id="linear-gradient" x1="25.814" y1="-7.785" x2="-16.075" y2="9.879" gradientUnits="objectBoundingBox">
      <stop offset="0" stop-color="#2c40ce"/>
      <stop offset="1" stop-color="#8f97d6"/>
    </linearGradient>
  </defs>
  <g id="megaphone" transform="translate(-0.035 503.052)">
    <path id="Path_4503" data-name="Path 4503" d="M400.739-502.85a5.437,5.437,0,0,0-.531,2.009.544.544,0,0,0,.262.3c.538.276.785.042,1.068-.991.255-.948.255-1.125.028-1.344A.544.544,0,0,0,400.739-502.85Z" transform="translate(-371.853 0)" fill="url(#linear-gradient)"/>
    <path id="Path_4504" data-name="Path 4504" d="M20.53-496.753a2.766,2.766,0,0,0-1.224.722,12.417,12.417,0,0,0-.877,1.189,34.369,34.369,0,0,1-4.733,5.731,32.856,32.856,0,0,1-4.04,3.488c-1.111.821-1.2.913-1.2,1.2a31.4,31.4,0,0,0,2.017,3.7c1.1,1.91,2.031,3.559,2.052,3.658a.679.679,0,0,1-.283.644.728.728,0,0,1-.658-.085c-.085-.064-1.026-1.649-2.1-3.517s-2.031-3.467-2.13-3.559A.653.653,0,0,0,7-483.734,31.755,31.755,0,0,0,4.151-482.2a15.1,15.1,0,0,0-3.134,2,3.175,3.175,0,0,0-.906,2.993c.106.5.191.665,2,3.807a18.964,18.964,0,0,0,1.96,3.12,3.317,3.317,0,0,0,4.019.545c.219-.127,1.606-.927,3.085-1.776s3.057-1.741,3.5-1.96a36.979,36.979,0,0,1,14.257-3.743,5.125,5.125,0,0,0,1.465-.219,2.532,2.532,0,0,0,1.344-1.259,1.723,1.723,0,0,0,.226-1.075,2.263,2.263,0,0,0-.127-.884c-.255-.594-8.653-15.064-8.908-15.361A2.666,2.666,0,0,0,20.53-496.753Z" transform="translate(0 -5.8)" fill="url(#linear-gradient)"/>
    <path id="Path_4505" data-name="Path 4505" d="M461.42-443.462c-.693.4-.955.594-1.012.743a.594.594,0,0,0,.432.807c.177.042.368-.042,1.16-.5a6.059,6.059,0,0,0,1.026-.672.627.627,0,0,0-.474-.92A4.467,4.467,0,0,0,461.42-443.462Z" transform="translate(-427.758 -54.874)" fill="url(#linear-gradient)"/>
    <path id="Path_4506" data-name="Path 4506" d="M387.361-422.72a.769.769,0,0,0-.361.545c0,.092,1.16,2.179,1.981,3.545.354.594.708.708,1.068.347.2-.2.205-.234.205-.87a4.669,4.669,0,0,0-.1-1.012,3.865,3.865,0,0,0-1.96-2.406C387.616-422.847,387.6-422.854,387.361-422.72Z" transform="translate(-359.585 -74.569)" fill="url(#linear-gradient)"/>
    <path id="Path_4507" data-name="Path 4507" d="M475.139-352.665a.576.576,0,0,0,.142.934,8.981,8.981,0,0,0,1.726.446.6.6,0,0,0,.573-.552c0-.389-.205-.545-1.083-.785C475.521-352.891,475.358-352.891,475.139-352.665Z" transform="translate(-441.32 -139.593)" fill="url(#linear-gradient)"/>
    <path id="Path_4508" data-name="Path 4508" d="M131.419-135.909c-.616.318-3.785,2.172-3.849,2.25a.789.789,0,0,0-.113.3c-.035.17.2.623,1.486,2.859,1.641,2.851,1.854,3.134,2.491,3.354a2.078,2.078,0,0,0,1.295.007,10.219,10.219,0,0,0,2.158-1.323,1.76,1.76,0,0,0,.446-1.394l-.021-.538-1.557-2.71C132-136.156,131.971-136.2,131.419-135.909Z" transform="translate(-118.403 -341.06)" fill="url(#linear-gradient)"/>
  </g>
</svg>
