<svg xmlns="http://www.w3.org/2000/svg" width="41.451" height="47.411" viewBox="0 0 41.451 47.411">
  <g id="Apps_icons_-05" data-name="Apps icons -05" transform="translate(-31.057 -5.46)">
    <path id="Path_4758" data-name="Path 4758" d="M69.189,9.939c0,3.12-.017,3.471-.188,3.8a1.077,1.077,0,0,1-.751.618,1.05,1.05,0,0,1-.909-.288l-.357-.311L66.931,9.28,55.643,20.569h-.962L52.7,18.528l-1.85-1.888-8.878,8.869c-3.349,3.343-9.066,9.032-9.246,9.147a1.019,1.019,0,0,1-.563.171,1.069,1.069,0,0,1-.591-.181,1.143,1.143,0,0,1-.494-1.156c.04-.239.827-1.1,9.487-9.757,3.624-3.641,9.48-9.465,9.738-9.591.762-.358.976-.178,3.059,1.885l1.8,1.788,3.635-3.571c2.158-2.117,4.471-4.41,5.281-5.215l1.309-1.313H63.532a8.594,8.594,0,0,1-2.57-.152,1.032,1.032,0,0,1-.639-.927,1.055,1.055,0,0,1,.593-.989c.325-.167.686-.188,3.847-.188,3.067,0,3.529.021,3.8.167C69.189,5.95,69.189,6.251,69.189,9.939Z" transform="translate(0)" fill="#2c40ce"/>
    <path id="Path_4759" data-name="Path 4759" d="M226.936,149.507a10.482,10.482,0,0,0-2.753-3.362l-.394-.3v-8.674c0-8.794,0-8.794-.219-9.067a1.4,1.4,0,0,0-.617-.395,26.175,26.175,0,0,0-4.374.01,1.327,1.327,0,0,0-.533.323c-.21.232-.214.236-.243,8.247l-.019,7.819-.555.053c-.375.028-.8.085-.947.114l-.094.02V133.426l-.307-.339-.31-.357h-2.315c-2.142,0-2.311.006-2.607.224a1.194,1.194,0,0,0-.227.229.785.785,0,0,0-.145.275c-.055.312-.074,5.359-.079,7.538l-.009,7.25-.345.576a9.509,9.509,0,0,0-1.25,3.372V138.9l-.657-.634-2.139-.009c-.216,0-2.095-.016-2.318.031a1.225,1.225,0,0,0-.844,1.021c-.032.249-.047,4.713-.029,9.185.03,7.916.05,8.845.188,9.046.334.5.585.523,2.46.551.436.009.8.015,1.113.015,1.289,0,1.609-.094,1.926-.413l.3-.3v-1.9a9.7,9.7,0,0,0,1.459,3.737,9.928,9.928,0,0,0,5.739,4.1,7.321,7.321,0,0,0,2.419.249,7.418,7.418,0,0,0,2.429-.249,10.31,10.31,0,0,0,5.066-3.208A9.836,9.836,0,0,0,226.936,149.507Zm-20.5,6.349h-1.595V140.47h1.595Zm15.105-25.988v14.8l-.024-.007c-.123-.038-.5-.14-.877-.236l-.553-.15-.028-7.224-.019-7.187Zm-9.1,5.066h1.595V145.02l-.463.26c-.3.171-.727.425-.948.579l-.188.124Zm12.908,21.337a7.412,7.412,0,0,1-3.775,4.3,6.06,6.06,0,0,1-3.363.774,6.476,6.476,0,0,1-3.333-.736,6.862,6.862,0,0,1-2.165-1.65,7.464,7.464,0,0,1-.072-10.158,7.885,7.885,0,0,1,4.512-2.413,7.147,7.147,0,0,1,1.011-.083,7.563,7.563,0,0,1,7.186,9.966Z" transform="translate(-155.448 -110.707)" fill="#2c40ce"/>
    <path id="Path_4760" data-name="Path 4760" d="M341.085,343.289a2.833,2.833,0,0,1-.229,1.269,3.256,3.256,0,0,1-1.328,1.529c-.354.188-.355.192-.4.578a1.234,1.234,0,0,1-.663,1.095,1.086,1.086,0,0,1-.469.117,1.043,1.043,0,0,1-.546-.172,1.088,1.088,0,0,1-.537-1.032c0-.217,0-.217-.33-.337a3.34,3.34,0,0,1-2-2.71c-.046-.727.03-1.09.6-1.324a1.079,1.079,0,0,1,.955.023,1.156,1.156,0,0,1,.551.854c.113.735.507,1.139,1.109,1.139a1.052,1.052,0,0,0,.938-.538.979.979,0,0,0-.022-1c-.229-.389-.447-.5-1.165-.6a3.32,3.32,0,0,1-2.678-1.831,3.735,3.735,0,0,1-.169-2.42,3.389,3.389,0,0,1,1.978-2.112c.188-.061.188-.061.241-.547.06-.676.214-.929.685-1.126a1.018,1.018,0,0,1,.96.068c.4.189.525.616.577,1.184.034.5.034.5.385.686a3.156,3.156,0,0,1,1.549,2.627c.009.526-.017.677-.3.946a1.065,1.065,0,0,1-1.1.269,1.107,1.107,0,0,1-.763-.872,1.351,1.351,0,0,0-.5-1.009.987.987,0,0,0-.838-.169,1.055,1.055,0,0,0-.713.577.836.836,0,0,0,.022.947,1.442,1.442,0,0,0,1.253.636,3.2,3.2,0,0,1,2.619,1.814A2.5,2.5,0,0,1,341.085,343.289Z" transform="translate(-275.038 -297.765)" fill="#2c40ce"/>
    <path id="Path_4761" data-name="Path 4761" d="M127.281,265.061c-.325-.469-.761-.511-2.846-.511a6.552,6.552,0,0,0-2.316.157h0c-.026.014-.052.026-.076.038-.518.249-.518.249-.524,7.03v9.595l.3.3c.319.319.621.413,1.912.413.319,0,.7-.006,1.154-.015l1.9-.029.338-.348.353-.342v-8.015C127.476,265.651,127.468,265.343,127.281,265.061Zm-3.605,14.87V266.8h1.595v13.135Z" transform="translate(-81.976 -234.782)" fill="#2c40ce"/>
    <path id="Path_4762" data-name="Path 4762" d="M45.381,354.27c-.266-.643-.644-.687-2.871-.678-.515,0-1.032.014-1.427.024s-.687.022-.751.034a1.171,1.171,0,0,0-.537.37l-.266.329v7.707l.3.3c.313.314.681.412,2.027.412.312,0,.677,0,1.106-.014,1.867-.037,2.117-.066,2.414-.681A45.572,45.572,0,0,0,45.381,354.27Zm-2.1,1.564v4.789l-1.548-.052-.026-2.378-.018-2.363Z" transform="translate(-7.678 -315.469)" fill="#2c40ce"/>
  </g>
</svg>
