<svg xmlns="http://www.w3.org/2000/svg" width="42.757" height="41.471" viewBox="0 0 42.757 41.471">
  <g id="Apps_icons_-01" data-name="Apps icons -01" transform="translate(-1.25 -8.942)">
    <path id="Path_4751" data-name="Path 4751" d="M43.8,29.246h0a3.1,3.1,0,0,0-.6-.971,3.21,3.21,0,0,0-1.82-1.048,1.339,1.339,0,0,0-1.33.307,1.018,1.018,0,0,0-.315.729,1.11,1.11,0,0,0,.336.787l.007.007a1.028,1.028,0,0,0,.677.319,1.6,1.6,0,0,1,.9.486,1.1,1.1,0,0,1,0,1.007c-.309.419-.412.452-1.379.474l-.725.025-.03-.192c-.023-.168-.055-.424-.084-.631l-.026-.217a15.359,15.359,0,0,0-7.36-11.045l-.353-.206-.007-1.123a6.881,6.881,0,0,0-.233-2.157,9.2,9.2,0,0,0-6.575-6.59A11.584,11.584,0,0,0,21.3,9a9.622,9.622,0,0,0-3.847,1.542A9.11,9.11,0,0,0,13.52,17.62l-.029.5-1.536-.894c-1.919-1.122-2-1.166-2.59-1.176a1.659,1.659,0,0,0-1.6.96l-.007.013c-.19.41-.2.533-.2,3.271V22.99l-.282.371A16.525,16.525,0,0,0,5.3,26.981l-.084.236-.9.034a3.363,3.363,0,0,0-1.655.293,2.463,2.463,0,0,0-1.191,1.191c-.217.4-.217.4-.217,3.738v3.333l.284.513a2.812,2.812,0,0,0,1.253,1.147,6,6,0,0,0,1.459.168l.944.034L5.319,38a16.008,16.008,0,0,0,5.071,6.7l.225.16v1.9c0,1.929.015,2.142.185,2.49l.007.013a2.248,2.248,0,0,0,1.231,1.049,22.32,22.32,0,0,0,4.254,0c.6-.168,1.058-.663,1.626-1.775l.39-.773h7.231l.43.817c.516.988.923,1.555,1.576,1.728a16.42,16.42,0,0,0,2.219.1c1.766,0,1.872,0,2.37-.239A2,2,0,0,0,33.2,48.792a17.646,17.646,0,0,0,.1-2.265v-1.68l.789-.658a15.509,15.509,0,0,0,4.59-6.592,16.088,16.088,0,0,0,.766-3.327c.009-.095.016-.176.021-.252,0-.042.011-.151.02-.244l.018-.172.173-.014c.111-.009.264-.013.412-.018h.027l.3-.008a3.55,3.55,0,0,0,1.725-.276,3.182,3.182,0,0,0,1.8-2.28,3.265,3.265,0,0,0,.064-.637,3.062,3.062,0,0,0-.211-1.125ZM16.362,15.209a7.2,7.2,0,0,1,.579-1.05,7.313,7.313,0,0,1,4.452-2.906,7.591,7.591,0,0,1,3.062.159,6.693,6.693,0,0,1,2.9,1.664,6.846,6.846,0,0,1,1.621,7.575c-.061.159-.112.284-.151.377l-.089.2-.228-.113a14.352,14.352,0,0,0-2.607-.971l-.152-.039-.294-.077.064-.209a2.724,2.724,0,0,0-.229-2.008,2.9,2.9,0,0,0-.593-.755l-.29-.264.381-.095a1.067,1.067,0,0,0,.24-.091,1.156,1.156,0,0,0,.593-1.09,2.914,2.914,0,0,0-1.594-2.387c-.1-.049-.185-.093-.242-.128l-.075-.048-.018-.084a1.106,1.106,0,0,0-2.163,0l-.018.084L21.443,13a1.29,1.29,0,0,1-.148.084,3.067,3.067,0,0,0-1.361,1.265,2.027,2.027,0,0,0-.284,1.288,2.207,2.207,0,0,0,.224,1.193,2.964,2.964,0,0,0,.671.847l.309.271-.4.091a1.025,1.025,0,0,0-.677.471,1.589,1.589,0,0,0-.065,1.314l.065.209-.211.056-.369.095a11.113,11.113,0,0,0-1.077.35c-.41.154-.877.348-1.426.591l-.187.084-.084-.185a6.854,6.854,0,0,1-.06-5.819Zm6.927,1.13a3.569,3.569,0,0,0-.419-.069c-.63-.07-.736-.131-.923-.364a.429.429,0,0,1-.056-.478.69.69,0,0,1,.265-.279.908.908,0,0,1,.474-.127c.45,0,.716.247.814.755a1.28,1.28,0,0,0,.084.276l.168.38Zm.116,2.786v.036l-.012.034a.906.906,0,0,1-.528.466h-.007a.783.783,0,0,1-.226.033.923.923,0,0,1-.538-.18.557.557,0,0,1-.258-.427.809.809,0,0,0-.1-.393l-.216-.4.445.1a3.27,3.27,0,0,0,.388.06h0c.715.076,1.049.291,1.052.677ZM37.12,34.872A13.171,13.171,0,0,1,31.881,43.1c-.11.08-.6.439-.657.5-.084.084-.084.084-.109.882-.017.609-.03,1.161-.039,1.641l-.036,2.031-1.336.021-1.434.015-.577-1.1c-.783-1.51-.946-1.756-2.092-1.616-.727.084-6.64.084-7.359,0-1.16-.142-1.342.133-2.09,1.614l-.565,1.1H12.841V46.307a8.093,8.093,0,0,0-.136-2.493v-.007a3.874,3.874,0,0,0-.848-.8A16.943,16.943,0,0,1,10.285,41.6a12.615,12.615,0,0,1-3.02-4.754,4.062,4.062,0,0,0-.514-1.069c-.31-.32-.6-.373-2.084-.373-.477,0-.822,0-.972-.018l-.089-.013L3.552,35.3l-.01-.013c-.084-.11-.106-.183-.106-1.007v-.695h.419c.71,0,.839-.01,1.194-.365a.994.994,0,0,0,.242-1.231c-.252-.58-.9-.629-1.485-.629H3.436v-.694c0-.823.008-.89.125-1.032l.118-.135,1.286-.023c1.377-.025,1.51-.035,1.783-.306a2.228,2.228,0,0,0,.419-.78A13.184,13.184,0,0,1,9.151,24.6c.185-.241.425-.569.5-.706l.013-.028c.045-.1.117-.252.117-3.02,0-.711.005-1.392.014-1.913L9.8,18.58l.315.173c.312.177.679.388.99.565l.277.158c1.579.923,2.013,1.139,2.349,1.154l.148.007.043.143a10.348,10.348,0,0,0,.456,1.118l.242.526-.15.117c-.194.159-.587.5-.881.781-.512.495-.623.641-.623,1.064a.91.91,0,0,0,.376.808c.671.6,1.284.189,1.742-.242a11.238,11.238,0,0,1,5.536-2.809,14.042,14.042,0,0,1,4.026-.007,11.352,11.352,0,0,1,5.385,2.7,3.174,3.174,0,0,0,.879.624l.019.005a1.1,1.1,0,0,0,1.046-.3,1.114,1.114,0,0,0,.284-1.069,4.182,4.182,0,0,0-1.4-1.478l-.119-.095-.125-.1.065-.147c.045-.1.121-.269.223-.484l.214-.46.5.336a15.533,15.533,0,0,1,3.483,3.541,13.7,13.7,0,0,1,2.047,5.012A15.7,15.7,0,0,1,37.12,34.872Z" transform="translate(0 0)" fill="#2c40ce"/>
    <path id="Path_4752" data-name="Path 4752" d="M115.075,218.457a1.1,1.1,0,0,1-.524.95,1.079,1.079,0,0,1-.557.159,1.128,1.128,0,0,1-.517-.125,1,1,0,0,1-.587-.983,1.066,1.066,0,0,1,.628-.994,1.174,1.174,0,0,1,.447-.084,1.129,1.129,0,0,1,.632.191A1.068,1.068,0,0,1,115.075,218.457Z" transform="translate(-102.276 -190.954)" fill="#2c40ce"/>
  </g>
</svg>
