<svg xmlns="http://www.w3.org/2000/svg" width="41.911" height="41.92" viewBox="0 0 41.911 41.92">
  <path id="Apps_icons_-02" data-name="Apps icons -02" d="M19.656.363C19.5.38,19.017.437,18.59.486A21.034,21.034,0,0,0,.39,18.667a29.261,29.261,0,0,0,.033,5.49,21.237,21.237,0,0,0,11.218,15.8A21.029,21.029,0,0,0,32.7,38.842a21.38,21.38,0,0,0,8-9.776A21.02,21.02,0,0,0,40.953,14.2c-.2-.541-.68-1.639-1.082-2.442l-.738-1.467,1.123-1.123c1.229-1.229,1.36-1.45,1.2-2.049a1.336,1.336,0,0,0-.918-.869c-.147-.025-1.073-.115-2.057-.2s-1.811-.172-1.836-.2-.107-.852-.2-1.836-.172-1.909-.2-2.057a1.336,1.336,0,0,0-.869-.918c-.6-.164-.828-.033-2.04,1.188a13.979,13.979,0,0,1-1.172,1.106,8.932,8.932,0,0,1-.9-.459,21.2,21.2,0,0,0-7.1-2.368A35.592,35.592,0,0,0,19.656.363Zm3.327,2.5a18.922,18.922,0,0,1,6.252,1.754,6.9,6.9,0,0,1,1.073.59,8.107,8.107,0,0,1-.778.844A3.58,3.58,0,0,0,28.678,7.1a3.411,3.411,0,0,0,0,1.024c.033.41.074.893.074,1.065v.3l-.311-.2A16.132,16.132,0,0,0,25.8,8.055,14.009,14.009,0,1,0,18.877,35.1a12.6,12.6,0,0,0,2.417.148,10.369,10.369,0,0,0,2.63-.221A14.035,14.035,0,0,0,34.406,16.577a16.668,16.668,0,0,0-1.2-2.516l-.2-.311h.3c.172,0,.656.041,1.065.074a3.411,3.411,0,0,0,1.024,0,3.58,3.58,0,0,0,1.049-.852,7.27,7.27,0,0,1,.844-.778,6.192,6.192,0,0,1,.59,1.073,18.5,18.5,0,0,1-3.245,20.757A18.141,18.141,0,0,1,29.4,37.875,18.466,18.466,0,0,1,8.487,34.728a17.985,17.985,0,0,1-3.86-5.253A18.5,18.5,0,0,1,22.983,2.862Zm11.21,3.606c.164,1.6.3,1.721,2.163,1.877l1.18.107L36.069,9.918,34.6,11.385l-1.59-.131c-.877-.074-1.606-.139-1.614-.148s-.074-.729-.148-1.606l-.139-1.59,1.467-1.467c1.36-1.36,1.459-1.45,1.483-1.237.016.131.074.7.131,1.262ZM23.527,9.98a12.336,12.336,0,0,1,2.811.959,12.145,12.145,0,0,1,1.909,1.2l.188.172L26.69,14.053,24.953,15.79l-.508-.287a6.873,6.873,0,0,0-4.876-.647,6.779,6.779,0,0,0-4.294,3.524,5.75,5.75,0,0,0-.664,2.581,6.556,6.556,0,0,0,3.712,6.277,6.638,6.638,0,0,0,8.055-1.786,7.936,7.936,0,0,0,1.262-2.524A6.788,6.788,0,0,0,27,18.06l-.287-.508,1.737-1.737L30.2,14.069l.172.188a12.145,12.145,0,0,1,1.2,1.909,12.812,12.812,0,0,1,.975,2.852,13.617,13.617,0,0,1,0,4.54,11.577,11.577,0,0,1-9.055,9.055,13.617,13.617,0,0,1-4.54,0,11.588,11.588,0,0,1-9.055-9.055,13.617,13.617,0,0,1,0-4.54,11.59,11.59,0,0,1,9.932-9.2A15.257,15.257,0,0,1,23.527,9.98Zm-1.041,7.326c.754.238.795.148-.795,1.745a18.225,18.225,0,0,0-1.573,1.721,1.217,1.217,0,0,0,1.614,1.614,18.224,18.224,0,0,0,1.721-1.573c1.6-1.59,1.508-1.549,1.745-.795a4.207,4.207,0,0,1-4.818,5.359,4.175,4.175,0,0,1-.131-8.154,5.346,5.346,0,0,1,2.234.085Z" transform="translate(-0.277 -0.338)" fill="#2c40ce"/>
</svg>
