<svg xmlns="http://www.w3.org/2000/svg" width="44.279" height="42.587" viewBox="0 0 44.279 42.587">
  <g id="Apps_icons_-04" data-name="Apps icons -04" transform="translate(-12.51 -27.07)">
    <rect id="Rectangle_2502" data-name="Rectangle 2502" width="22.159" height="2.33" rx="1.165" transform="translate(19.336 35.526)" fill="#2c40ce"/>
    <path id="Path_4756" data-name="Path 4756" d="M49.915,44.681v-13A4.618,4.618,0,0,0,45.3,27.07H17.123a4.619,4.619,0,0,0-4.613,4.613V59.862a4.619,4.619,0,0,0,4.614,4.614H32.93A13.318,13.318,0,1,0,49.915,44.681ZM17.124,62.15a2.29,2.29,0,0,1-2.288-2.288V31.683A2.289,2.289,0,0,1,17.124,29.4H45.3a2.29,2.29,0,0,1,2.287,2.287V43.67a13.319,13.319,0,0,0-10.781,1.135H20.5a1.165,1.165,0,0,0,0,2.33H33.844a13.284,13.284,0,0,0-3.506,6.944H20.5a1.165,1.165,0,0,0,0,2.33h9.648a13.247,13.247,0,0,0,1.342,5.744Zm26.344,5.18a11,11,0,0,1-11-10.925v-.071a11,11,0,1,1,11,11Z" fill="#2c40ce"/>
    <path id="Path_4757" data-name="Path 4757" d="M289.537,276.815v.014a.96.96,0,0,1-.291.69l-2.665,2.735a1.007,1.007,0,0,1-1.42,0l-2.684-2.723a1,1,0,0,1,1.413-1.412l1.041,1.058a5.13,5.13,0,1,0-5.027,6.2,5.06,5.06,0,0,0,2.889-.913,1.014,1.014,0,0,1,1.383.254.984.984,0,0,1,.169.723l-.01.056a1.028,1.028,0,0,1-.4.608,6.926,6.926,0,0,1-4.026,1.271,7.218,7.218,0,0,1-4.974-12.329A6.968,6.968,0,0,1,279.875,271h.023a7.148,7.148,0,0,1,7.027,6.047l.9-.922a1.007,1.007,0,0,1,1.419,0A.971.971,0,0,1,289.537,276.815Z" transform="translate(-237.014 -222.109)" fill="#2c40ce"/>
  </g>
</svg>
