<svg xmlns="http://www.w3.org/2000/svg" xmlns:xlink="http://www.w3.org/1999/xlink" width="36.42" height="35.598" viewBox="0 0 36.42 35.598">
  <defs>
    <linearGradient id="linear-gradient" x1="2.601" y1="0.879" x2="0.126" y2="2.718" gradientUnits="objectBoundingBox">
      <stop offset="0" stop-color="#2c40ce"/>
      <stop offset="1" stop-color="#8f97d6"/>
    </linearGradient>
  </defs>
  <g id="web" transform="translate(-16.589 490)">
    <path id="Path_4734" data-name="Path 4734" d="M47.545-489.613a18.107,18.107,0,0,0-7.637,4.48,18.348,18.348,0,0,0-3.537,4.792l-.472.928h7.69l.03-.175c.852-4.1,2.449-7.629,4.358-9.637a5.337,5.337,0,0,0,.586-.677C48.527-489.9,48.07-489.772,47.545-489.613Z" transform="translate(-17.842 -0.091)" fill="url(#linear-gradient)"/>
    <path id="Path_4735" data-name="Path 4735" d="M309.9-489.315c1.9,2,3.491,5.53,4.351,9.637l.03.175h7.682l-.388-.768a18.507,18.507,0,0,0-6.245-7.089,18.225,18.225,0,0,0-5.1-2.381c-.495-.144-.921-.259-.943-.259A5.87,5.87,0,0,0,309.9-489.315Z" transform="translate(-270.43)" fill="url(#linear-gradient)"/>
    <path id="Path_4736" data-name="Path 4736" d="M175.629-479.825c-2.115.715-4.191,3.955-5.325,8.276-.167.647-.3,1.194-.3,1.225s2.944.061,6.542.061,6.542-.023,6.542-.061-.137-.578-.3-1.225c-1.316-5.013-3.864-8.458-6.268-8.451A3.472,3.472,0,0,0,175.629-479.825Z" transform="translate(-141.742 -9.239)" fill="url(#linear-gradient)"/>
    <path id="Path_4737" data-name="Path 4737" d="M17.206-319.947a22.874,22.874,0,0,0-.525,2.533,21.743,21.743,0,0,0-.091,2.32,15.5,15.5,0,0,0,.434,4.069l.175.723,4.092.023,4.092.015-.046-.243a45.839,45.839,0,0,1,0-9.25l.046-.243H21.313C19.07-320,17.221-319.977,17.206-319.947Z" transform="translate(0 -157.069)" fill="url(#linear-gradient)"/>
    <path id="Path_4738" data-name="Path 4738" d="M160.236-319.224a39.316,39.316,0,0,0-.236,4.092,39.054,39.054,0,0,0,.236,4.085l.091.783h13.95l.091-.783a36.736,36.736,0,0,0,0-8.177l-.091-.776h-13.95Z" transform="translate(-132.503 -157.069)" fill="url(#linear-gradient)"/>
    <path id="Path_4739" data-name="Path 4739" d="M379.846-319.757a45.433,45.433,0,0,1,0,9.211l-.046.281,4.092-.015,4.092-.023.175-.723a15.334,15.334,0,0,0,.434-4.107,15.334,15.334,0,0,0-.434-4.107l-.175-.723-4.092-.023L379.8-320Z" transform="translate(-335.584 -157.069)" fill="url(#linear-gradient)"/>
    <path id="Path_4740" data-name="Path 4740" d="M36.388-159.232a17.983,17.983,0,0,0,3.294,4.625,16.448,16.448,0,0,0,2.974,2.48,18.337,18.337,0,0,0,4.967,2.328c.449.122.882.251.966.274s-.137-.259-.51-.654c-1.932-2.023-3.453-5.393-4.366-9.653l-.03-.167H36Z" transform="translate(-17.934 -304.899)" fill="url(#linear-gradient)"/>
    <path id="Path_4741" data-name="Path 4741" d="M170-159.947c0,.038.137.586.3,1.232,1.308,4.99,3.856,8.451,6.237,8.451,2.457,0,5.013-3.575,6.344-8.877.106-.426.2-.791.2-.814s-2.944-.046-6.542-.046S170-159.977,170-159.947Z" transform="translate(-141.742 -304.899)" fill="url(#linear-gradient)"/>
    <path id="Path_4742" data-name="Path 4742" d="M314.251-159.833c-.913,4.244-2.442,7.629-4.351,9.645a5.87,5.87,0,0,0-.616.685c.023,0,.456-.122.958-.266a18.863,18.863,0,0,0,6.093-3.073,25.6,25.6,0,0,0,2.944-2.837,21.477,21.477,0,0,0,2.221-3.4l.472-.92h-7.69Z" transform="translate(-270.43 -304.899)" fill="url(#linear-gradient)"/>
  </g>
</svg>
