<svg xmlns="http://www.w3.org/2000/svg" width="56.497" height="28.12" viewBox="0 0 56.497 28.12">
  <g id="Apps_icons_-08" data-name="Apps icons -08" transform="translate(-4.987 -106.658)">
    <path id="Path_4765" data-name="Path 4765" d="M27.306,234.676H4.988A27.605,27.605,0,0,1,9.524,219.23L27.193,231.8a6.1,6.1,0,0,0,.113,2.871Z" transform="translate(0 -99.903)" fill="#2c40ce"/>
    <path id="Path_4766" data-name="Path 4766" d="M75.807,139.867a6.086,6.086,0,0,0-2.394,2.491L56.44,130.051a27.608,27.608,0,0,1,12.742-9.841Q72.5,130.038,75.807,139.867Z" transform="translate(-45.662 -12.027)" fill="#2c40ce"/>
    <path id="Path_4767" data-name="Path 4767" d="M329.428,234.676H306.91a6.1,6.1,0,0,0,.225-1.662,5.989,5.989,0,0,0-.1-1.089l17.846-12.695a27.6,27.6,0,0,1,4.533,15.446Z" transform="translate(-267.944 -99.903)" fill="#2c40ce"/>
    <path id="Path_4768" data-name="Path 4768" d="M302.59,130.051l-17.12,12.411a6.1,6.1,0,0,0-2.28-2.5l6.658-19.753A27.6,27.6,0,0,1,302.59,130.051Z" transform="translate(-246.894 -12.027)" fill="#2c40ce"/>
    <path id="Path_4769" data-name="Path 4769" d="M199.419,108.127l-6.239,19.211a6.109,6.109,0,0,0-3.5-.059q-3.216-9.7-6.436-19.4A25.01,25.01,0,0,1,199.419,108.127Z" transform="translate(-158.192)" fill="#2c40ce"/>
    <path id="Path_4770" data-name="Path 4770" d="M247.058,274.07a.1.1,0,0,0-.135,0l-8.252,6.246a1.915,1.915,0,0,0-.2.179h0a1.671,1.671,0,0,0,.054,2.363h0a1.436,1.436,0,0,0,.18.151h0a1.672,1.672,0,0,0,2.341-.383h0l6.046-8.415A.106.106,0,0,0,247.058,274.07Zm-7.2,7.951a.6.6,0,1,1,.6-.6A.6.6,0,0,1,239.855,282.021Z" transform="translate(-206.794 -148.548)" fill="#2c40ce"/>
  </g>
</svg>
