<svg xmlns="http://www.w3.org/2000/svg" xmlns:xlink="http://www.w3.org/1999/xlink" width="1968" height="1719" viewBox="0 0 1968 1719">
  <defs>
    <filter id="Rectangle_1473" x="48.396" y="136.5" width="1901.205" height="1476" filterUnits="userSpaceOnUse">
      <feOffset dx="15" dy="15" input="SourceAlpha"/>
      <feGaussianBlur stdDeviation="10" result="blur"/>
      <feFlood flood-opacity="0.031"/>
      <feComposite operator="in" in2="blur"/>
      <feComposite in="SourceGraphic"/>
    </filter>
    <clipPath id="clip-Web_1920_103">
      <rect width="1968" height="1719"/>
    </clipPath>
  </defs>
  <g id="Web_1920_103" data-name="Web 1920 – 103" clip-path="url(#clip-Web_1920_103)">
    <rect width="1968" height="1719" fill="#fff"/>
    <g id="Group_1066" data-name="Group 1066" transform="translate(-899.075 -555.606) rotate(9)">
      <g transform="matrix(0.99, -0.16, 0.16, 0.99, 974.92, 408.12)" filter="url(#Rectangle_1473)">
        <rect id="Rectangle_1473-2" data-name="Rectangle 1473" width="1817.32" height="1384.494" rx="14" transform="translate(87.56 151.5) rotate(1)" fill="#fff"/>
      </g>
      <text id="Calculators" transform="translate(1230.08 731.766) rotate(-8)" fill="#2c40ce" font-size="111" font-family="DMSans-Medium, DM Sans" font-weight="500" opacity="0.9"><tspan x="0" y="0">Calculators</tspan></text>
      <text id="Investment_Calculator" data-name="Investment Calculator" transform="translate(1440.789 937.298) rotate(-8)" fill="#141727" font-size="98" font-family="DMSans-Regular, DM Sans" opacity="0.9"><tspan x="0" y="0">Investment Calculator</tspan></text>
      <text id="Savings_Calculator" data-name="Savings Calculator" transform="translate(1476.921 1194.392) rotate(-8)" fill="#141727" font-size="98" font-family="DMSans-Regular, DM Sans" opacity="0.9"><tspan x="0" y="0">Savings Calculator</tspan></text>
      <text id="Small_Business_Calculator" data-name="Small Business Calculator" transform="translate(1513.054 1451.483) rotate(-8)" fill="#141727" font-size="98" font-family="DMSans-Regular, DM Sans" opacity="0.9"><tspan x="0" y="0">Small Business Calculator</tspan></text>
      <g id="noun-calculator-1040748" transform="translate(1250.933 880.136) rotate(-8)">
        <path id="Path_4680" data-name="Path 4680" d="M7.4,0A7.41,7.41,0,0,0,0,7.4V98.654a7.41,7.41,0,0,0,7.4,7.4H76.456a7.41,7.41,0,0,0,7.4-7.4V7.4a7.41,7.41,0,0,0-7.4-7.4Zm0,2.466H76.456A4.9,4.9,0,0,1,81.388,7.4V98.654a4.9,4.9,0,0,1-4.932,4.933H7.4a4.9,4.9,0,0,1-4.932-4.933V7.4A4.9,4.9,0,0,1,7.4,2.466ZM16.03,7.4a6.179,6.179,0,0,0-6.166,6.166V25.9a6.18,6.18,0,0,0,6.166,6.166H67.824A6.18,6.18,0,0,0,73.989,25.9V13.565A6.179,6.179,0,0,0,67.824,7.4Zm0,2.466H67.824a3.664,3.664,0,0,1,3.7,3.7V25.9a3.665,3.665,0,0,1-3.7,3.7H16.03a3.665,3.665,0,0,1-3.7-3.7V13.565A3.664,3.664,0,0,1,16.03,9.865ZM10.867,37a1.234,1.234,0,0,0-1,1.234v14.8A1.234,1.234,0,0,0,11.1,54.26H25.9a1.233,1.233,0,0,0,1.234-1.234v-14.8A1.233,1.233,0,0,0,25.9,37H11.1A1.3,1.3,0,0,0,10.867,37ZM34.3,37a1.233,1.233,0,0,0-1,1.234v14.8a1.233,1.233,0,0,0,1.233,1.234h14.8a1.233,1.233,0,0,0,1.233-1.234v-14.8A1.233,1.233,0,0,0,49.326,37h-14.8A1.288,1.288,0,0,0,34.3,37Zm23.584,0a1.234,1.234,0,0,0-1.156,1.234v14.8a1.233,1.233,0,0,0,1.233,1.234h14.8a1.234,1.234,0,0,0,1.234-1.234v-14.8a1.234,1.234,0,0,0-1-1.234,1.3,1.3,0,0,0-.231,0H57.882Zm-45.55,2.466H24.663V51.793H12.331Zm23.43,0H48.093V51.793H35.761Zm23.43,0H71.523V51.793H59.192ZM10.867,59.192a1.234,1.234,0,0,0-1,1.234v14.8A1.233,1.233,0,0,0,11.1,76.456H25.9a1.233,1.233,0,0,0,1.234-1.233v-14.8A1.233,1.233,0,0,0,25.9,59.192H11.1A1.3,1.3,0,0,0,10.867,59.192Zm23.43,0a1.233,1.233,0,0,0-1,1.234v14.8a1.233,1.233,0,0,0,1.233,1.233h14.8a1.233,1.233,0,0,0,1.233-1.233v-14.8a1.233,1.233,0,0,0-1.233-1.234h-14.8A1.293,1.293,0,0,0,34.3,59.192Zm23.584,0a1.234,1.234,0,0,0-1.156,1.234v14.8a1.233,1.233,0,0,0,1.233,1.233h14.8a1.233,1.233,0,0,0,1.234-1.233v-14.8a1.234,1.234,0,0,0-1-1.234,1.3,1.3,0,0,0-.231,0H57.882Zm-45.55,2.466H24.663V73.99H12.331Zm23.43,0H48.093V73.99H35.761Zm23.43,0H71.523V73.99H59.192ZM10.867,81.39a1.234,1.234,0,0,0-1,1.233v14.8A1.233,1.233,0,0,0,11.1,98.654H25.9a1.233,1.233,0,0,0,1.234-1.233v-14.8A1.233,1.233,0,0,0,25.9,81.39H11.1A1.157,1.157,0,0,0,10.867,81.39Zm23.43,0a1.233,1.233,0,0,0-1,1.233v14.8a1.233,1.233,0,0,0,1.233,1.233h14.8a1.233,1.233,0,0,0,1.233-1.233v-14.8a1.233,1.233,0,0,0-1.233-1.233h-14.8A1.148,1.148,0,0,0,34.3,81.39Zm23.584,0a1.233,1.233,0,0,0-1.156,1.233v14.8a1.233,1.233,0,0,0,1.233,1.233h14.8a1.233,1.233,0,0,0,1.234-1.233v-14.8a1.234,1.234,0,0,0-1-1.233,1.155,1.155,0,0,0-.231,0H57.882Zm-45.55,2.466H24.663V96.187H12.331Zm23.43,0H48.093V96.187H35.761Zm23.43,0H71.523V96.187H59.192Z" fill="#2c40ce" stroke="#2c40ce" stroke-width="0.2"/>
      </g>
      <g id="noun-calculator-1040748-2" data-name="noun-calculator-1040748" transform="translate(1287.065 1137.23) rotate(-8)">
        <path id="Path_4680-2" data-name="Path 4680" d="M7.4,0A7.41,7.41,0,0,0,0,7.4V98.654a7.41,7.41,0,0,0,7.4,7.4H76.456a7.41,7.41,0,0,0,7.4-7.4V7.4a7.41,7.41,0,0,0-7.4-7.4Zm0,2.466H76.456A4.9,4.9,0,0,1,81.388,7.4V98.654a4.9,4.9,0,0,1-4.932,4.933H7.4a4.9,4.9,0,0,1-4.932-4.933V7.4A4.9,4.9,0,0,1,7.4,2.466ZM16.03,7.4a6.179,6.179,0,0,0-6.166,6.166V25.9a6.18,6.18,0,0,0,6.166,6.166H67.824A6.18,6.18,0,0,0,73.989,25.9V13.565A6.179,6.179,0,0,0,67.824,7.4Zm0,2.466H67.824a3.664,3.664,0,0,1,3.7,3.7V25.9a3.665,3.665,0,0,1-3.7,3.7H16.03a3.665,3.665,0,0,1-3.7-3.7V13.565A3.664,3.664,0,0,1,16.03,9.865ZM10.867,37a1.234,1.234,0,0,0-1,1.234v14.8A1.234,1.234,0,0,0,11.1,54.26H25.9a1.233,1.233,0,0,0,1.234-1.234v-14.8A1.233,1.233,0,0,0,25.9,37H11.1A1.3,1.3,0,0,0,10.867,37ZM34.3,37a1.233,1.233,0,0,0-1,1.234v14.8a1.233,1.233,0,0,0,1.233,1.234h14.8a1.233,1.233,0,0,0,1.233-1.234v-14.8A1.233,1.233,0,0,0,49.326,37h-14.8A1.288,1.288,0,0,0,34.3,37Zm23.584,0a1.234,1.234,0,0,0-1.156,1.234v14.8a1.233,1.233,0,0,0,1.233,1.234h14.8a1.234,1.234,0,0,0,1.234-1.234v-14.8a1.234,1.234,0,0,0-1-1.234,1.3,1.3,0,0,0-.231,0H57.882Zm-45.55,2.466H24.663V51.793H12.331Zm23.43,0H48.093V51.793H35.761Zm23.43,0H71.523V51.793H59.192ZM10.867,59.192a1.234,1.234,0,0,0-1,1.234v14.8A1.233,1.233,0,0,0,11.1,76.456H25.9a1.233,1.233,0,0,0,1.234-1.233v-14.8A1.233,1.233,0,0,0,25.9,59.192H11.1A1.3,1.3,0,0,0,10.867,59.192Zm23.43,0a1.233,1.233,0,0,0-1,1.234v14.8a1.233,1.233,0,0,0,1.233,1.233h14.8a1.233,1.233,0,0,0,1.233-1.233v-14.8a1.233,1.233,0,0,0-1.233-1.234h-14.8A1.293,1.293,0,0,0,34.3,59.192Zm23.584,0a1.234,1.234,0,0,0-1.156,1.234v14.8a1.233,1.233,0,0,0,1.233,1.233h14.8a1.233,1.233,0,0,0,1.234-1.233v-14.8a1.234,1.234,0,0,0-1-1.234,1.3,1.3,0,0,0-.231,0H57.882Zm-45.55,2.466H24.663V73.99H12.331Zm23.43,0H48.093V73.99H35.761Zm23.43,0H71.523V73.99H59.192ZM10.867,81.39a1.234,1.234,0,0,0-1,1.233v14.8A1.233,1.233,0,0,0,11.1,98.654H25.9a1.233,1.233,0,0,0,1.234-1.233v-14.8A1.233,1.233,0,0,0,25.9,81.39H11.1A1.157,1.157,0,0,0,10.867,81.39Zm23.43,0a1.233,1.233,0,0,0-1,1.233v14.8a1.233,1.233,0,0,0,1.233,1.233h14.8a1.233,1.233,0,0,0,1.233-1.233v-14.8a1.233,1.233,0,0,0-1.233-1.233h-14.8A1.148,1.148,0,0,0,34.3,81.39Zm23.584,0a1.233,1.233,0,0,0-1.156,1.233v14.8a1.233,1.233,0,0,0,1.233,1.233h14.8a1.233,1.233,0,0,0,1.234-1.233v-14.8a1.234,1.234,0,0,0-1-1.233,1.155,1.155,0,0,0-.231,0H57.882Zm-45.55,2.466H24.663V96.187H12.331Zm23.43,0H48.093V96.187H35.761Zm23.43,0H71.523V96.187H59.192Z" fill="#2c40ce" stroke="#2c40ce" stroke-width="0.2"/>
      </g>
      <g id="noun-calculator-1040748-3" data-name="noun-calculator-1040748" transform="translate(1323.189 1394.32) rotate(-8)">
        <path id="Path_4680-3" data-name="Path 4680" d="M7.4,0A7.41,7.41,0,0,0,0,7.4V98.654a7.41,7.41,0,0,0,7.4,7.4H76.456a7.41,7.41,0,0,0,7.4-7.4V7.4a7.41,7.41,0,0,0-7.4-7.4Zm0,2.466H76.456A4.9,4.9,0,0,1,81.388,7.4V98.654a4.9,4.9,0,0,1-4.932,4.933H7.4a4.9,4.9,0,0,1-4.932-4.933V7.4A4.9,4.9,0,0,1,7.4,2.466ZM16.03,7.4a6.179,6.179,0,0,0-6.166,6.166V25.9a6.18,6.18,0,0,0,6.166,6.166H67.824A6.18,6.18,0,0,0,73.989,25.9V13.565A6.179,6.179,0,0,0,67.824,7.4Zm0,2.466H67.824a3.664,3.664,0,0,1,3.7,3.7V25.9a3.665,3.665,0,0,1-3.7,3.7H16.03a3.665,3.665,0,0,1-3.7-3.7V13.565A3.664,3.664,0,0,1,16.03,9.865ZM10.867,37a1.234,1.234,0,0,0-1,1.234v14.8A1.234,1.234,0,0,0,11.1,54.26H25.9a1.233,1.233,0,0,0,1.234-1.234v-14.8A1.233,1.233,0,0,0,25.9,37H11.1A1.3,1.3,0,0,0,10.867,37ZM34.3,37a1.233,1.233,0,0,0-1,1.234v14.8a1.233,1.233,0,0,0,1.233,1.234h14.8a1.233,1.233,0,0,0,1.233-1.234v-14.8A1.233,1.233,0,0,0,49.326,37h-14.8A1.288,1.288,0,0,0,34.3,37Zm23.584,0a1.234,1.234,0,0,0-1.156,1.234v14.8a1.233,1.233,0,0,0,1.233,1.234h14.8a1.234,1.234,0,0,0,1.234-1.234v-14.8a1.234,1.234,0,0,0-1-1.234,1.3,1.3,0,0,0-.231,0H57.882Zm-45.55,2.466H24.663V51.793H12.331Zm23.43,0H48.093V51.793H35.761Zm23.43,0H71.523V51.793H59.192ZM10.867,59.192a1.234,1.234,0,0,0-1,1.234v14.8A1.233,1.233,0,0,0,11.1,76.456H25.9a1.233,1.233,0,0,0,1.234-1.233v-14.8A1.233,1.233,0,0,0,25.9,59.192H11.1A1.3,1.3,0,0,0,10.867,59.192Zm23.43,0a1.233,1.233,0,0,0-1,1.234v14.8a1.233,1.233,0,0,0,1.233,1.233h14.8a1.233,1.233,0,0,0,1.233-1.233v-14.8a1.233,1.233,0,0,0-1.233-1.234h-14.8A1.293,1.293,0,0,0,34.3,59.192Zm23.584,0a1.234,1.234,0,0,0-1.156,1.234v14.8a1.233,1.233,0,0,0,1.233,1.233h14.8a1.233,1.233,0,0,0,1.234-1.233v-14.8a1.234,1.234,0,0,0-1-1.234,1.3,1.3,0,0,0-.231,0H57.882Zm-45.55,2.466H24.663V73.99H12.331Zm23.43,0H48.093V73.99H35.761Zm23.43,0H71.523V73.99H59.192ZM10.867,81.39a1.234,1.234,0,0,0-1,1.233v14.8A1.233,1.233,0,0,0,11.1,98.654H25.9a1.233,1.233,0,0,0,1.234-1.233v-14.8A1.233,1.233,0,0,0,25.9,81.39H11.1A1.157,1.157,0,0,0,10.867,81.39Zm23.43,0a1.233,1.233,0,0,0-1,1.233v14.8a1.233,1.233,0,0,0,1.233,1.233h14.8a1.233,1.233,0,0,0,1.233-1.233v-14.8a1.233,1.233,0,0,0-1.233-1.233h-14.8A1.148,1.148,0,0,0,34.3,81.39Zm23.584,0a1.233,1.233,0,0,0-1.156,1.233v14.8a1.233,1.233,0,0,0,1.233,1.233h14.8a1.233,1.233,0,0,0,1.234-1.233v-14.8a1.234,1.234,0,0,0-1-1.233,1.155,1.155,0,0,0-.231,0H57.882Zm-45.55,2.466H24.663V96.187H12.331Zm23.43,0H48.093V96.187H35.761Zm23.43,0H71.523V96.187H59.192Z" transform="translate(0 0)" fill="#2c40ce" stroke="#2c40ce" stroke-width="0.2"/>
      </g>
      <g id="noun-calculator-1040748-4" data-name="noun-calculator-1040748" transform="translate(1359.321 1651.41) rotate(-8)">
        <path id="Path_4680-4" data-name="Path 4680" d="M7.4,0A7.41,7.41,0,0,0,0,7.4V98.654a7.41,7.41,0,0,0,7.4,7.4H76.456a7.41,7.41,0,0,0,7.4-7.4V7.4a7.41,7.41,0,0,0-7.4-7.4Zm0,2.466H76.456A4.9,4.9,0,0,1,81.388,7.4V98.654a4.9,4.9,0,0,1-4.932,4.933H7.4a4.9,4.9,0,0,1-4.932-4.933V7.4A4.9,4.9,0,0,1,7.4,2.466ZM16.03,7.4a6.179,6.179,0,0,0-6.166,6.166V25.9a6.18,6.18,0,0,0,6.166,6.166H67.824A6.18,6.18,0,0,0,73.989,25.9V13.565A6.179,6.179,0,0,0,67.824,7.4Zm0,2.466H67.824a3.664,3.664,0,0,1,3.7,3.7V25.9a3.665,3.665,0,0,1-3.7,3.7H16.03a3.665,3.665,0,0,1-3.7-3.7V13.565A3.664,3.664,0,0,1,16.03,9.865ZM10.867,37a1.234,1.234,0,0,0-1,1.234v14.8A1.234,1.234,0,0,0,11.1,54.26H25.9a1.233,1.233,0,0,0,1.234-1.234v-14.8A1.233,1.233,0,0,0,25.9,37H11.1A1.3,1.3,0,0,0,10.867,37ZM34.3,37a1.233,1.233,0,0,0-1,1.234v14.8a1.233,1.233,0,0,0,1.233,1.234h14.8a1.233,1.233,0,0,0,1.233-1.234v-14.8A1.233,1.233,0,0,0,49.326,37h-14.8A1.288,1.288,0,0,0,34.3,37Zm23.584,0a1.234,1.234,0,0,0-1.156,1.234v14.8a1.233,1.233,0,0,0,1.233,1.234h14.8a1.234,1.234,0,0,0,1.234-1.234v-14.8a1.234,1.234,0,0,0-1-1.234,1.3,1.3,0,0,0-.231,0H57.882Zm-45.55,2.466H24.663V51.793H12.331Zm23.43,0H48.093V51.793H35.761Zm23.43,0H71.523V51.793H59.192ZM10.867,59.192a1.234,1.234,0,0,0-1,1.234v14.8A1.233,1.233,0,0,0,11.1,76.456H25.9a1.233,1.233,0,0,0,1.234-1.233v-14.8A1.233,1.233,0,0,0,25.9,59.192H11.1A1.3,1.3,0,0,0,10.867,59.192Zm23.43,0a1.233,1.233,0,0,0-1,1.234v14.8a1.233,1.233,0,0,0,1.233,1.233h14.8a1.233,1.233,0,0,0,1.233-1.233v-14.8a1.233,1.233,0,0,0-1.233-1.234h-14.8A1.293,1.293,0,0,0,34.3,59.192Zm23.584,0a1.234,1.234,0,0,0-1.156,1.234v14.8a1.233,1.233,0,0,0,1.233,1.233h14.8a1.233,1.233,0,0,0,1.234-1.233v-14.8a1.234,1.234,0,0,0-1-1.234,1.3,1.3,0,0,0-.231,0H57.882Zm-45.55,2.466H24.663V73.99H12.331Zm23.43,0H48.093V73.99H35.761Zm23.43,0H71.523V73.99H59.192ZM10.867,81.39a1.234,1.234,0,0,0-1,1.233v14.8A1.233,1.233,0,0,0,11.1,98.654H25.9a1.233,1.233,0,0,0,1.234-1.233v-14.8A1.233,1.233,0,0,0,25.9,81.39H11.1A1.157,1.157,0,0,0,10.867,81.39Zm23.43,0a1.233,1.233,0,0,0-1,1.233v14.8a1.233,1.233,0,0,0,1.233,1.233h14.8a1.233,1.233,0,0,0,1.233-1.233v-14.8a1.233,1.233,0,0,0-1.233-1.233h-14.8A1.148,1.148,0,0,0,34.3,81.39Zm23.584,0a1.233,1.233,0,0,0-1.156,1.233v14.8a1.233,1.233,0,0,0,1.233,1.233h14.8a1.233,1.233,0,0,0,1.234-1.233v-14.8a1.234,1.234,0,0,0-1-1.233,1.155,1.155,0,0,0-.231,0H57.882Zm-45.55,2.466H24.663V96.187H12.331Zm23.43,0H48.093V96.187H35.761Zm23.43,0H71.523V96.187H59.192Z" transform="translate(0 0)" fill="#2c40ce" stroke="#2c40ce" stroke-width="0.2"/>
      </g>
      <g id="noun-forward-1748854" transform="translate(2733.72 709.677) rotate(-8)">
        <path id="Path_4681" data-name="Path 4681" d="M65.208,20.886,36.067.444c-2.61-1.3-5.655.435-5.655,3.045V17.406l-27.367.435A2.908,2.908,0,0,0,0,20.451v6.525c0,1.74,1.138,3.479,2.878,3.479H30.412V43.938a3.544,3.544,0,0,0,5.655,3.045L65.208,26.976c2.175-1.74,2.175-4.785,0-6.089Z" transform="translate(0 0)" fill="#2c40ce" fill-rule="evenodd"/>
      </g>
      <g id="noun-forward-1748854-2" data-name="noun-forward-1748854" transform="translate(2769.869 966.767) rotate(-8)">
        <path id="Path_4681-2" data-name="Path 4681" d="M65.208,20.886,36.067.444c-2.61-1.3-5.655.435-5.655,3.045V17.406l-27.367.435A2.908,2.908,0,0,0,0,20.451v6.525c0,1.74,1.138,3.479,2.878,3.479H30.412V43.938a3.544,3.544,0,0,0,5.655,3.045L65.208,26.976c2.175-1.74,2.175-4.785,0-6.089Z" transform="translate(0 0)" fill="#2c40ce" fill-rule="evenodd"/>
      </g>
      <g id="noun-forward-1748854-3" data-name="noun-forward-1748854" transform="translate(2805.985 1223.857) rotate(-8)">
        <path id="Path_4681-3" data-name="Path 4681" d="M65.208,20.886,36.067.444c-2.61-1.3-5.655.435-5.655,3.045V17.406l-27.367.435A2.908,2.908,0,0,0,0,20.451v6.525c0,1.74,1.138,3.479,2.878,3.479H30.412V43.938a3.544,3.544,0,0,0,5.655,3.045L65.208,26.976c2.175-1.74,2.175-4.785,0-6.089Z" transform="translate(0 0)" fill="#2c40ce" fill-rule="evenodd"/>
      </g>
      <g id="noun-forward-1748854-4" data-name="noun-forward-1748854" transform="translate(2842.134 1480.951) rotate(-8)">
        <path id="Path_4681-4" data-name="Path 4681" d="M65.208,20.886,36.067.444c-2.61-1.3-5.655.435-5.655,3.045V17.406l-27.367.435A2.908,2.908,0,0,0,0,20.451v6.525c0,1.74,1.138,3.479,2.878,3.479H30.412V43.938a3.544,3.544,0,0,0,5.655,3.045L65.208,26.976c2.175-1.74,2.175-4.785,0-6.089Z" transform="translate(0 0)" fill="#2c40ce" fill-rule="evenodd"/>
      </g>
      <line id="Line_35" data-name="Line 35" x2="1800.57" transform="translate(1169.244 1080.584) rotate(-8)" fill="none" stroke="#b8b8b8" stroke-width="0.3"/>
      <line id="Line_36" data-name="Line 36" x2="1800.57" transform="translate(1205.376 1337.674) rotate(-8)" fill="none" stroke="#b8b8b8" stroke-width="0.3"/>
      <line id="Line_37" data-name="Line 37" x2="1800.57" transform="translate(1241.509 1594.768) rotate(-8)" fill="none" stroke="#b8b8b8" stroke-width="0.3"/>
      <rect id="Rectangle_2427" data-name="Rectangle 2427" width="1180.839" height="50.248" rx="3" transform="translate(1538.845 1661.738) rotate(-8)" fill="#b1b1b1" opacity="0.41"/>
    </g>
  </g>
</svg>
