<svg xmlns="http://www.w3.org/2000/svg" xmlns:xlink="http://www.w3.org/1999/xlink" width="3349" height="1384" viewBox="0 0 3349 1384">
  <defs>
    <clipPath id="clip-Web_1920_105">
      <rect width="3349" height="1384"/>
    </clipPath>
  </defs>
  <g id="Web_1920_105" data-name="Web 1920 – 105" clip-path="url(#clip-Web_1920_105)">
    <rect width="3349" height="1384" fill="#fff"/>
    <g id="Group_1068" data-name="Group 1068">
      <rect id="Rectangle_2514" data-name="Rectangle 2514" width="498" height="145" rx="72.5" transform="translate(1494 293)" fill="#eaf0f9"/>
      <rect id="Rectangle_2515" data-name="Rectangle 2515" width="498" height="143" rx="71.5" transform="translate(1871 601)" fill="#eaf0f9"/>
      <rect id="Rectangle_2516" data-name="Rectangle 2516" width="601" height="144" rx="72" transform="translate(944 526)" fill="#eaf0f9"/>
      <rect id="Rectangle_2517" data-name="Rectangle 2517" width="530" height="143" rx="71.5" transform="translate(606 802)" fill="#eaf0f9"/>
      <rect id="Rectangle_2518" data-name="Rectangle 2518" width="595" height="144" rx="72" transform="translate(2317 365)" fill="#eaf0f9"/>
      <rect id="Rectangle_2519" data-name="Rectangle 2519" width="729" height="145" rx="72.5" transform="translate(2336 969)" fill="#eaf0f9"/>
      <rect id="Rectangle_2520" data-name="Rectangle 2520" width="639" height="145" rx="72.5" transform="translate(1395 996)" fill="#eaf0f9"/>
      <rect id="Rectangle_2521" data-name="Rectangle 2521" width="496" height="144" rx="72" transform="translate(506 291)" fill="#eaf0f9" opacity="0.57"/>
      <g id="Group_1039" data-name="Group 1039" transform="translate(1595.289 319.434)">
        <g id="Apps_icons_-01" data-name="Apps icons -01" transform="translate(0 0)">
          <path id="Path_4771" data-name="Path 4771" d="M96.6,54.443h0a6.938,6.938,0,0,0-1.353-2.177,7.194,7.194,0,0,0-4.079-2.348,3,3,0,0,0-2.981.688,2.282,2.282,0,0,0-.707,1.633A2.487,2.487,0,0,0,88.23,54l.015.015a2.3,2.3,0,0,0,1.517.714,3.579,3.579,0,0,1,2.015,1.09,2.457,2.457,0,0,1,0,2.256c-.692.94-.923,1.013-3.09,1.062l-1.624.056-.068-.43c-.051-.376-.122-.951-.188-1.414l-.058-.487A34.421,34.421,0,0,0,70.254,32.113l-.791-.461-.015-2.517a15.422,15.422,0,0,0-.523-4.835A20.608,20.608,0,0,0,54.189,9.532a25.961,25.961,0,0,0-8.006-.453,21.563,21.563,0,0,0-8.621,3.455A20.415,20.415,0,0,0,28.747,28.39l-.064,1.128-3.442-2c-4.3-2.515-4.474-2.613-5.8-2.635a3.719,3.719,0,0,0-3.583,2.15l-.015.03c-.427.919-.444,1.2-.444,7.331v6.034l-.632.831a37.033,37.033,0,0,0-4.434,8.113l-.188.528-2.026.077c-2.184.092-2.7.154-3.709.656A5.52,5.52,0,0,0,1.737,53.3c-.487.891-.487.891-.487,8.378v7.468l.637,1.149A6.3,6.3,0,0,0,4.7,72.864a13.441,13.441,0,0,0,3.269.376l2.115.077.289.752a35.873,35.873,0,0,0,11.365,15l.5.359v4.259c0,4.323.034,4.8.414,5.581l.015.028a5.037,5.037,0,0,0,2.758,2.352,50.018,50.018,0,0,0,9.534,0c1.35-.376,2.37-1.485,3.643-3.978l.874-1.731H55.68l.964,1.831c1.156,2.214,2.068,3.485,3.532,3.872a36.8,36.8,0,0,0,4.972.229c3.959,0,4.2,0,5.312-.536a4.47,4.47,0,0,0,2.395-3.094,39.546,39.546,0,0,0,.224-5.075V89.406l1.769-1.476A34.756,34.756,0,0,0,85.134,73.158,36.056,36.056,0,0,0,86.85,65.7c.021-.212.036-.395.047-.564,0-.094.024-.338.045-.547l.041-.385.387-.032c.248-.021.592-.03.923-.039h.06l.679-.017c2.327-.058,2.8-.133,3.867-.618a7.13,7.13,0,0,0,4.028-5.109,7.317,7.317,0,0,0,.143-1.427,6.863,6.863,0,0,0-.472-2.521ZM35.117,22.985a16.139,16.139,0,0,1,1.3-2.353,16.389,16.389,0,0,1,9.978-6.511,17.012,17.012,0,0,1,6.863.355,15,15,0,0,1,6.508,3.729A15.341,15.341,0,0,1,63.4,35.181c-.137.357-.25.635-.338.844l-.2.457-.511-.254a32.165,32.165,0,0,0-5.842-2.177l-.34-.088-.66-.173.143-.468a6.105,6.105,0,0,0-.513-4.5,6.51,6.51,0,0,0-1.329-1.692l-.65-.592.853-.212a2.392,2.392,0,0,0,.538-.2,2.59,2.59,0,0,0,1.329-2.444,6.531,6.531,0,0,0-3.572-5.35c-.231-.111-.415-.209-.543-.288l-.169-.107-.041-.188a2.478,2.478,0,0,0-4.848,0l-.039.188-.16.107a2.891,2.891,0,0,1-.333.188,6.874,6.874,0,0,0-3.049,2.835,4.542,4.542,0,0,0-.637,2.887,4.947,4.947,0,0,0,.5,2.673,6.643,6.643,0,0,0,1.5,1.9l.692.607-.9.2a2.3,2.3,0,0,0-1.517,1.056,3.562,3.562,0,0,0-.145,2.944l.145.468-.474.126-.827.212a24.9,24.9,0,0,0-2.414.784c-.919.346-1.964.78-3.2,1.325l-.419.188-.188-.414a15.359,15.359,0,0,1-.133-13.04ZM50.64,25.517a8,8,0,0,0-.94-.154c-1.412-.156-1.65-.293-2.068-.816a.961.961,0,0,1-.126-1.071,1.547,1.547,0,0,1,.594-.626,2.034,2.034,0,0,1,1.062-.286c1.009,0,1.605.553,1.823,1.692a2.868,2.868,0,0,0,.188.618l.376.852Zm.259,6.245v.081l-.026.075a2.03,2.03,0,0,1-1.184,1.045h-.015a1.753,1.753,0,0,1-.508.073,2.068,2.068,0,0,1-1.2-.4,1.248,1.248,0,0,1-.577-.957,1.812,1.812,0,0,0-.231-.882l-.485-.9,1,.218a7.333,7.333,0,0,0,.87.133h0c1.6.171,2.352.652,2.357,1.517Zm30.736,35.29a29.517,29.517,0,0,1-11.741,18.44c-.246.179-1.337.983-1.472,1.111-.188.188-.188.188-.244,1.977-.038,1.365-.068,2.6-.088,3.677l-.081,4.551-2.994.047-3.214.034-1.293-2.457c-1.756-3.384-2.12-3.934-4.688-3.62-1.63.188-14.88.188-16.491,0-2.6-.318-3.008.3-4.684,3.617l-1.267,2.464H27.226V92.677c0-4.555-.137-5.244-.3-5.587v-.015a8.683,8.683,0,0,0-1.9-1.782A37.968,37.968,0,0,1,21.5,82.122,28.271,28.271,0,0,1,14.73,71.468a9.1,9.1,0,0,0-1.152-2.4c-.694-.718-1.35-.836-4.671-.836-1.07,0-1.842,0-2.179-.039l-.2-.03-.12-.16a.229.229,0,0,1-.023-.03c-.188-.246-.237-.41-.237-2.256V64.163h.94c1.592,0,1.88-.023,2.675-.818a2.228,2.228,0,0,0,.541-2.759c-.564-1.3-2.017-1.41-3.329-1.41H6.149V57.622c0-1.844.019-1.994.28-2.312l.265-.3,2.882-.051c3.087-.056,3.384-.079,4-.686a4.993,4.993,0,0,0,.94-1.748,29.546,29.546,0,0,1,4.446-8.491c.415-.539.953-1.274,1.128-1.583l.03-.062c.1-.214.261-.564.261-6.767,0-1.594.011-3.118.032-4.288l.013-.791.707.387c.7.4,1.523.868,2.218,1.267l.62.353c3.54,2.068,4.511,2.553,5.263,2.587l.333.015.1.321a23.191,23.191,0,0,0,1.023,2.506l.543,1.179-.336.261c-.434.355-1.316,1.128-1.974,1.75-1.149,1.109-1.4,1.436-1.4,2.384a2.04,2.04,0,0,0,.842,1.81c1.5,1.355,2.878.423,3.9-.541a25.185,25.185,0,0,1,12.406-6.3,31.468,31.468,0,0,1,9.023-.015,25.441,25.441,0,0,1,12.068,6.04,7.114,7.114,0,0,0,1.97,1.4l.043.011a2.457,2.457,0,0,0,2.344-.665,2.5,2.5,0,0,0,.635-2.395c-.173-.69-1.342-1.929-3.132-3.312l-.267-.212-.28-.227.145-.329c.1-.229.271-.6.5-1.085L68.2,36.7l1.128.752a34.809,34.809,0,0,1,7.807,7.936A30.705,30.705,0,0,1,81.72,56.622,35.177,35.177,0,0,1,81.635,67.052Z" transform="translate(-1.25 -8.942)" fill="#fe85bb"/>
          <path id="Path_4772" data-name="Path 4772" d="M117.787,219.795a2.459,2.459,0,0,1-1.175,2.128,2.417,2.417,0,0,1-1.248.355,2.529,2.529,0,0,1-1.158-.28,2.251,2.251,0,0,1-1.316-2.2,2.388,2.388,0,0,1,1.408-2.227,2.632,2.632,0,0,1,1-.188,2.53,2.53,0,0,1,1.415.429A2.393,2.393,0,0,1,117.787,219.795Z" transform="translate(-91.905 -178.199)" fill="#fe85bb"/>
        </g>
        <text id="Nudges" transform="translate(201.24 61.857)" fill="#080a1a" font-size="46" font-family="DMSans-Medium, DM Sans" font-weight="500"><tspan x="-82.156" y="0">Nudges</tspan></text>
      </g>
      <text id="Smart_goal" data-name="Smart goal" transform="translate(811.709 378.841)" fill="#080a1a" font-size="46" font-family="DMSans-Medium, DM Sans" font-weight="500"><tspan x="-115.874" y="0">Smart goal</tspan></text>
      <path id="Apps_icons_-02" data-name="Apps icons -02" d="M43.242.393C42.9.43,41.825.557,40.88.666A46.636,46.636,0,0,0,.528,40.974,64.875,64.875,0,0,0,.6,53.147,47.084,47.084,0,0,0,25.473,88.175,46.624,46.624,0,0,0,72.166,85.7,47.4,47.4,0,0,0,89.9,64.029a46.6,46.6,0,0,0,.563-32.957c-.436-1.2-1.508-3.634-2.4-5.414l-1.635-3.252,2.489-2.489c2.725-2.725,3.016-3.216,2.653-4.542a2.962,2.962,0,0,0-2.035-1.926c-.327-.055-2.38-.254-4.56-.436s-4.015-.382-4.07-.436-.236-1.89-.436-4.07-.382-4.233-.436-4.56a2.962,2.962,0,0,0-1.926-2.035c-1.326-.363-1.835-.073-4.524,2.634A30.99,30.99,0,0,1,70.985,7a19.8,19.8,0,0,1-2-1.017A47,47,0,0,0,53.234.731,78.911,78.911,0,0,0,43.242.393Zm7.376,5.541A41.952,41.952,0,0,1,64.481,9.823a15.286,15.286,0,0,1,2.38,1.308A17.972,17.972,0,0,1,65.135,13a7.937,7.937,0,0,0-1.889,2.326,7.562,7.562,0,0,0,0,2.271c.073.908.164,1.98.164,2.362v.665l-.69-.436a35.768,35.768,0,0,0-5.85-2.743A31.059,31.059,0,1,0,41.516,77.419a27.945,27.945,0,0,0,5.36.327,22.988,22.988,0,0,0,5.832-.491A31.117,31.117,0,0,0,75.945,36.341a36.956,36.956,0,0,0-2.653-5.578l-.436-.69h.672c.382,0,1.453.091,2.362.164a7.562,7.562,0,0,0,2.271,0,7.937,7.937,0,0,0,2.326-1.889,16.117,16.117,0,0,1,1.871-1.726A13.728,13.728,0,0,1,83.666,29a41.022,41.022,0,0,1-7.195,46.02A40.221,40.221,0,0,1,64.844,83.56a40.942,40.942,0,0,1-46.365-6.977A39.874,39.874,0,0,1,9.921,64.938a41.007,41.007,0,0,1,40.7-59Zm24.854,7.994c.363,3.543.672,3.815,4.8,4.161l2.616.236-3.252,3.252L76.381,24.83l-3.525-.291c-1.944-.164-3.561-.309-3.579-.327s-.164-1.617-.327-3.561l-.309-3.525,3.252-3.252c3.016-3.016,3.234-3.216,3.288-2.743.036.291.164,1.544.291,2.8ZM51.825,21.715a27.35,27.35,0,0,1,6.232,2.126,26.927,26.927,0,0,1,4.233,2.653l.418.382-3.87,3.87L54.986,34.6l-1.126-.636a15.237,15.237,0,0,0-10.81-1.435,15.031,15.031,0,0,0-9.52,7.812,12.749,12.749,0,0,0-1.472,5.723,14.535,14.535,0,0,0,8.23,13.917,14.716,14.716,0,0,0,17.859-3.961,17.594,17.594,0,0,0,2.8-5.6,15.051,15.051,0,0,0-1.417-10.792L58.892,38.5l3.852-3.852,3.87-3.87L67,31.2a26.927,26.927,0,0,1,2.653,4.233,28.406,28.406,0,0,1,2.162,6.323,30.19,30.19,0,0,1,0,10.065A25.668,25.668,0,0,1,51.734,71.9a30.19,30.19,0,0,1-10.065,0A25.692,25.692,0,0,1,21.593,51.82a30.19,30.19,0,0,1,0-10.065,25.7,25.7,0,0,1,22.02-20.4A33.826,33.826,0,0,1,51.825,21.715ZM49.517,37.958c1.671.527,1.762.327-1.762,3.87a40.4,40.4,0,0,0-3.488,3.815,2.7,2.7,0,0,0,3.579,3.579,40.4,40.4,0,0,0,3.815-3.488C55.2,42.209,55,42.3,55.531,43.972A9.327,9.327,0,0,1,44.848,55.854a9.256,9.256,0,0,1-.291-18.077,11.853,11.853,0,0,1,4.953.189Z" transform="translate(576.193 316.646)" fill="#8d7bf6"/>
      <g id="Group_1046" data-name="Group 1046" transform="translate(2410.449 995.731)">
        <text id="Subscription_Insight" data-name="Subscription Insight" transform="translate(335.665 60.281)" fill="#080a1a" font-size="46" font-family="DMSans-Medium, DM Sans" font-weight="500"><tspan x="-216.752" y="0">Subscription Insight</tspan></text>
        <g id="Apps_icons_-04" data-name="Apps icons -04" transform="translate(0 0)">
          <rect id="Rectangle_2513" data-name="Rectangle 2513" width="49.267" height="5.181" rx="2.591" transform="translate(15.175 18.801)" fill="#f56868"/>
          <path id="Path_4776" data-name="Path 4776" d="M95.674,66.226v-28.9A10.267,10.267,0,0,0,85.417,27.07H22.767A10.269,10.269,0,0,0,12.51,37.327V99.977a10.269,10.269,0,0,0,10.259,10.259H57.911A29.61,29.61,0,1,0,95.674,66.226ZM22.769,105.065a5.092,5.092,0,0,1-5.088-5.088V37.327a5.09,5.09,0,0,1,5.088-5.086H85.419A5.092,5.092,0,0,1,90.5,37.327V63.978A29.613,29.613,0,0,0,66.535,66.5H30.277a2.591,2.591,0,0,0,0,5.181H59.943a29.535,29.535,0,0,0-7.795,15.438H30.271a2.591,2.591,0,1,0,0,5.181h21.45A29.452,29.452,0,0,0,54.7,105.073ZM81.34,116.583A24.464,24.464,0,0,1,56.892,92.292v-.157A24.448,24.448,0,1,1,81.34,116.583Z" transform="translate(-12.51 -27.07)" fill="#f56868"/>
          <path id="Path_4777" data-name="Path 4777" d="M310,283.928v.032a2.134,2.134,0,0,1-.646,1.534l-5.925,6.08a2.239,2.239,0,0,1-3.156,0l-5.967-6.054a2.22,2.22,0,1,1,3.14-3.139l2.315,2.353a11.405,11.405,0,1,0-11.178,13.787,11.248,11.248,0,0,0,6.424-2.031,2.255,2.255,0,0,1,3.075.565,2.187,2.187,0,0,1,.376,1.607l-.022.125a2.287,2.287,0,0,1-.9,1.353,15.4,15.4,0,0,1-8.95,2.826,16.047,16.047,0,0,1-11.058-27.411A15.492,15.492,0,0,1,288.52,271h.052a15.892,15.892,0,0,1,15.623,13.445l2-2.051a2.24,2.24,0,0,1,3.154,0A2.158,2.158,0,0,1,310,283.928Z" transform="translate(-221.038 -222.485)" fill="#f56868"/>
        </g>
      </g>
      <g id="Group_1047" data-name="Group 1047" transform="translate(2387.322 383.849)">
        <text id="Microinvesting" transform="translate(276.274 68.465)" fill="#080a1a" font-size="46" font-family="DMSans-Medium, DM Sans" font-weight="500"><tspan x="-158.7" y="0">Microinvesting</tspan></text>
        <g id="Apps_icons_-05" data-name="Apps icons -05" transform="translate(0 0)">
          <path id="Path_4778" data-name="Path 4778" d="M116.436,15.489c0,6.985-.038,7.772-.42,8.506a2.412,2.412,0,0,1-1.681,1.384,2.351,2.351,0,0,1-2.036-.645l-.8-.7-.12-10.022L86.107,39.289H83.954L79.511,34.72l-4.142-4.227L55.49,50.351c-7.5,7.485-20.3,20.223-20.7,20.481a2.281,2.281,0,0,1-1.26.382,2.393,2.393,0,0,1-1.323-.405A2.559,2.559,0,0,1,31.1,68.221c.09-.536,1.851-2.456,21.242-21.847,8.115-8.153,21.227-21.193,21.8-21.475,1.706-.8,2.185-.4,6.848,4.22l4.023,4,8.138-8c4.832-4.739,10.012-9.873,11.825-11.678l2.93-2.941h-4.136c-3.991,0-5.115-.067-5.754-.34a2.311,2.311,0,0,1-1.431-2.075A2.363,2.363,0,0,1,97.913,5.88c.727-.374,1.536-.42,8.613-.42,6.867,0,7.9.046,8.51.374C116.436,6.557,116.436,7.231,116.436,15.489Z" transform="translate(-31.057 -5.46)" fill="#5adb92"/>
          <path id="Path_4779" data-name="Path 4779" d="M257.09,176.616a23.469,23.469,0,0,0-6.163-7.527l-.882-.662V149.007c0-19.689,0-19.689-.489-20.3a3.13,3.13,0,0,0-1.382-.884,58.6,58.6,0,0,0-9.793.023,2.971,2.971,0,0,0-1.193.723c-.471.519-.479.529-.544,18.465l-.042,17.507-1.244.12c-.84.063-1.8.191-2.12.256l-.21.044V140.609l-.687-.758-.693-.8h-5.184c-4.8,0-5.174.013-5.838.5a2.671,2.671,0,0,0-.508.513,1.757,1.757,0,0,0-.326.616c-.124.7-.166,12-.176,16.877l-.021,16.234-.773,1.29a21.29,21.29,0,0,0-2.8,7.55V152.864l-1.47-1.42-4.79-.021c-.483,0-4.691-.036-5.191.069a2.744,2.744,0,0,0-1.891,2.286c-.071.557-.105,10.552-.065,20.565.067,17.723.111,19.8.42,20.254.748,1.12,1.311,1.17,5.508,1.233.977.021,1.8.034,2.491.034,2.886,0,3.6-.21,4.313-.924l.681-.681v-4.25a21.713,21.713,0,0,0,3.267,8.367,22.229,22.229,0,0,0,12.85,9.186,16.391,16.391,0,0,0,5.415.557,16.609,16.609,0,0,0,5.439-.557,23.084,23.084,0,0,0,11.343-7.182A22.024,22.024,0,0,0,257.09,176.616Zm-45.9,14.215H207.62V156.38h3.571Zm33.821-58.188v33.136l-.055-.015c-.275-.086-1.122-.313-1.964-.529l-1.237-.336-.063-16.175-.042-16.091Zm-20.376,11.344h3.571v22.582l-1.038.582c-.679.382-1.628.952-2.122,1.3l-.42.277Zm28.9,47.773a16.6,16.6,0,0,1-8.453,9.627,13.569,13.569,0,0,1-7.529,1.733,14.5,14.5,0,0,1-7.464-1.647,15.364,15.364,0,0,1-4.848-3.7,16.712,16.712,0,0,1-.162-22.744,17.654,17.654,0,0,1,10.1-5.4,16,16,0,0,1,2.265-.185,16.933,16.933,0,0,1,16.089,22.313Z" transform="translate(-166.564 -101.965)" fill="#5adb92"/>
          <path id="Path_4780" data-name="Path 4780" d="M349.155,354.733a6.345,6.345,0,0,1-.513,2.842A7.292,7.292,0,0,1,345.668,361c-.792.42-.794.431-.905,1.294a2.762,2.762,0,0,1-1.485,2.451,2.432,2.432,0,0,1-1.05.263,2.336,2.336,0,0,1-1.223-.384,2.436,2.436,0,0,1-1.2-2.311c0-.485,0-.485-.739-.754a7.478,7.478,0,0,1-4.468-6.069c-.1-1.628.067-2.441,1.349-2.964a2.416,2.416,0,0,1,2.139.053,2.589,2.589,0,0,1,1.233,1.912c.252,1.645,1.134,2.55,2.483,2.55a2.355,2.355,0,0,0,2.1-1.2,2.191,2.191,0,0,0-.05-2.246c-.513-.872-1-1.122-2.609-1.342a7.433,7.433,0,0,1-6-4.1,8.363,8.363,0,0,1-.378-5.417A7.589,7.589,0,0,1,339.295,338c.42-.136.42-.136.54-1.225.134-1.513.479-2.08,1.533-2.521a2.28,2.28,0,0,1,2.149.151c.889.422,1.176,1.38,1.292,2.651.076,1.124.076,1.124.861,1.535a7.067,7.067,0,0,1,3.468,5.882c.021,1.178-.038,1.517-.664,2.117a2.384,2.384,0,0,1-2.456.6,2.479,2.479,0,0,1-1.708-1.954,3.026,3.026,0,0,0-1.12-2.26,2.21,2.21,0,0,0-1.876-.378,2.361,2.361,0,0,0-1.6,1.292,1.873,1.873,0,0,0,.048,2.12,3.228,3.228,0,0,0,2.8,1.424,7.157,7.157,0,0,1,5.863,4.061A5.6,5.6,0,0,1,349.155,354.733Z" transform="translate(-270.813 -265.027)" fill="#5adb92"/>
          <path id="Path_4781" data-name="Path 4781" d="M134.42,265.695c-.727-1.05-1.7-1.145-6.371-1.145-3.672,0-4.64.065-5.187.351h0c-.059.031-.116.059-.17.084-1.16.557-1.16.557-1.172,15.74v21.483l.681.681c.714.714,1.391.924,4.281.924.714,0,1.565-.013,2.584-.034l4.248-.065.756-.779.79-.767V284.223C134.855,267.016,134.838,266.325,134.42,265.695Zm-8.073,33.3V269.581h3.571V298.99Z" transform="translate(-102.517 -210.124)" fill="#5adb92"/>
          <path id="Path_4782" data-name="Path 4782" d="M52.63,355.112c-.6-1.439-1.441-1.538-6.428-1.519-1.153,0-2.311.032-3.2.055s-1.538.051-1.681.076a2.623,2.623,0,0,0-1.2.828l-.594.737v17.257l.681.681c.7.7,1.525.922,4.537.922.7,0,1.517-.011,2.477-.032,4.18-.082,4.739-.147,5.4-1.525C53.128,371.516,53.132,356.322,52.63,355.112Zm-4.7,3.5v10.724l-3.466-.116L44.4,363.9l-.04-5.292Z" transform="translate(-37.75 -280.461)" fill="#5adb92"/>
        </g>
      </g>
      <g id="Group_1048" data-name="Group 1048" transform="translate(1024.266 556.921)">
        <text id="Credit_Insight" data-name="Credit Insight" transform="translate(275.686 57.032)" fill="#080a1a" font-size="46" font-family="DMSans-Medium, DM Sans" font-weight="500"><tspan x="-146.878" y="0">Credit Insight</tspan></text>
        <path id="Apps_icons_-06" data-name="Apps icons -06" d="M106.189,44.68a12.82,12.82,0,0,0-8.843,8.843,15.8,15.8,0,0,0-.021,6.072,13.2,13.2,0,0,0,2.732,5.15,7.9,7.9,0,0,1,1.1,1.335c0,.077-2.568,5.032-5.741,11.025L89.687,87.995,89,87.856a17.6,17.6,0,0,0-2.771-.156,10.432,10.432,0,0,0-5.818,1.513,2.938,2.938,0,0,1-1.07.511c-.088-.039-2.063-1.789-4.4-3.892-2.811-2.514-4.226-3.93-4.168-4.127.041-.156.334-.963.629-1.767a14.611,14.611,0,0,0,.492-6.526A14.722,14.722,0,0,0,69.358,68.1a12.838,12.838,0,0,0-6.485-4.2,15.693,15.693,0,0,0-6.132.019,12.753,12.753,0,0,0-8.922,9.138,12.333,12.333,0,0,0,2.221,10.2,2.906,2.906,0,0,1,.668,1.284c-.1.178-12.812,19.182-12.932,19.319a12.288,12.288,0,0,1-1.669-.353,12.324,12.324,0,0,0-15.074,11.242A12.466,12.466,0,0,0,30.308,127.4a16.008,16.008,0,0,0,5.955,0,12.677,12.677,0,0,0,8.963-8.864,15.842,15.842,0,0,0,.019-6.072,14.614,14.614,0,0,0-2.339-4.707l-.67-.787L48.723,97.3c3.556-5.326,6.524-9.727,6.6-9.767a4.037,4.037,0,0,1,1.217.2,12.348,12.348,0,0,0,8.8-.9l1.633-.807.725.629c4.423,3.871,7.917,7.174,7.822,7.448-.039.158-.334.905-.629,1.671a14.722,14.722,0,0,0-.49,6.622,12.744,12.744,0,0,0,9.256,9.513,14.007,14.007,0,0,0,6.847-.374,12.359,12.359,0,0,0,7.9-14.562,12.778,12.778,0,0,0-2.856-5.379l-1.023-1.14,5.738-10.912,5.758-10.912.747.1a17.233,17.233,0,0,0,6.074-.334,12.745,12.745,0,0,0,8.176-8.116,12.492,12.492,0,0,0-8.772-15.619A16.618,16.618,0,0,0,106.189,44.68Zm6.111,5.777a7.427,7.427,0,0,1,3.244,3.3,5.526,5.526,0,0,1,.46,2.889,4.9,4.9,0,0,1-.55,3.008,7.339,7.339,0,0,1-3.124,3.1,7.6,7.6,0,0,1-5.5.276,7,7,0,0,1-4.206-8.175A6.86,6.86,0,0,1,112.3,50.457ZM62.7,69.62a8.017,8.017,0,0,1,1.986,1.4,6.866,6.866,0,0,1-1.849,11,4.748,4.748,0,0,1-2.946.571,5.592,5.592,0,0,1-2.968-.511,7.031,7.031,0,0,1-3.244-3.165,7.592,7.592,0,0,1-.274-5.5A6.913,6.913,0,0,1,62.7,69.62ZM89.524,93.714a7.7,7.7,0,0,1,3.164,3.222,8.367,8.367,0,0,1,.334,5.135,7.491,7.491,0,0,1-4.493,4.442,9.552,9.552,0,0,1-2.2.235,6.88,6.88,0,0,1-6.113-4.087,6.787,6.787,0,0,1-.039-5.465A6.966,6.966,0,0,1,89.524,93.714Zm-53.73,15.328a7.067,7.067,0,0,1,3.7,3.479,4.773,4.773,0,0,1,.627,2.888,6.177,6.177,0,0,1-1.3,4.127,6.517,6.517,0,0,1-5.563,2.732,4.744,4.744,0,0,1-2.888-.629,7.339,7.339,0,0,1-3.342-3.342,5.571,5.571,0,0,1-.458-2.889c0-1.69.058-2.084.471-2.85a7,7,0,0,1,4.108-3.654A8.368,8.368,0,0,1,35.794,109.042Z" transform="translate(-21.006 -44.389)" fill="#6ad7fd"/>
      </g>
      <g id="Group_1049" data-name="Group 1049" transform="translate(1945.119 624.282)">
        <text id="Budgeting" transform="translate(223.189 62.509)" fill="#080a1a" font-size="46" font-family="DMSans-Medium, DM Sans" font-weight="500"><tspan x="-109.641" y="0">Budgeting</tspan></text>
        <g id="Apps_icons_-07" data-name="Apps icons -07" transform="translate(0 0)">
          <path id="Path_4783" data-name="Path 4783" d="M52.466,13.335A8.333,8.333,0,0,0,47.2,17.41l-.627,1.2H41.917c-4.268,0-4.715.037-5.359.369a2.858,2.858,0,0,0-1.436,2.67c.056.349,1.1,3.7,2.328,7.458s2.227,6.922,2.227,7.051-.405.516-.92.848a8.226,8.226,0,0,0-2.173,11.507c.332.516.5.939.388,1s-.5.332-.9.57a43.741,43.741,0,0,0-8.868,8C20.87,65.9,17.648,75.927,18.472,85.255c.514,5.838,2.338,10.054,5.91,13.645,4.567,4.639,10.644,6.959,21.175,8.1a158.41,158.41,0,0,0,17.492.019,54.818,54.818,0,0,0,11.49-2.229l1.067-.388.885.792a8.925,8.925,0,0,0,3.83,1.952c1.288.277,24.046.277,25.465.019a8.289,8.289,0,0,0,6.224-10.956,11.319,11.319,0,0,0-.922-1.824l-.57-.846.57-.848a8.731,8.731,0,0,0,0-9.354l-.57-.846.57-.848a7.375,7.375,0,0,0,1.358-4.676,7.406,7.406,0,0,0-1.358-4.678l-.57-.848.57-.846a8.285,8.285,0,0,0-5.3-12.778c-.607-.111-5.524-.184-12.778-.184H81.227l-1.915-2.008a37.349,37.349,0,0,0-6.321-5.357c-.664-.44-1.234-.809-1.271-.846a3.248,3.248,0,0,1,.516-.922A8.248,8.248,0,0,0,70.044,37c-.514-.332-.92-.7-.92-.848s.993-3.314,2.227-7.051,2.264-7.109,2.328-7.458a2.858,2.858,0,0,0-1.436-2.67c-.646-.332-1.087-.369-5.359-.369H62.229L61.6,17.4A8.258,8.258,0,0,0,52.466,13.335Zm3.223,5.626c1.288.664,1.473,1.288,1.473,5.155,0,2.965.037,3.407.369,4.051a2.681,2.681,0,0,0,4.786,0,4.711,4.711,0,0,0,.369-2.394V24.124h2.21a9.421,9.421,0,0,1,2.21.13c0,.074-.828,2.633-1.824,5.671l-1.8,5.524H45.322l-1.8-5.524c-1-3.038-1.824-5.58-1.824-5.671a25.6,25.6,0,0,1,3.867-.13c3.535,0,3.94-.037,4.6-.369a2.91,2.91,0,0,0,1.473-2.392,2.951,2.951,0,0,1,1.436-2.377,2.61,2.61,0,0,1,2.615-.017ZM66.736,41.433a2.683,2.683,0,0,1,0,4.788c-.7.349-1.067.367-12.337.367s-11.641-.017-12.336-.367a2.91,2.91,0,0,1-1.473-2.394,2.945,2.945,0,0,1,1.436-2.375c.664-.351,1.1-.369,12.336-.388C65.686,41.064,66.035,41.083,66.736,41.433Zm-.848,11.121A30.144,30.144,0,0,1,71.245,55.8a30.861,30.861,0,0,1,4.7,4.253,4.843,4.843,0,0,1-.627,1.086,7.434,7.434,0,0,0-1.453,4.786A7.4,7.4,0,0,0,75.218,70.6l.57.846-.57.848A7.372,7.372,0,0,0,73.86,76.97a7.379,7.379,0,0,0,1.358,4.676l.57.848-.57.846a8.731,8.731,0,0,0,0,9.354l.57.848-.565.838a9.173,9.173,0,0,0-1.4,3.812l-.13,1.05L72,99.775c-3.774,1.215-8.3,1.787-15.393,1.971-17.712.46-27.744-3.058-31.209-10.9-2.431-5.487-1.94-14.163,1.215-21.377a31.75,31.75,0,0,1,7.256-10.459,28.9,28.9,0,0,1,7.862-5.855l2.08-1.048H64.875Zm39.7,10.977a2.681,2.681,0,0,1,0,4.786c-.7.349-1.069.369-12.429.369s-11.73-.019-12.429-.369a2.91,2.91,0,0,1-1.475-2.394,2.952,2.952,0,0,1,1.438-2.375c.662-.349,1.1-.369,12.429-.388C104.538,63.16,104.887,63.178,105.586,63.531Zm0,11.047a2.681,2.681,0,0,1,0,4.786c-.7.351-1.069.369-12.429.369s-11.73-.017-12.429-.369a2.91,2.91,0,0,1-1.475-2.392A2.953,2.953,0,0,1,80.691,74.6c.662-.349,1.1-.369,12.429-.388,11.418-.006,11.767.017,12.466.369Zm0,11.047a2.681,2.681,0,0,1,0,4.786c-.7.351-1.069.369-12.429.369s-11.73-.017-12.429-.369a2.91,2.91,0,0,1-1.475-2.392,2.953,2.953,0,0,1,1.438-2.377c.662-.349,1.1-.367,12.429-.388,11.418.006,11.767.019,12.466.369Zm0,11.047a2.683,2.683,0,0,1,0,4.788c-.7.349-1.069.367-12.429.367s-11.73-.017-12.429-.367a2.91,2.91,0,0,1-1.475-2.394,2.947,2.947,0,0,1,1.438-2.375c.662-.351,1.1-.369,12.429-.388,11.418,0,11.767.016,12.466.367Z" transform="translate(-18.345 -13.108)" fill="#ffb867"/>
          <path id="Path_4784" data-name="Path 4784" d="M168.429,243.174c-1.164.607-1.436,1.4-1.436,4.088v2.3l-1.032.5a9.768,9.768,0,0,0-2.026,1.492,8.251,8.251,0,0,0,3.591,13.816,6.041,6.041,0,0,0,1.492.258c2.522.017,4.032,1.822,3.2,3.83a2.524,2.524,0,0,1-2.449,1.694c-1.583,0-2.559-.958-2.8-2.716a2.755,2.755,0,1,0-5.5.241,8.392,8.392,0,0,0,4.437,7.087l1.086.572v1.451a4.451,4.451,0,0,0,.369,2.19,2.681,2.681,0,0,0,4.786,0,4.45,4.45,0,0,0,.369-2.19v-1.473l1.1-.582a8.826,8.826,0,0,0,2.008-1.552,8.239,8.239,0,0,0-5.155-13.94c-1.746-.194-2.468-.534-3.058-1.436a2.685,2.685,0,0,1,2.192-4.088,2.758,2.758,0,0,1,2.891,2.652c.239,1.767,1.215,2.726,2.78,2.726a2.482,2.482,0,0,0,2.429-1.6,2.948,2.948,0,0,0,.167-2.247,7.914,7.914,0,0,0-2.5-4.769A10.282,10.282,0,0,0,173.383,250l-.865-.406v-2.3c0-1.952-.054-2.431-.369-3.038A2.691,2.691,0,0,0,168.429,243.174Z" transform="translate(-133.702 -198.259)" fill="#ffb867"/>
        </g>
      </g>
      <g id="Group_1050" data-name="Group 1050" transform="translate(1466.436 1038.177)">
        <text id="Wellness_Score" data-name="Wellness Score" transform="translate(313.818 46)" fill="#080a1a" font-size="46" font-family="DMSans-Medium, DM Sans" font-weight="500"><tspan x="-164.979" y="0">Wellness Score</tspan></text>
        <g id="Apps_icons_-08" data-name="Apps icons -08" transform="translate(0 0.226)">
          <path id="Path_4785" data-name="Path 4785" d="M53.221,252.612H4.99a59.66,59.66,0,0,1,9.8-33.382L52.978,246.4a13.19,13.19,0,0,0,.243,6.2Z" transform="translate(-4.987 -191.85)" fill="#ff8383"/>
          <path id="Path_4786" data-name="Path 4786" d="M98.3,162.691a13.153,13.153,0,0,0-5.173,5.383l-36.683-26.6A59.665,59.665,0,0,1,83.978,120.21Q91.141,141.451,98.3,162.691Z" transform="translate(-43.925 -116.914)" fill="#ffc07b"/>
          <path id="Path_4787" data-name="Path 4787" d="M355.576,252.612H306.91a13.186,13.186,0,0,0,.486-3.592,12.94,12.94,0,0,0-.214-2.354L345.75,219.23a59.658,59.658,0,0,1,9.8,33.382Z" transform="translate(-233.475 -191.85)" fill="#aae27f"/>
          <path id="Path_4788" data-name="Path 4788" d="M325.117,141.477l-37,26.823a13.192,13.192,0,0,0-4.928-5.4l14.389-42.69a59.652,59.652,0,0,1,27.538,21.267Z" transform="translate(-215.525 -116.914)" fill="#7fe2d4"/>
          <path id="Path_4789" data-name="Path 4789" d="M218.206,109.832,204.721,151.35a13.2,13.2,0,0,0-7.572-.126q-6.951-20.959-13.91-41.917A54.052,54.052,0,0,1,218.206,109.832Z" transform="translate(-139.885 -106.658)" fill="#7f86e2"/>
          <path id="Path_4790" data-name="Path 4790" d="M257.569,274.1a.221.221,0,0,0-.292,0l-17.833,13.5a4.133,4.133,0,0,0-.438.387h0a3.612,3.612,0,0,0,.117,5.108h0a3.1,3.1,0,0,0,.389.326h0a3.614,3.614,0,0,0,5.059-.827h0l13.066-18.186A.229.229,0,0,0,257.569,274.1ZM242,291.283a1.292,1.292,0,1,1,1.306-1.292A1.292,1.292,0,0,1,242,291.283Z" transform="translate(-181.33 -233.332)" fill="#2f42ce"/>
        </g>
      </g>
      <g id="Group_1051" data-name="Group 1051" transform="translate(686.299 823.303)">
        <text id="Calculators" transform="translate(229.893 64.947)" fill="#080a1a" font-size="46" font-family="DMSans-Medium, DM Sans" font-weight="500"><tspan x="-123.602" y="0">Calculators</tspan></text>
        <g id="noun-calculator-1040748" transform="translate(0 0)">
          <path id="Path_4680" data-name="Path 4680" d="M166.688,39.2a7.1,7.1,0,0,0-7.086,7.086V133.68a7.1,7.1,0,0,0,7.086,7.086h66.136a7.1,7.1,0,0,0,7.086-7.086V46.285a7.1,7.1,0,0,0-7.086-7.086Zm0,2.362h66.136a4.688,4.688,0,0,1,4.724,4.724V133.68a4.688,4.688,0,0,1-4.724,4.724H166.688a4.688,4.688,0,0,1-4.724-4.724V46.285A4.688,4.688,0,0,1,166.688,41.561Zm8.267,4.724a5.918,5.918,0,0,0-5.9,5.905V64a5.918,5.918,0,0,0,5.9,5.905h49.6a5.918,5.918,0,0,0,5.9-5.905V52.19a5.918,5.918,0,0,0-5.9-5.905Zm0,2.362h49.6A3.509,3.509,0,0,1,228.1,52.19V64a3.51,3.51,0,0,1-3.542,3.543h-49.6A3.51,3.51,0,0,1,171.412,64V52.19A3.509,3.509,0,0,1,174.954,48.647Zm-4.945,25.982a1.182,1.182,0,0,0-.96,1.181V89.982a1.181,1.181,0,0,0,1.181,1.181H184.4a1.181,1.181,0,0,0,1.181-1.181V75.811a1.181,1.181,0,0,0-1.181-1.181H170.231A1.248,1.248,0,0,0,170.009,74.629Zm22.439,0a1.181,1.181,0,0,0-.96,1.181V89.982a1.181,1.181,0,0,0,1.18,1.181h14.173a1.181,1.181,0,0,0,1.181-1.181V75.811a1.181,1.181,0,0,0-1.181-1.181H192.669A1.238,1.238,0,0,0,192.448,74.629Zm22.587,0a1.182,1.182,0,0,0-1.107,1.181V89.982a1.181,1.181,0,0,0,1.181,1.181h14.172a1.181,1.181,0,0,0,1.181-1.181V75.811a1.182,1.182,0,0,0-.96-1.181,1.246,1.246,0,0,0-.222,0H215.035Zm-43.623,2.362h11.81V88.8h-11.81Zm22.439,0h11.81V88.8h-11.81Zm22.439,0H228.1V88.8H216.29Zm-46.281,18.9a1.182,1.182,0,0,0-.96,1.181v14.172a1.181,1.181,0,0,0,1.181,1.181H184.4a1.181,1.181,0,0,0,1.181-1.181V97.069a1.181,1.181,0,0,0-1.181-1.181H170.231A1.248,1.248,0,0,0,170.009,95.887Zm22.439,0a1.181,1.181,0,0,0-.96,1.181v14.172a1.18,1.18,0,0,0,1.18,1.181h14.173a1.181,1.181,0,0,0,1.181-1.181V97.069a1.181,1.181,0,0,0-1.181-1.181H192.669A1.238,1.238,0,0,0,192.448,95.887Zm22.587,0a1.182,1.182,0,0,0-1.107,1.181v14.172a1.181,1.181,0,0,0,1.181,1.181h14.172a1.181,1.181,0,0,0,1.181-1.181V97.069a1.182,1.182,0,0,0-.96-1.181,1.246,1.246,0,0,0-.222,0H215.035Zm-43.623,2.362h11.81v11.81h-11.81Zm22.439,0h11.81v11.81h-11.81Zm22.439,0H228.1v11.81H216.29Zm-46.281,18.9a1.182,1.182,0,0,0-.96,1.181V132.5a1.181,1.181,0,0,0,1.181,1.181H184.4a1.181,1.181,0,0,0,1.181-1.181V118.326a1.181,1.181,0,0,0-1.181-1.181H170.231A1.111,1.111,0,0,0,170.009,117.146Zm22.439,0a1.181,1.181,0,0,0-.96,1.181V132.5a1.181,1.181,0,0,0,1.18,1.181h14.173a1.181,1.181,0,0,0,1.181-1.181V118.326a1.181,1.181,0,0,0-1.181-1.181H192.669A1.1,1.1,0,0,0,192.448,117.146Zm22.587,0a1.181,1.181,0,0,0-1.107,1.181V132.5a1.181,1.181,0,0,0,1.181,1.181h14.172a1.181,1.181,0,0,0,1.181-1.181V118.326a1.182,1.182,0,0,0-.96-1.181,1.109,1.109,0,0,0-.222,0H215.035Zm-43.623,2.362h11.81v11.81h-11.81Zm22.439,0h11.81v11.81h-11.81Zm22.439,0H228.1v11.81H216.29Z" transform="translate(-159.602 -39.199)" fill="#ff687a" stroke="#ff687a" stroke-width="0.5"/>
        </g>
      </g>
      <rect id="Rectangle_2522" data-name="Rectangle 2522" width="818" height="1136" transform="translate(0 142)" fill="#fff" opacity="0.69"/>
      <rect id="Rectangle_2523" data-name="Rectangle 2523" width="818" height="1136" transform="translate(3349 1278) rotate(180)" fill="#fff" opacity="0.69"/>
    </g>
  </g>
</svg>
