<svg xmlns="http://www.w3.org/2000/svg" xmlns:xlink="http://www.w3.org/1999/xlink" width="672" height="684" viewBox="0 0 672 684">
  <defs>
    <filter id="Ellipse_576" x="7" y="26" width="658" height="658" filterUnits="userSpaceOnUse">
      <feOffset dy="10" input="SourceAlpha"/>
      <feGaussianBlur stdDeviation="10" result="blur"/>
      <feFlood flood-color="#a2a7c7" flood-opacity="0.161"/>
      <feComposite operator="in" in2="blur"/>
      <feComposite in="SourceGraphic"/>
    </filter>
    <clipPath id="clip-path">
      <circle id="Ellipse_577" data-name="Ellipse 577" cx="299" cy="299" r="299" fill="#fff"/>
    </clipPath>
    <clipPath id="clip-path-2">
      <rect id="Rectangle_208" data-name="Rectangle 208" width="351.044" height="115.879" transform="translate(0 0)" fill="#2c40ce"/>
    </clipPath>
    <filter id="Rectangle_205" x="385.489" y="579.253" width="201.69" height="136.306" filterUnits="userSpaceOnUse">
      <feOffset dy="5" input="SourceAlpha"/>
      <feGaussianBlur stdDeviation="5" result="blur-2"/>
      <feFlood flood-color="#2c40ce" flood-opacity="0.161"/>
      <feComposite operator="in" in2="blur-2"/>
      <feComposite in="SourceGraphic"/>
    </filter>
    <filter id="Ellipse_46" x="317.496" y="328.253" width="52.289" height="51.765" filterUnits="userSpaceOnUse">
      <feOffset dy="3" input="SourceAlpha"/>
      <feGaussianBlur stdDeviation="5" result="blur-3"/>
      <feFlood flood-color="#7f86e2" flood-opacity="0.2"/>
      <feComposite operator="in" in2="blur-3"/>
      <feComposite in="SourceGraphic"/>
    </filter>
  </defs>
  <g id="Group_1058" data-name="Group 1058" transform="translate(-626 -1607)">
    <g transform="matrix(1, 0, 0, 1, 626, 1607)" filter="url(#Ellipse_576)">
      <g id="Ellipse_576-2" data-name="Ellipse 576" transform="translate(37 46)" fill="#fff" stroke="#dce0ff" stroke-width="1">
        <circle cx="299" cy="299" r="299" stroke="none"/>
        <circle cx="299" cy="299" r="298.5" fill="none"/>
      </g>
    </g>
    <g id="Mask_Group_23" data-name="Mask Group 23" transform="translate(663 1653)" clip-path="url(#clip-path)">
      <g id="Group_1026" data-name="Group 1026" transform="matrix(0.899, -0.438, 0.438, 0.899, 75.673, 231.979)">
        <ellipse id="Ellipse_44" data-name="Ellipse 44" cx="173.818" cy="173.25" rx="173.818" ry="173.25" transform="translate(44.306 220.397)" fill="#b1b1b1" opacity="0.1"/>
        <g id="phone" transform="translate(47.233 13.432)">
          <path id="body" d="M38.719,529.6c-20.047,0-36.3-16.5-36.3-36.863V195.374A2.439,2.439,0,0,1,0,192.916V159.74a2.439,2.439,0,0,1,2.42-2.457v-9.83A2.439,2.439,0,0,1,0,144.995V111.818a2.439,2.439,0,0,1,2.42-2.458V90.929A2.439,2.439,0,0,1,0,88.471V73.726a2.439,2.439,0,0,1,2.42-2.458V36.863C2.42,16.5,18.672,0,38.719,0h182.1c20.047,0,36.3,16.5,36.3,36.863v85.4a2.439,2.439,0,0,1,2.42,2.457v55.295a2.439,2.439,0,0,1-2.42,2.458V492.737c0,20.359-16.251,36.863-36.3,36.863Z" transform="translate(0)" fill="#2d2d41"/>
        </g>
        <path id="Path_274" data-name="Path 274" d="M52.581,0,21.2.242S4.594.847,1.487,19.754,1.1,470.941,1.1,470.941s1.827,19.749,22.355,23.076,184.439-.175,184.439-.175a28.025,28.025,0,0,0,21.464-21.481c4.391-18.7-.707-452.532-.707-452.532S228.461,2.853,207.93,0c.2.027,0,0,0,0H177.541s1.222,7.663-2.185,12.162A17.214,17.214,0,0,1,167.04,18s-30.227.069-47.778,0c-30.6-.12-58.146,0-58.146,0a33.425,33.425,0,0,1-6.9-7.362C51.242,6.2,52.581,0,52.581,0Z" transform="translate(62.048 30.729)" fill="#f7f8fd"/>
        <g id="Mask_Group_6" data-name="Mask Group 6" clip-path="url(#clip-path-2)">
          <path id="Path_273" data-name="Path 273" d="M53.791,0,20.614.333S3.392.912.271,19.632c-.688,4.137.17,28.46,0,63.689C-.325,206.84.42,466.408.42,466.408s1.837,19.555,22.463,22.849,185.313-.173,185.313-.173a28.028,28.028,0,0,0,21.564-21.27c4.414-18.517-.708-448.086-.708-448.086S228.86,2.919,208.233.094c.2.027,0,0,0,0L175.507.018Z" transform="translate(61.777 30.583)" fill="#2c40ce"/>
        </g>
        <rect id="Rectangle_209" data-name="Rectangle 209" width="229.788" height="70.322" transform="translate(62.049 129.878)" fill="#fff"/>
        <text id="Inflation-Protected_Securities_fund" data-name="Inflation-Protected Securities fund" transform="translate(76.116 98.477)" fill="#fff" font-size="11" font-family="DMSans-Medium, DM Sans" font-weight="500"><tspan x="0" y="0">Inflation-Protected Securities fund</tspan></text>
        <text id="How_the_potential_for_risk_affects_your_investment" data-name="How the potential for risk affects 
your investment" transform="translate(76.116 230.261)" fill="#2c40ce" font-size="11" font-family="DMSans-Medium, DM Sans" font-weight="500"><tspan x="0" y="0">How the potential for risk affects </tspan><tspan x="0" y="17">your investment</tspan></text>
        <g id="left-arrow" transform="translate(76.527 64.977)">
          <path id="Path_271" data-name="Path 271" d="M4.842.034C4.729.088.271,4.331.167,4.483A1.041,1.041,0,0,0,0,5.12c.035.4-.006.357,2.488,2.734,1.31,1.247,2.3,2.169,2.368,2.2a.5.5,0,0,0,.685-.391c.035-.271.076-.227-2.033-2.226L1.537,5.562l5.13-.016c5.121-.016,5.134-.016,5.219-.082a.446.446,0,0,0,.218-.423.446.446,0,0,0-.218-.423c-.085-.066-.1-.066-5.209-.082L1.556,4.521,3.51,2.658c1.332-1.266,1.97-1.9,2-1.973A.508.508,0,0,0,5.325.075.586.586,0,0,0,4.842.034Z" fill="#fff"/>
        </g>
        <text id="Back" transform="translate(93.843 71.692)" fill="#fff" font-size="8" font-family="DMSans-Medium, DM Sans" font-weight="500"><tspan x="0" y="0">Back</tspan></text>
        <rect id="Rectangle_206" data-name="Rectangle 206" width="230.098" height="105.483" transform="translate(63.083 357.39)" fill="#fff"/>
        <text id="This_income-oriented_balanced_fund_offers_exposure_to_stocks_and_investment-grade_bonds._Balanced_funds_typically_offer_a_higher_allocation_to_stocks._however_this_fund_is_unique_in_allocating_about_one-third_to_stocks_and_two-third_to_bonds._" data-name="This income-oriented balanced fund offers 
exposure to stocks and investment-grade bonds. 
Balanced funds typically offer a higher allocation 
to stocks. however, this fund is unique in allocating 
about one-third to stocks and two-third to bonds. " transform="translate(76.116 269.431)" fill="#49494a" font-size="7" font-family="DMSans-Regular, DM Sans" letter-spacing="0.005em"><tspan x="0" y="0">This income-oriented balanced fund offers </tspan><tspan x="0" y="14">exposure to stocks and investment-grade bonds. </tspan><tspan x="0" y="28">Balanced funds typically offer a higher allocation </tspan><tspan x="0" y="42">to stocks. however, this fund is unique in allocating </tspan><tspan x="0" y="56">about one-third to stocks and two-third to bonds. </tspan></text>
        <g transform="matrix(0.9, 0.44, -0.44, 0.9, 20.59, -299.24)" filter="url(#Rectangle_205)">
          <rect id="Rectangle_205-2" data-name="Rectangle 205" width="174.954" height="32.946" rx="5" transform="matrix(0.9, -0.44, 0.44, 0.9, 400.49, 665.95)" fill="#2c40ce"/>
        </g>
        <g id="Group_126" data-name="Group 126" transform="translate(129.51 485.1)">
          <text id="Start_Investing" data-name="Start Investing" transform="translate(0 11)" fill="#fff" font-size="11" font-family="DMSans-Medium, DM Sans" font-weight="500"><tspan x="0" y="0">Start Investing</tspan></text>
          <g id="arrow-down-sign-to-navigate" transform="translate(88.412 13.561) rotate(-90)">
            <path id="Path_142" data-name="Path 142" d="M.453.014A.619.619,0,0,0,.048.353.445.445,0,0,0,0,.594C0,.86-.157.68,1.984,2.824,3.275,4.117,3.911,4.743,3.963,4.771a.584.584,0,0,0,.389.062.841.841,0,0,0,.179-.062c.052-.028.688-.655,1.979-1.948C8.651.68,8.491.86,8.491.594A.463.463,0,0,0,8.445.349.6.6,0,0,0,7.629.065c-.043.022-.645.612-1.723,1.688L4.247,3.41,2.588,1.754C1.5.672.908.087.865.065A.648.648,0,0,0,.453.014Z" transform="translate(0 0)" fill="#fff"/>
          </g>
        </g>
        <circle id="Ellipse_41" data-name="Ellipse 41" cx="1.704" cy="1.704" r="1.704" transform="translate(271.519 63.62)" fill="#fff"/>
        <ellipse id="Ellipse_42" data-name="Ellipse 42" cx="1.704" cy="1.136" rx="1.704" ry="1.136" transform="translate(271.519 68.164)" fill="#fff"/>
        <circle id="Ellipse_43" data-name="Ellipse 43" cx="1.704" cy="1.704" r="1.704" transform="translate(271.519 71.572)" fill="#fff"/>
        <g id="Group_136" data-name="Group 136" transform="translate(108.585 391.517)">
          <rect id="Rectangle_181" data-name="Rectangle 181" width="7.611" height="7.611" rx="2" transform="translate(75.22 7.927)" fill="#3f81f5"/>
          <rect id="Rectangle_182" data-name="Rectangle 182" width="7.611" height="7.611" rx="2" transform="translate(75.22 24.236)" fill="#f9d016"/>
          <rect id="Rectangle_183" data-name="Rectangle 183" width="7.611" height="7.611" rx="2" transform="translate(75.22 40.544)" fill="#0f9d6e"/>
          <text id="X_Stocks" data-name="X% Stocks" transform="translate(88.267 13.079)" fill="#212423" font-size="6" font-family="DMSans-Medium, DM Sans" font-weight="500"><tspan x="0" y="0">X% Stocks</tspan></text>
          <text id="X_Stocks-2" data-name="X% Stocks" transform="translate(88.267 29.387)" fill="#212423" font-size="6" font-family="DMSans-Medium, DM Sans" font-weight="500"><tspan x="0" y="0">X% Stocks</tspan></text>
          <text id="X_Stocks-_Short_terms" data-name="X% Stocks-
Short terms" transform="translate(88.267 45.696)" fill="#212423" font-size="6" font-family="DMSans-Medium, DM Sans" font-weight="500"><tspan x="0" y="0">X% Stocks-</tspan><tspan x="0" y="7">Short terms</tspan></text>
          <g id="flow_icons-11" data-name="flow icons-11" transform="translate(0 0)">
            <ellipse id="Ellipse_45" data-name="Ellipse 45" cx="28.041" cy="28.041" rx="28.041" ry="28.041" transform="translate(0 0)" fill="none" stroke="#3f81f5" stroke-miterlimit="10" stroke-width="10"/>
            <path id="Path_275" data-name="Path 275" d="M0,0A28.041,28.041,0,0,1,28.041,28.041,28.041,28.041,0,0,1,0,56.082" transform="translate(28.041)" fill="none" stroke="#0f9d6e" stroke-miterlimit="10" stroke-width="10"/>
            <path id="Path_276" data-name="Path 276" d="M25.79,0a27.959,27.959,0,0,1,2.25,11.027A28.041,28.041,0,0,1,0,39.068" transform="translate(28.041 17.014)" fill="none" stroke="#f9d016" stroke-miterlimit="10" stroke-width="10"/>
          </g>
        </g>
        <text id="Recommended_Financial_Goal" data-name="Recommended Financial Goal" transform="translate(76.116 144.192)" fill="#1e1f29" font-size="9" font-family="DMSans-Medium, DM Sans" font-weight="500"><tspan x="0" y="0">Recommended Financial Goal</tspan></text>
        <text id="Analytics" transform="translate(76.116 377.085)" fill="#1e1f29" font-size="9" font-family="DMSans-Medium, DM Sans" font-weight="500"><tspan x="0" y="0">Analytics</tspan></text>
        <path id="Path_143" data-name="Path 143" d="M0,1.8,24.472,0V5.694H0Z" transform="translate(104.449 165.849)" fill="#43c89c"/>
        <path id="Path_144" data-name="Path 144" d="M0,1.708,24.472,0V7.656H0Z" transform="translate(134.237 163.889)" fill="#ffc07b"/>
        <path id="Path_145" data-name="Path 145" d="M0,1.847,24.472,0V9.968H0Z" transform="translate(163.293 161.575)" fill="#7f86e2"/>
        <path id="Path_146" data-name="Path 146" d="M0,1.831,24.472,0V12.107H0Z" transform="translate(192.183 159.438)" fill="#7fe2d4"/>
        <path id="Path_147" data-name="Path 147" d="M0,1.836,24.472,0V14.228H0Z" transform="translate(221.073 157.315)" fill="#ff8383"/>
        <text id="Less_risk_Less_reward" data-name="Less risk
Less reward" transform="translate(104.449 182.685)" fill="#43c89c" font-size="6" font-family="DMSans-Regular, DM Sans"><tspan x="0" y="0">Less risk</tspan><tspan x="0" y="7">Less reward</tspan></text>
        <text id="More_risk_More_reward" data-name="More risk
More reward" transform="translate(239.18 182.685)" fill="#ff8383" font-size="6" font-family="DMSans-Regular, DM Sans"><tspan x="-25.338" y="0">More risk</tspan><tspan x="-34.554" y="7">More reward</tspan></text>
        <g id="Group_135" data-name="Group 135" transform="translate(167.001 159.05)">
          <g transform="matrix(0.9, 0.44, -0.44, 0.9, -146.41, -458.29)" filter="url(#Ellipse_46)">
            <g id="Ellipse_46-2" data-name="Ellipse 46" transform="matrix(0.9, -0.44, 0.44, 0.9, 332.5, 347.72)" fill="#7f86e2" stroke="#fff" stroke-width="0.5">
              <ellipse cx="8.52" cy="7.952" rx="8.52" ry="7.952" stroke="none"/>
              <ellipse cx="8.52" cy="7.952" rx="8.27" ry="7.702" fill="none"/>
            </g>
          </g>
          <text id="_3" data-name="3" transform="translate(10.68 9.136)" fill="#fff" font-size="8" font-family="DMSans-Bold, DM Sans" font-weight="700"><tspan x="-4.768" y="0">3</tspan></text>
        </g>
        <text id="_14.25" data-name="14.25" transform="translate(86.388 44.49)" fill="#fff" font-size="7" font-family="DMSans-Regular, DM Sans"><tspan x="-8.001" y="0">14.25</tspan></text>
        <g id="wifi" transform="translate(213.608 37.664)">
          <path id="Path_277" data-name="Path 277" d="M5.863.009A8.6,8.6,0,0,0,.439,2.287a1.29,1.29,0,0,0-.415.54.744.744,0,0,0,.709.92c.214,0,.361-.076.628-.322A7.05,7.05,0,0,1,3.127,2.2,6.875,6.875,0,0,1,6.06,1.472a7,7,0,0,1,2.558.383A7.084,7.084,0,0,1,11.131,3.37c.361.326.479.388.729.373a.7.7,0,0,0,.653-.471.722.722,0,0,0-.228-.822,8.859,8.859,0,0,0-1.5-1.176A10.6,10.6,0,0,0,9.27.532,8.768,8.768,0,0,0,5.863.009Z" fill="#fff"/>
          <path id="Path_278" data-name="Path 278" d="M3.812.024A6.1,6.1,0,0,0,.336,1.642.78.78,0,0,0,0,2.27.72.72,0,0,0,.768,3a.917.917,0,0,0,.606-.322A4.538,4.538,0,0,1,4.511,1.46,4.528,4.528,0,0,1,7.7,2.712a.839.839,0,0,0,.633.3.718.718,0,0,0,.7-.852,1.044,1.044,0,0,0-.412-.592A5.972,5.972,0,0,0,7.192.6a6.073,6.073,0,0,0-1.76-.55A9.149,9.149,0,0,0,3.812.024Z" transform="translate(1.757 2.482)" fill="#fff"/>
          <path id="Path_279" data-name="Path 279" d="M2.631.013A3.913,3.913,0,0,0,1.212.386a3.5,3.5,0,0,0-1.095.83A.728.728,0,0,0,.731,2.335a.816.816,0,0,0,.579-.26,2.426,2.426,0,0,1,.977-.538,2.906,2.906,0,0,1,1.146,0,2.408,2.408,0,0,1,.992.547.764.764,0,0,0,.729.243.726.726,0,0,0,.557-.854.825.825,0,0,0-.292-.459A3.718,3.718,0,0,0,3.613.082,5.486,5.486,0,0,0,2.815,0Z" transform="translate(3.417 4.807)" fill="#fff"/>
          <path id="Path_280" data-name="Path 280" d="M.92.012A1.065,1.065,0,0,0,0,1.079a1.079,1.079,0,0,0,1.63.93,1.282,1.282,0,0,0,.4-.417A1.077,1.077,0,0,0,1.821.3,1.09,1.09,0,0,0,.92.012Z" transform="translate(5.201 7.393)" fill="#fff"/>
        </g>
        <g id="Group_137" data-name="Group 137" transform="translate(232.085 38.349)">
          <path id="Path_281" data-name="Path 281" d="M0,8.865C.213,8.921,8.868,0,8.868,0V8.865S-.207,8.809,0,8.865Z" fill="#fff"/>
          <path id="Path_282" data-name="Path 282" d="M0,2.986V0" transform="translate(7.107 5.879)" fill="none" stroke="#e2e2e2" stroke-width="0.5"/>
        </g>
        <path id="Union_1" data-name="Union 1" d="M0,9.089V1.01H1.137V.5a.5.5,0,0,1,.5-.5h2.41a.5.5,0,0,1,.5.5V1.01H5.683V9.089Z" transform="translate(247.662 37.49)" fill="#fff"/>
        <text id="_98_" data-name="98%" transform="translate(264.886 44.49)" fill="#fff" font-size="7" font-family="DMSans-Regular, DM Sans"><tspan x="-6.986" y="0">98%</tspan></text>
        <g id="Group_139" data-name="Group 139" transform="translate(271.519 370.358)">
          <circle id="Ellipse_47" data-name="Ellipse 47" cx="1.136" cy="1.136" r="1.136" transform="translate(0 0)" fill="#1e1f29"/>
          <circle id="Ellipse_48" data-name="Ellipse 48" cx="1.136" cy="1.136" r="1.136" transform="translate(0 3.408)" fill="#1e1f29"/>
          <circle id="Ellipse_49" data-name="Ellipse 49" cx="1.136" cy="1.136" r="1.136" transform="translate(0 6.816)" fill="#1e1f29"/>
        </g>
      </g>
    </g>
    <g id="Rectangle_251" data-name="Rectangle 251" transform="translate(1114 1676)" fill="#fff" stroke="#dce0ff" stroke-width="1">
      <rect width="92" height="92" rx="10" stroke="none"/>
      <rect x="0.5" y="0.5" width="91" height="91" rx="9.5" fill="none"/>
    </g>
    <path id="Apps_icons_-02" data-name="Apps icons -02" d="M19.656.363C19.5.38,19.017.437,18.59.486A21.034,21.034,0,0,0,.39,18.667a29.261,29.261,0,0,0,.033,5.49,21.237,21.237,0,0,0,11.218,15.8A21.029,21.029,0,0,0,32.7,38.842a21.38,21.38,0,0,0,8-9.776A21.02,21.02,0,0,0,40.953,14.2c-.2-.541-.68-1.639-1.082-2.442l-.738-1.467,1.123-1.123c1.229-1.229,1.36-1.45,1.2-2.049a1.336,1.336,0,0,0-.918-.869c-.147-.025-1.073-.115-2.057-.2s-1.811-.172-1.836-.2-.107-.852-.2-1.836-.172-1.909-.2-2.057a1.336,1.336,0,0,0-.869-.918c-.6-.164-.828-.033-2.04,1.188a13.979,13.979,0,0,1-1.172,1.106,8.932,8.932,0,0,1-.9-.459,21.2,21.2,0,0,0-7.1-2.368A35.592,35.592,0,0,0,19.656.363Zm3.327,2.5a18.922,18.922,0,0,1,6.252,1.754,6.9,6.9,0,0,1,1.073.59,8.107,8.107,0,0,1-.778.844A3.58,3.58,0,0,0,28.678,7.1a3.411,3.411,0,0,0,0,1.024c.033.41.074.893.074,1.065v.3l-.311-.2A16.132,16.132,0,0,0,25.8,8.055,14.009,14.009,0,1,0,18.877,35.1a12.6,12.6,0,0,0,2.417.148,10.369,10.369,0,0,0,2.63-.221A14.035,14.035,0,0,0,34.406,16.577a16.668,16.668,0,0,0-1.2-2.516l-.2-.311h.3c.172,0,.656.041,1.065.074a3.411,3.411,0,0,0,1.024,0,3.58,3.58,0,0,0,1.049-.852,7.27,7.27,0,0,1,.844-.778,6.192,6.192,0,0,1,.59,1.073,18.5,18.5,0,0,1-3.245,20.757A18.141,18.141,0,0,1,29.4,37.875,18.466,18.466,0,0,1,8.487,34.728a17.985,17.985,0,0,1-3.86-5.253A18.5,18.5,0,0,1,22.983,2.862Zm11.21,3.606c.164,1.6.3,1.721,2.163,1.877l1.18.107L36.069,9.918,34.6,11.385l-1.59-.131c-.877-.074-1.606-.139-1.614-.148s-.074-.729-.148-1.606l-.139-1.59,1.467-1.467c1.36-1.36,1.459-1.45,1.483-1.237.016.131.074.7.131,1.262ZM23.527,9.98a12.336,12.336,0,0,1,2.811.959,12.145,12.145,0,0,1,1.909,1.2l.188.172L26.69,14.053,24.953,15.79l-.508-.287a6.873,6.873,0,0,0-4.876-.647,6.779,6.779,0,0,0-4.294,3.524,5.75,5.75,0,0,0-.664,2.581,6.556,6.556,0,0,0,3.712,6.277,6.638,6.638,0,0,0,8.055-1.786,7.936,7.936,0,0,0,1.262-2.524A6.788,6.788,0,0,0,27,18.06l-.287-.508,1.737-1.737L30.2,14.069l.172.188a12.145,12.145,0,0,1,1.2,1.909,12.812,12.812,0,0,1,.975,2.852,13.617,13.617,0,0,1,0,4.54,11.577,11.577,0,0,1-9.055,9.055,13.617,13.617,0,0,1-4.54,0,11.588,11.588,0,0,1-9.055-9.055,13.617,13.617,0,0,1,0-4.54,11.59,11.59,0,0,1,9.932-9.2A15.257,15.257,0,0,1,23.527,9.98Zm-1.041,7.326c.754.238.795.148-.795,1.745a18.225,18.225,0,0,0-1.573,1.721,1.217,1.217,0,0,0,1.614,1.614,18.224,18.224,0,0,0,1.721-1.573c1.6-1.59,1.508-1.549,1.745-.795a4.207,4.207,0,0,1-4.818,5.359,4.175,4.175,0,0,1-.131-8.154,5.346,5.346,0,0,1,2.234.085Z" transform="translate(1138.268 1689.182)" fill="#2c40ce"/>
    <text id="Smart_Goals" data-name="Smart Goals" transform="translate(1119.5 1750.48)" fill="#0d0c1e" font-size="14" font-family="DMSans-Medium, DM Sans" font-weight="500"><tspan x="0" y="0">Smart Goals</tspan></text>
    <g id="Group_1027" data-name="Group 1027" transform="translate(6 162)">
      <g id="Rectangle_2505" data-name="Rectangle 2505" transform="translate(1195 1646)" fill="#fff" stroke="#e4e7ff" stroke-width="1">
        <rect width="92" height="92" rx="10" stroke="none"/>
        <rect x="0.5" y="0.5" width="91" height="91" rx="9.5" fill="none"/>
      </g>
      <text id="Microinvest" transform="translate(1202.5 1722.594)" fill="#0d0c1e" font-size="14" font-family="DMSans-Medium, DM Sans" font-weight="500"><tspan x="0" y="0">Microinvest</tspan></text>
      <g id="Apps_icons_-05" data-name="Apps icons -05" transform="translate(1189.217 1651.947)">
        <path id="Path_4758" data-name="Path 4758" d="M69.189,9.939c0,3.12-.017,3.471-.188,3.8a1.077,1.077,0,0,1-.751.618,1.05,1.05,0,0,1-.909-.288l-.357-.311L66.931,9.28,55.643,20.569h-.962L52.7,18.528l-1.85-1.888-8.878,8.869c-3.349,3.343-9.066,9.032-9.246,9.147a1.019,1.019,0,0,1-.563.171,1.069,1.069,0,0,1-.591-.181,1.143,1.143,0,0,1-.494-1.156c.04-.239.827-1.1,9.487-9.757,3.624-3.641,9.48-9.465,9.738-9.591.762-.358.976-.178,3.059,1.885l1.8,1.788,3.635-3.571c2.158-2.117,4.471-4.41,5.281-5.215l1.309-1.313H63.532a8.594,8.594,0,0,1-2.57-.152,1.032,1.032,0,0,1-.639-.927,1.055,1.055,0,0,1,.593-.989c.325-.167.686-.188,3.847-.188,3.067,0,3.529.021,3.8.167C69.189,5.95,69.189,6.251,69.189,9.939Z" transform="translate(0)" fill="#2c40ce"/>
        <path id="Path_4759" data-name="Path 4759" d="M226.936,149.507a10.482,10.482,0,0,0-2.753-3.362l-.394-.3v-8.674c0-8.794,0-8.794-.219-9.067a1.4,1.4,0,0,0-.617-.395,26.175,26.175,0,0,0-4.374.01,1.327,1.327,0,0,0-.533.323c-.21.232-.214.236-.243,8.247l-.019,7.819-.555.053c-.375.028-.8.085-.947.114l-.094.02V133.426l-.307-.339-.31-.357h-2.315c-2.142,0-2.311.006-2.607.224a1.194,1.194,0,0,0-.227.229.785.785,0,0,0-.145.275c-.055.312-.074,5.359-.079,7.538l-.009,7.25-.345.576a9.509,9.509,0,0,0-1.25,3.372V138.9l-.657-.634-2.139-.009c-.216,0-2.095-.016-2.318.031a1.225,1.225,0,0,0-.844,1.021c-.032.249-.047,4.713-.029,9.185.03,7.916.05,8.845.188,9.046.334.5.585.523,2.46.551.436.009.8.015,1.113.015,1.289,0,1.609-.094,1.926-.413l.3-.3v-1.9a9.7,9.7,0,0,0,1.459,3.737,9.928,9.928,0,0,0,5.739,4.1,7.321,7.321,0,0,0,2.419.249,7.418,7.418,0,0,0,2.429-.249,10.31,10.31,0,0,0,5.066-3.208A9.836,9.836,0,0,0,226.936,149.507Zm-20.5,6.349h-1.595V140.47h1.595Zm15.105-25.988v14.8l-.024-.007c-.123-.038-.5-.14-.877-.236l-.553-.15-.028-7.224-.019-7.187Zm-9.1,5.066h1.595V145.02l-.463.26c-.3.171-.727.425-.948.579l-.188.124Zm12.908,21.337a7.412,7.412,0,0,1-3.775,4.3,6.06,6.06,0,0,1-3.363.774,6.476,6.476,0,0,1-3.333-.736,6.862,6.862,0,0,1-2.165-1.65,7.464,7.464,0,0,1-.072-10.158,7.885,7.885,0,0,1,4.512-2.413,7.147,7.147,0,0,1,1.011-.083,7.563,7.563,0,0,1,7.186,9.966Z" transform="translate(-155.448 -110.707)" fill="#2c40ce"/>
        <path id="Path_4760" data-name="Path 4760" d="M341.085,343.289a2.833,2.833,0,0,1-.229,1.269,3.256,3.256,0,0,1-1.328,1.529c-.354.188-.355.192-.4.578a1.234,1.234,0,0,1-.663,1.095,1.086,1.086,0,0,1-.469.117,1.043,1.043,0,0,1-.546-.172,1.088,1.088,0,0,1-.537-1.032c0-.217,0-.217-.33-.337a3.34,3.34,0,0,1-2-2.71c-.046-.727.03-1.09.6-1.324a1.079,1.079,0,0,1,.955.023,1.156,1.156,0,0,1,.551.854c.113.735.507,1.139,1.109,1.139a1.052,1.052,0,0,0,.938-.538.979.979,0,0,0-.022-1c-.229-.389-.447-.5-1.165-.6a3.32,3.32,0,0,1-2.678-1.831,3.735,3.735,0,0,1-.169-2.42,3.389,3.389,0,0,1,1.978-2.112c.188-.061.188-.061.241-.547.06-.676.214-.929.685-1.126a1.018,1.018,0,0,1,.96.068c.4.189.525.616.577,1.184.034.5.034.5.385.686a3.156,3.156,0,0,1,1.549,2.627c.009.526-.017.677-.3.946a1.065,1.065,0,0,1-1.1.269,1.107,1.107,0,0,1-.763-.872,1.351,1.351,0,0,0-.5-1.009.987.987,0,0,0-.838-.169,1.055,1.055,0,0,0-.713.577.836.836,0,0,0,.022.947,1.442,1.442,0,0,0,1.253.636,3.2,3.2,0,0,1,2.619,1.814A2.5,2.5,0,0,1,341.085,343.289Z" transform="translate(-275.038 -297.765)" fill="#2c40ce"/>
        <path id="Path_4761" data-name="Path 4761" d="M127.281,265.061c-.325-.469-.761-.511-2.846-.511a6.552,6.552,0,0,0-2.316.157h0c-.026.014-.052.026-.076.038-.518.249-.518.249-.524,7.03v9.595l.3.3c.319.319.621.413,1.912.413.319,0,.7-.006,1.154-.015l1.9-.029.338-.348.353-.342v-8.015C127.476,265.651,127.468,265.343,127.281,265.061Zm-3.605,14.87V266.8h1.595v13.135Z" transform="translate(-81.976 -234.782)" fill="#2c40ce"/>
        <path id="Path_4762" data-name="Path 4762" d="M45.381,354.27c-.266-.643-.644-.687-2.871-.678-.515,0-1.032.014-1.427.024s-.687.022-.751.034a1.171,1.171,0,0,0-.537.37l-.266.329v7.707l.3.3c.313.314.681.412,2.027.412.312,0,.677,0,1.106-.014,1.867-.037,2.117-.066,2.414-.681A45.572,45.572,0,0,0,45.381,354.27Zm-2.1,1.564v4.789l-1.548-.052-.026-2.378-.018-2.363Z" transform="translate(-7.678 -315.469)" fill="#2c40ce"/>
      </g>
    </g>
    <g id="Group_1029" data-name="Group 1029" transform="translate(-28 126)">
      <g id="Rectangle_2505-2" data-name="Rectangle 2505" transform="translate(1234 1837)" fill="#fff" stroke="#e4e7ff" stroke-width="1">
        <rect width="92" height="92" rx="10" stroke="none"/>
        <rect x="0.5" y="0.5" width="91" height="91" rx="9.5" fill="none"/>
      </g>
      <g id="Group_1028" data-name="Group 1028" transform="translate(0 -1.797)">
        <text id="Wellness_score" data-name="Wellness
score" transform="translate(1280 1898.594)" fill="#0d0c1e" font-size="14" font-family="DMSans-Medium, DM Sans" font-weight="500"><tspan x="-29.393" y="0">Wellness</tspan><tspan x="-18.522" y="16">score</tspan></text>
        <g id="Apps_icons_-08" data-name="Apps icons -08" transform="translate(1246.766 1744.343)">
          <path id="Path_4765" data-name="Path 4765" d="M27.306,234.676H4.988A27.605,27.605,0,0,1,9.524,219.23L27.193,231.8a6.1,6.1,0,0,0,.113,2.871Z" transform="translate(0 -99.903)" fill="#2c40ce"/>
          <path id="Path_4766" data-name="Path 4766" d="M75.807,139.867a6.086,6.086,0,0,0-2.394,2.491L56.44,130.051a27.608,27.608,0,0,1,12.742-9.841Q72.5,130.038,75.807,139.867Z" transform="translate(-45.662 -12.027)" fill="#2c40ce"/>
          <path id="Path_4767" data-name="Path 4767" d="M329.428,234.676H306.91a6.1,6.1,0,0,0,.225-1.662,5.989,5.989,0,0,0-.1-1.089l17.846-12.695a27.6,27.6,0,0,1,4.533,15.446Z" transform="translate(-267.944 -99.903)" fill="#2c40ce"/>
          <path id="Path_4768" data-name="Path 4768" d="M302.59,130.051l-17.12,12.411a6.1,6.1,0,0,0-2.28-2.5l6.658-19.753A27.6,27.6,0,0,1,302.59,130.051Z" transform="translate(-246.894 -12.027)" fill="#2c40ce"/>
          <path id="Path_4769" data-name="Path 4769" d="M199.419,108.127l-6.239,19.211a6.109,6.109,0,0,0-3.5-.059q-3.216-9.7-6.436-19.4A25.01,25.01,0,0,1,199.419,108.127Z" transform="translate(-158.192)" fill="#2c40ce"/>
          <path id="Path_4770" data-name="Path 4770" d="M247.058,274.07a.1.1,0,0,0-.135,0l-8.252,6.246a1.915,1.915,0,0,0-.2.179h0a1.671,1.671,0,0,0,.054,2.363h0a1.436,1.436,0,0,0,.18.151h0a1.672,1.672,0,0,0,2.341-.383h0l6.046-8.415A.106.106,0,0,0,247.058,274.07Zm-7.2,7.951a.6.6,0,1,1,.6-.6A.6.6,0,0,1,239.855,282.021Z" transform="translate(-206.794 -148.548)" fill="#2c40ce"/>
        </g>
      </g>
    </g>
    <g id="Rectangle_2505-3" data-name="Rectangle 2505" transform="translate(718 2135)" fill="#fff" stroke="#e4e7ff" stroke-width="1">
      <rect width="92" height="92" rx="10" stroke="none"/>
      <rect x="0.5" y="0.5" width="91" height="91" rx="9.5" fill="none"/>
    </g>
    <g id="Rectangle_2509" data-name="Rectangle 2509" transform="translate(626 1989)" fill="#fff" stroke="#e4e7ff" stroke-width="1">
      <rect width="92" height="92" rx="10" stroke="none"/>
      <rect x="0.5" y="0.5" width="91" height="91" rx="9.5" fill="none"/>
    </g>
    <g id="Rectangle_2510" data-name="Rectangle 2510" transform="translate(631 1820)" fill="#fff" stroke="#e4e7ff" stroke-width="1">
      <rect width="92" height="92" rx="10" stroke="none"/>
      <rect x="0.5" y="0.5" width="91" height="91" rx="9.5" fill="none"/>
    </g>
    <g id="Rectangle_2511" data-name="Rectangle 2511" transform="translate(718 1664)" fill="#fff" stroke="#e4e7ff" stroke-width="1">
      <rect width="92" height="92" rx="10" stroke="none"/>
      <rect x="0.5" y="0.5" width="91" height="91" rx="9.5" fill="none"/>
    </g>
    <g id="Group_1030" data-name="Group 1030" transform="translate(-73 54)">
      <text id="Budgeting" transform="translate(837 2154.37)" fill="#0d0c1e" font-size="14" font-family="DMSans-Medium, DM Sans" font-weight="500"><tspan x="-33.369" y="0">Budgeting</tspan></text>
      <g id="Apps_icons_-07" data-name="Apps icons -07" transform="translate(797.699 2082.522)">
        <path id="Path_4763" data-name="Path 4763" d="M33.53,13.209a3.708,3.708,0,0,0-2.343,1.813l-.279.533H28.836c-1.9,0-2.1.016-2.385.164a1.272,1.272,0,0,0-.639,1.188c.025.155.491,1.647,1.036,3.319s.991,3.081.991,3.138-.18.23-.409.377a3.661,3.661,0,0,0-.967,5.121c.148.23.221.418.173.443s-.221.148-.4.254a19.466,19.466,0,0,0-3.947,3.562A17.22,17.22,0,0,0,18.4,45.215a9.162,9.162,0,0,0,2.63,6.072c2.033,2.064,4.737,3.1,9.423,3.6a70.493,70.493,0,0,0,7.785.009,24.4,24.4,0,0,0,5.113-.992l.475-.173.394.352a3.972,3.972,0,0,0,1.7.869c.573.123,10.7.123,11.332.009a3.689,3.689,0,0,0,2.77-4.876,5.038,5.038,0,0,0-.41-.812l-.254-.376.254-.377a3.886,3.886,0,0,0,0-4.163l-.254-.376.254-.377a3.886,3.886,0,0,0,0-4.163l-.254-.377.254-.376a3.687,3.687,0,0,0-2.36-5.687c-.27-.049-2.458-.082-5.687-.082H46.329l-.852-.894a16.622,16.622,0,0,0-2.813-2.384c-.3-.2-.549-.36-.566-.376a1.446,1.446,0,0,1,.23-.41,3.67,3.67,0,0,0-.976-5.121c-.229-.148-.409-.312-.409-.377s.442-1.475.991-3.138,1.008-3.164,1.036-3.319a1.272,1.272,0,0,0-.639-1.188c-.288-.148-.484-.164-2.385-.164H37.875L37.6,15.02A3.675,3.675,0,0,0,33.53,13.209Zm1.434,2.5c.573.3.655.573.655,2.294,0,1.319.016,1.516.164,1.8a1.193,1.193,0,0,0,2.13,0,2.1,2.1,0,0,0,.164-1.065v-.734h.983a4.193,4.193,0,0,1,.983.058c0,.033-.369,1.172-.812,2.524l-.8,2.458H30.351l-.8-2.458c-.443-1.352-.812-2.483-.812-2.524a11.392,11.392,0,0,1,1.721-.058c1.573,0,1.754-.016,2.049-.164a1.3,1.3,0,0,0,.655-1.065,1.313,1.313,0,0,1,.639-1.058,1.161,1.161,0,0,1,1.164-.008Zm4.916,10a1.194,1.194,0,0,1,0,2.131c-.312.155-.475.163-5.491.163S29.209,28,28.9,27.844a1.3,1.3,0,0,1-.655-1.065,1.31,1.31,0,0,1,.639-1.057c.3-.156.491-.164,5.49-.173C39.413,25.549,39.569,25.558,39.881,25.713ZM39.5,30.662a13.415,13.415,0,0,1,2.384,1.443A13.734,13.734,0,0,1,43.977,34a2.155,2.155,0,0,1-.279.484,3.859,3.859,0,0,0-.042,4.212l.254.376-.254.377a3.886,3.886,0,0,0,0,4.163l.254.377-.254.376a3.886,3.886,0,0,0,0,4.163l.254.377-.251.373a4.082,4.082,0,0,0-.623,1.7l-.058.467-.754.237a24.307,24.307,0,0,1-6.85.877c-7.882.2-12.347-1.361-13.889-4.852-1.082-2.442-.863-6.3.541-9.513a14.13,14.13,0,0,1,3.229-4.655,12.863,12.863,0,0,1,3.5-2.606l.926-.466h9.374ZM57.17,35.548a1.193,1.193,0,0,1,0,2.13c-.312.155-.476.164-5.531.164s-5.22-.009-5.531-.164a1.3,1.3,0,0,1-.656-1.065,1.314,1.314,0,0,1,.64-1.057c.294-.155.491-.164,5.531-.173C56.7,35.383,56.859,35.39,57.17,35.548Zm0,4.916a1.193,1.193,0,0,1,0,2.13c-.312.156-.476.164-5.531.164s-5.22-.008-5.531-.164a1.3,1.3,0,0,1-.656-1.065,1.314,1.314,0,0,1,.64-1.058c.294-.155.491-.164,5.531-.173,5.081,0,5.237.008,5.548.164Zm0,4.916a1.193,1.193,0,0,1,0,2.13c-.312.156-.476.164-5.531.164s-5.22-.008-5.531-.164a1.3,1.3,0,0,1-.656-1.065,1.314,1.314,0,0,1,.64-1.058c.294-.155.491-.163,5.531-.173,5.081,0,5.237.009,5.548.164Zm0,4.916a1.194,1.194,0,0,1,0,2.131c-.312.155-.476.163-5.531.163s-5.22-.008-5.531-.163a1.3,1.3,0,0,1-.656-1.065,1.311,1.311,0,0,1,.64-1.057c.294-.156.491-.164,5.531-.173,5.081,0,5.237.007,5.548.163Z" fill="#2c40ce"/>
        <path id="Path_4764" data-name="Path 4764" d="M164.567,242.983c-.518.27-.639.623-.639,1.819v1.024l-.459.221a4.347,4.347,0,0,0-.9.664,3.672,3.672,0,0,0,1.6,6.148,2.69,2.69,0,0,0,.664.115c1.122.008,1.794.811,1.426,1.7a1.123,1.123,0,0,1-1.09.754,1.209,1.209,0,0,1-1.246-1.209,1.226,1.226,0,1,0-2.45.107,3.735,3.735,0,0,0,1.975,3.154l.484.255v.646a1.981,1.981,0,0,0,.164.975,1.193,1.193,0,0,0,2.13,0,1.981,1.981,0,0,0,.164-.975v-.655l.491-.259a3.927,3.927,0,0,0,.894-.691,3.666,3.666,0,0,0-2.294-6.2c-.777-.086-1.1-.237-1.361-.639a1.2,1.2,0,0,1,.976-1.819,1.227,1.227,0,0,1,1.287,1.18c.106.787.54,1.213,1.237,1.213a1.1,1.1,0,0,0,1.081-.713,1.312,1.312,0,0,0,.074-1,3.522,3.522,0,0,0-1.115-2.122,4.576,4.576,0,0,0-.885-.655l-.385-.18v-1.022a2.684,2.684,0,0,0-.164-1.352A1.2,1.2,0,0,0,164.567,242.983Z" transform="translate(-130.767 -209.886)" fill="#2c40ce"/>
      </g>
    </g>
    <text id="Calculators" transform="translate(677 1893.37)" fill="#0d0c1e" font-size="14" font-family="DMSans-Medium, DM Sans" font-weight="500"><tspan x="-37.618" y="0">Calculators</tspan></text>
    <text id="Nudge" transform="translate(763.621 1737.37)" fill="#0d0c1e" font-size="14" font-family="DMSans-Medium, DM Sans" font-weight="500"><tspan x="-21.42" y="0">Nudge</tspan></text>
    <g id="Group_1037" data-name="Group 1037" transform="translate(22 64)">
      <text id="Credit_Insight" data-name="Credit
Insight" transform="translate(650 1987.643)" fill="#0d0c1e" font-size="14" font-family="DMSans-Medium, DM Sans" font-weight="500"><tspan x="-20.832" y="0">Credit</tspan><tspan x="-22.106" y="16">Insight</tspan></text>
      <path id="Apps_icons_-06" data-name="Apps icons -06" d="M58.113,44.516a5.584,5.584,0,0,0-3.852,3.852,6.884,6.884,0,0,0-.009,2.645,5.748,5.748,0,0,0,1.19,2.243,3.44,3.44,0,0,1,.48.582c0,.034-1.118,2.192-2.5,4.8l-2.5,4.743-.3-.061a7.666,7.666,0,0,0-1.207-.068,4.544,4.544,0,0,0-2.534.659,1.28,1.28,0,0,1-.466.223c-.038-.017-.9-.779-1.917-1.7a10.511,10.511,0,0,1-1.816-1.8c.018-.068.145-.419.274-.77a6.365,6.365,0,0,0,.214-2.843,6.413,6.413,0,0,0-1.1-2.311,5.592,5.592,0,0,0-2.825-1.831,6.836,6.836,0,0,0-2.671.008,5.555,5.555,0,0,0-3.887,3.981,5.372,5.372,0,0,0,.967,4.443,1.266,1.266,0,0,1,.291.559c-.043.077-5.581,8.356-5.633,8.415a5.352,5.352,0,0,1-.727-.154,5.368,5.368,0,0,0-6.566,4.9,5.43,5.43,0,0,0,4.04,5.513,6.973,6.973,0,0,0,2.594,0,5.522,5.522,0,0,0,3.9-3.861,6.9,6.9,0,0,0,.008-2.645,6.366,6.366,0,0,0-1.019-2.05l-.292-.343,2.826-4.212c1.549-2.32,2.842-4.237,2.876-4.255a1.759,1.759,0,0,1,.53.086,5.379,5.379,0,0,0,3.835-.393l.711-.351.316.274a27.991,27.991,0,0,1,3.408,3.244c-.017.069-.145.394-.274.728a6.413,6.413,0,0,0-.213,2.885A5.551,5.551,0,0,0,48.3,73.8a6.1,6.1,0,0,0,2.983-.163,5.384,5.384,0,0,0,3.442-6.343,5.566,5.566,0,0,0-1.244-2.343l-.446-.5,2.5-4.753,2.508-4.753.325.043a7.507,7.507,0,0,0,2.646-.145,5.552,5.552,0,0,0,3.561-3.535,5.442,5.442,0,0,0-3.821-6.8A7.239,7.239,0,0,0,58.113,44.516Zm2.662,2.517a3.235,3.235,0,0,1,1.413,1.438,2.407,2.407,0,0,1,.2,1.258,2.134,2.134,0,0,1-.24,1.31,3.2,3.2,0,0,1-1.361,1.352,3.312,3.312,0,0,1-2.4.12,3.049,3.049,0,0,1-1.832-3.561A2.988,2.988,0,0,1,60.775,47.032ZM39.167,55.38a3.492,3.492,0,0,1,.865.608,2.991,2.991,0,0,1-.805,4.793,2.068,2.068,0,0,1-1.283.249,2.436,2.436,0,0,1-1.293-.223,3.063,3.063,0,0,1-1.413-1.378,3.307,3.307,0,0,1-.119-2.4A3.011,3.011,0,0,1,39.167,55.38Zm11.686,10.5a3.353,3.353,0,0,1,1.378,1.4,3.645,3.645,0,0,1,.145,2.237,3.263,3.263,0,0,1-1.957,1.935,4.161,4.161,0,0,1-.958.1,3,3,0,0,1-2.663-1.78,2.956,2.956,0,0,1-.017-2.38A3.035,3.035,0,0,1,50.853,65.875ZM27.448,72.552a3.079,3.079,0,0,1,1.61,1.515,2.079,2.079,0,0,1,.273,1.258,2.691,2.691,0,0,1-.565,1.8,2.839,2.839,0,0,1-2.423,1.19,2.067,2.067,0,0,1-1.258-.274,3.2,3.2,0,0,1-1.456-1.456,2.427,2.427,0,0,1-.2-1.258,2.117,2.117,0,0,1,.205-1.241,3.051,3.051,0,0,1,1.79-1.592A3.645,3.645,0,0,1,27.448,72.552Z" transform="translate(607.092 1889.969)" fill="#2c40ce"/>
    </g>
    <g id="noun-calculator-1040748" transform="translate(501.003 1794.064)">
      <path id="Path_4680" data-name="Path 4680" d="M162.5,39.2a2.9,2.9,0,0,0-2.893,2.894V77.777a2.9,2.9,0,0,0,2.893,2.894h27a2.9,2.9,0,0,0,2.893-2.894V42.093A2.9,2.9,0,0,0,189.5,39.2Zm0,.964h27a1.914,1.914,0,0,1,1.929,1.929V77.777a1.914,1.914,0,0,1-1.929,1.929h-27a1.914,1.914,0,0,1-1.929-1.929V42.092A1.914,1.914,0,0,1,162.5,40.163Zm3.375,1.929A2.416,2.416,0,0,0,163.46,44.5v4.822a2.417,2.417,0,0,0,2.411,2.411h20.253a2.417,2.417,0,0,0,2.411-2.411V44.5a2.416,2.416,0,0,0-2.411-2.411Zm0,.964h20.253a1.433,1.433,0,0,1,1.446,1.447v4.822a1.433,1.433,0,0,1-1.446,1.447H165.871a1.433,1.433,0,0,1-1.446-1.447V44.5A1.433,1.433,0,0,1,165.871,43.057Zm-2.019,10.609a.483.483,0,0,0-.392.482v5.787a.482.482,0,0,0,.482.482h5.787a.482.482,0,0,0,.482-.482V54.148a.482.482,0,0,0-.482-.482h-5.787A.509.509,0,0,0,163.851,53.666Zm9.162,0a.482.482,0,0,0-.392.482v5.787a.482.482,0,0,0,.482.482h5.787a.482.482,0,0,0,.482-.482V54.148a.482.482,0,0,0-.482-.482H173.1A.505.505,0,0,0,173.014,53.666Zm9.223,0a.483.483,0,0,0-.452.482v5.787a.482.482,0,0,0,.482.482h5.787a.482.482,0,0,0,.482-.482V54.148a.483.483,0,0,0-.392-.482.509.509,0,0,0-.09,0h-5.817Zm-17.812.964h4.822v4.822h-4.822Zm9.162,0h4.822v4.822h-4.822Zm9.162,0h4.822v4.822h-4.822Zm-18.9,7.716a.483.483,0,0,0-.392.482v5.787a.482.482,0,0,0,.482.482h5.787a.482.482,0,0,0,.482-.482V62.828a.482.482,0,0,0-.482-.482h-5.787A.509.509,0,0,0,163.851,62.346Zm9.162,0a.482.482,0,0,0-.392.482v5.787a.482.482,0,0,0,.482.482h5.787a.482.482,0,0,0,.482-.482V62.828a.482.482,0,0,0-.482-.482H173.1A.505.505,0,0,0,173.014,62.346Zm9.223,0a.483.483,0,0,0-.452.482v5.787a.482.482,0,0,0,.482.482h5.787a.482.482,0,0,0,.482-.482V62.828a.483.483,0,0,0-.392-.482.509.509,0,0,0-.09,0h-5.817Zm-17.812.964h4.822v4.822h-4.822Zm9.162,0h4.822v4.822h-4.822Zm9.162,0h4.822v4.822h-4.822Zm-18.9,7.716a.483.483,0,0,0-.392.482v5.787a.482.482,0,0,0,.482.482h5.787a.482.482,0,0,0,.482-.482V71.508a.482.482,0,0,0-.482-.482h-5.787A.453.453,0,0,0,163.851,71.026Zm9.162,0a.482.482,0,0,0-.392.482v5.787a.482.482,0,0,0,.482.482h5.787a.482.482,0,0,0,.482-.482V71.508a.482.482,0,0,0-.482-.482H173.1A.449.449,0,0,0,173.014,71.026Zm9.223,0a.482.482,0,0,0-.452.482v5.787a.482.482,0,0,0,.482.482h5.787a.482.482,0,0,0,.482-.482V71.508a.483.483,0,0,0-.392-.482.452.452,0,0,0-.09,0h-5.817Zm-17.812.964h4.822v4.822h-4.822Zm9.162,0h4.822v4.822h-4.822Zm9.162,0h4.822v4.822h-4.822Z" transform="translate(0 0)" fill="#2c40ce" stroke="#2c40ce" stroke-width="0.5"/>
    </g>
    <g id="Apps_icons_-01" data-name="Apps icons -01" transform="translate(741.371 1669.321)">
      <path id="Path_4751" data-name="Path 4751" d="M43.8,29.246h0a3.1,3.1,0,0,0-.6-.971,3.21,3.21,0,0,0-1.82-1.048,1.339,1.339,0,0,0-1.33.307,1.018,1.018,0,0,0-.315.729,1.11,1.11,0,0,0,.336.787l.007.007a1.028,1.028,0,0,0,.677.319,1.6,1.6,0,0,1,.9.486,1.1,1.1,0,0,1,0,1.007c-.309.419-.412.452-1.379.474l-.725.025-.03-.192c-.023-.168-.055-.424-.084-.631l-.026-.217a15.359,15.359,0,0,0-7.36-11.045l-.353-.206-.007-1.123a6.881,6.881,0,0,0-.233-2.157,9.2,9.2,0,0,0-6.575-6.59A11.584,11.584,0,0,0,21.3,9a9.622,9.622,0,0,0-3.847,1.542A9.11,9.11,0,0,0,13.52,17.62l-.029.5-1.536-.894c-1.919-1.122-2-1.166-2.59-1.176a1.659,1.659,0,0,0-1.6.96l-.007.013c-.19.41-.2.533-.2,3.271V22.99l-.282.371A16.525,16.525,0,0,0,5.3,26.981l-.084.236-.9.034a3.363,3.363,0,0,0-1.655.293,2.463,2.463,0,0,0-1.191,1.191c-.217.4-.217.4-.217,3.738v3.333l.284.513a2.812,2.812,0,0,0,1.253,1.147,6,6,0,0,0,1.459.168l.944.034L5.319,38a16.008,16.008,0,0,0,5.071,6.7l.225.16v1.9c0,1.929.015,2.142.185,2.49l.007.013a2.248,2.248,0,0,0,1.231,1.049,22.32,22.32,0,0,0,4.254,0c.6-.168,1.058-.663,1.626-1.775l.39-.773h7.231l.43.817c.516.988.923,1.555,1.576,1.728a16.42,16.42,0,0,0,2.219.1c1.766,0,1.872,0,2.37-.239A2,2,0,0,0,33.2,48.792a17.646,17.646,0,0,0,.1-2.265v-1.68l.789-.658a15.509,15.509,0,0,0,4.59-6.592,16.088,16.088,0,0,0,.766-3.327c.009-.095.016-.176.021-.252,0-.042.011-.151.02-.244l.018-.172.173-.014c.111-.009.264-.013.412-.018h.027l.3-.008a3.55,3.55,0,0,0,1.725-.276,3.182,3.182,0,0,0,1.8-2.28,3.265,3.265,0,0,0,.064-.637,3.062,3.062,0,0,0-.211-1.125ZM16.362,15.209a7.2,7.2,0,0,1,.579-1.05,7.313,7.313,0,0,1,4.452-2.906,7.591,7.591,0,0,1,3.062.159,6.693,6.693,0,0,1,2.9,1.664,6.846,6.846,0,0,1,1.621,7.575c-.061.159-.112.284-.151.377l-.089.2-.228-.113a14.352,14.352,0,0,0-2.607-.971l-.152-.039-.294-.077.064-.209a2.724,2.724,0,0,0-.229-2.008,2.9,2.9,0,0,0-.593-.755l-.29-.264.381-.095a1.067,1.067,0,0,0,.24-.091,1.156,1.156,0,0,0,.593-1.09,2.914,2.914,0,0,0-1.594-2.387c-.1-.049-.185-.093-.242-.128l-.075-.048-.018-.084a1.106,1.106,0,0,0-2.163,0l-.018.084L21.443,13a1.29,1.29,0,0,1-.148.084,3.067,3.067,0,0,0-1.361,1.265,2.027,2.027,0,0,0-.284,1.288,2.207,2.207,0,0,0,.224,1.193,2.964,2.964,0,0,0,.671.847l.309.271-.4.091a1.025,1.025,0,0,0-.677.471,1.589,1.589,0,0,0-.065,1.314l.065.209-.211.056-.369.095a11.113,11.113,0,0,0-1.077.35c-.41.154-.877.348-1.426.591l-.187.084-.084-.185a6.854,6.854,0,0,1-.06-5.819Zm6.927,1.13a3.569,3.569,0,0,0-.419-.069c-.63-.07-.736-.131-.923-.364a.429.429,0,0,1-.056-.478.69.69,0,0,1,.265-.279.908.908,0,0,1,.474-.127c.45,0,.716.247.814.755a1.28,1.28,0,0,0,.084.276l.168.38Zm.116,2.786v.036l-.012.034a.906.906,0,0,1-.528.466h-.007a.783.783,0,0,1-.226.033.923.923,0,0,1-.538-.18.557.557,0,0,1-.258-.427.809.809,0,0,0-.1-.393l-.216-.4.445.1a3.27,3.27,0,0,0,.388.06h0c.715.076,1.049.291,1.052.677ZM37.12,34.872A13.171,13.171,0,0,1,31.881,43.1c-.11.08-.6.439-.657.5-.084.084-.084.084-.109.882-.017.609-.03,1.161-.039,1.641l-.036,2.031-1.336.021-1.434.015-.577-1.1c-.783-1.51-.946-1.756-2.092-1.616-.727.084-6.64.084-7.359,0-1.16-.142-1.342.133-2.09,1.614l-.565,1.1H12.841V46.307a8.093,8.093,0,0,0-.136-2.493v-.007a3.874,3.874,0,0,0-.848-.8A16.943,16.943,0,0,1,10.285,41.6a12.615,12.615,0,0,1-3.02-4.754,4.062,4.062,0,0,0-.514-1.069c-.31-.32-.6-.373-2.084-.373-.477,0-.822,0-.972-.018l-.089-.013L3.552,35.3l-.01-.013c-.084-.11-.106-.183-.106-1.007v-.695h.419c.71,0,.839-.01,1.194-.365a.994.994,0,0,0,.242-1.231c-.252-.58-.9-.629-1.485-.629H3.436v-.694c0-.823.008-.89.125-1.032l.118-.135,1.286-.023c1.377-.025,1.51-.035,1.783-.306a2.228,2.228,0,0,0,.419-.78A13.184,13.184,0,0,1,9.151,24.6c.185-.241.425-.569.5-.706l.013-.028c.045-.1.117-.252.117-3.02,0-.711.005-1.392.014-1.913L9.8,18.58l.315.173c.312.177.679.388.99.565l.277.158c1.579.923,2.013,1.139,2.349,1.154l.148.007.043.143a10.348,10.348,0,0,0,.456,1.118l.242.526-.15.117c-.194.159-.587.5-.881.781-.512.495-.623.641-.623,1.064a.91.91,0,0,0,.376.808c.671.6,1.284.189,1.742-.242a11.238,11.238,0,0,1,5.536-2.809,14.042,14.042,0,0,1,4.026-.007,11.352,11.352,0,0,1,5.385,2.7,3.174,3.174,0,0,0,.879.624l.019.005a1.1,1.1,0,0,0,1.046-.3,1.114,1.114,0,0,0,.284-1.069,4.182,4.182,0,0,0-1.4-1.478l-.119-.095-.125-.1.065-.147c.045-.1.121-.269.223-.484l.214-.46.5.336a15.533,15.533,0,0,1,3.483,3.541,13.7,13.7,0,0,1,2.047,5.012A15.7,15.7,0,0,1,37.12,34.872Z" transform="translate(0 0)" fill="#2c40ce"/>
      <path id="Path_4752" data-name="Path 4752" d="M115.075,218.457a1.1,1.1,0,0,1-.524.95,1.079,1.079,0,0,1-.557.159,1.128,1.128,0,0,1-.517-.125,1,1,0,0,1-.587-.983,1.066,1.066,0,0,1,.628-.994,1.174,1.174,0,0,1,.447-.084,1.129,1.129,0,0,1,.632.191A1.068,1.068,0,0,1,115.075,218.457Z" transform="translate(-102.276 -190.954)" fill="#2c40ce"/>
    </g>
    <g id="Group_1038" data-name="Group 1038" transform="translate(0 25)">
      <g id="Rectangle_2512" data-name="Rectangle 2512" transform="translate(916 1582)" fill="#fff" stroke="#e4e7ff" stroke-width="1">
        <rect width="92" height="92" rx="10" stroke="none"/>
        <rect x="0.5" y="0.5" width="91" height="91" rx="9.5" fill="none"/>
      </g>
      <text id="Subscription_Insight" data-name="Subscription
Insight" transform="translate(962 1648.521)" fill="#0d0c1e" font-size="14" font-family="DMSans-Medium, DM Sans" font-weight="500"><tspan x="-42.098" y="0">Subscription</tspan><tspan x="-22.106" y="16">Insight</tspan></text>
      <g id="Apps_icons_-04" data-name="Apps icons -04" transform="translate(927.351 1564.864)">
        <rect id="Rectangle_2502" data-name="Rectangle 2502" width="22.159" height="2.33" rx="1.165" transform="translate(19.336 35.526)" fill="#2c40ce"/>
        <path id="Path_4756" data-name="Path 4756" d="M49.915,44.681v-13A4.618,4.618,0,0,0,45.3,27.07H17.123a4.619,4.619,0,0,0-4.613,4.613V59.862a4.619,4.619,0,0,0,4.614,4.614H32.93A13.318,13.318,0,1,0,49.915,44.681ZM17.124,62.15a2.29,2.29,0,0,1-2.288-2.288V31.683A2.289,2.289,0,0,1,17.124,29.4H45.3a2.29,2.29,0,0,1,2.287,2.287V43.67a13.319,13.319,0,0,0-10.781,1.135H20.5a1.165,1.165,0,0,0,0,2.33H33.844a13.284,13.284,0,0,0-3.506,6.944H20.5a1.165,1.165,0,0,0,0,2.33h9.648a13.247,13.247,0,0,0,1.342,5.744Zm26.344,5.18a11,11,0,0,1-11-10.925v-.071a11,11,0,1,1,11,11Z" fill="#2c40ce"/>
        <path id="Path_4757" data-name="Path 4757" d="M289.537,276.815v.014a.96.96,0,0,1-.291.69l-2.665,2.735a1.007,1.007,0,0,1-1.42,0l-2.684-2.723a1,1,0,0,1,1.413-1.412l1.041,1.058a5.13,5.13,0,1,0-5.027,6.2,5.06,5.06,0,0,0,2.889-.913,1.014,1.014,0,0,1,1.383.254.984.984,0,0,1,.169.723l-.01.056a1.028,1.028,0,0,1-.4.608,6.926,6.926,0,0,1-4.026,1.271,7.218,7.218,0,0,1-4.974-12.329A6.968,6.968,0,0,1,279.875,271h.023a7.148,7.148,0,0,1,7.027,6.047l.9-.922a1.007,1.007,0,0,1,1.419,0A.971.971,0,0,1,289.537,276.815Z" transform="translate(-237.014 -222.109)" fill="#2c40ce"/>
      </g>
    </g>
  </g>
</svg>
