<svg xmlns="http://www.w3.org/2000/svg" width="1667" height="764" viewBox="0 0 1667 764">
  <g id="Group_1059" data-name="Group 1059" transform="translate(158 -1548)">
    <rect id="Rectangle_2514" data-name="Rectangle 2514" width="203" height="59" rx="29.5" transform="translate(602 1760)" fill="#eaf0f9"/>
    <rect id="Rectangle_2515" data-name="Rectangle 2515" width="203" height="59" rx="29.5" transform="translate(756 1885)" fill="#eaf0f9"/>
    <rect id="Rectangle_2516" data-name="Rectangle 2516" width="246" height="59" rx="29.5" transform="translate(377 1855)" fill="#eaf0f9"/>
    <rect id="Rectangle_2517" data-name="Rectangle 2517" width="217" height="59" rx="29.5" transform="translate(239 1967)" fill="#eaf0f9"/>
    <rect id="Rectangle_2518" data-name="Rectangle 2518" width="243" height="59" rx="29.5" transform="translate(938 1789)" fill="#eaf0f9"/>
    <rect id="Rectangle_2519" data-name="Rectangle 2519" width="297" height="59" rx="29.5" transform="translate(946 2036)" fill="#eaf0f9"/>
    <rect id="Rectangle_2520" data-name="Rectangle 2520" width="261" height="59" rx="29.5" transform="translate(561 2047)" fill="#eaf0f9"/>
    <rect id="Rectangle_2521" data-name="Rectangle 2521" width="203" height="59" rx="29.5" transform="translate(198 1759)" fill="#eaf0f9" opacity="0.57"/>
    <g id="Group_1039" data-name="Group 1039" transform="translate(43.844 -3)">
      <g id="Apps_icons_-01" data-name="Apps icons -01" transform="translate(598.063 1764.583)">
        <path id="Path_4771" data-name="Path 4771" d="M40.182,27.521h0a2.833,2.833,0,0,0-.553-.889,2.937,2.937,0,0,0-1.666-.959,1.225,1.225,0,0,0-1.217.281.932.932,0,0,0-.289.667,1.015,1.015,0,0,0,.307.72l.006.006a.941.941,0,0,0,.619.292,1.461,1.461,0,0,1,.823.445,1,1,0,0,1,0,.921c-.282.384-.377.414-1.262.434l-.663.023-.028-.176c-.021-.154-.05-.388-.077-.577l-.024-.2A14.054,14.054,0,0,0,29.425,18.4l-.323-.188L29.1,17.188a6.3,6.3,0,0,0-.213-1.974,8.415,8.415,0,0,0-6.017-6.03A10.6,10.6,0,0,0,19.6,9a8.8,8.8,0,0,0-3.52,1.411,8.336,8.336,0,0,0-3.6,6.474l-.026.461-1.405-.818C9.29,15.5,9.219,15.458,8.676,15.449a1.518,1.518,0,0,0-1.463.878l-.006.012c-.174.375-.181.488-.181,2.993V21.8l-.258.339a15.121,15.121,0,0,0-1.811,3.313l-.077.216-.827.031a3.077,3.077,0,0,0-1.514.268,2.254,2.254,0,0,0-1.09,1.09c-.2.364-.2.364-.2,3.421v3.049l.26.469a2.573,2.573,0,0,0,1.147,1.05,5.488,5.488,0,0,0,1.335.154l.863.031.118.307a14.648,14.648,0,0,0,4.64,6.126l.206.147v1.739c0,1.765.014,1.96.169,2.279l.006.012a2.057,2.057,0,0,0,1.126.96,20.423,20.423,0,0,0,3.893,0c.551-.154.968-.606,1.487-1.624l.357-.707h6.617l.394.748c.472.9.844,1.423,1.442,1.581a15.026,15.026,0,0,0,2.03.094c1.616,0,1.713,0,2.169-.219a1.825,1.825,0,0,0,.978-1.263,16.147,16.147,0,0,0,.091-2.072V41.8l.722-.6a14.192,14.192,0,0,0,4.2-6.032,14.722,14.722,0,0,0,.7-3.044c.008-.087.015-.161.019-.23,0-.038.01-.138.018-.223l.017-.157.158-.013c.1-.008.242-.012.377-.016h.025l.277-.007a3.248,3.248,0,0,0,1.579-.253,2.911,2.911,0,0,0,1.645-2.086,2.987,2.987,0,0,0,.058-.583,2.8,2.8,0,0,0-.193-1.029Zm-25.1-12.845a6.59,6.59,0,0,1,.53-.961,6.692,6.692,0,0,1,4.074-2.659,6.946,6.946,0,0,1,2.8.145,6.125,6.125,0,0,1,2.657,1.523,6.264,6.264,0,0,1,1.484,6.932c-.056.146-.1.259-.138.345l-.081.187-.209-.1a13.133,13.133,0,0,0-2.385-.889l-.139-.036-.269-.071.058-.191a2.493,2.493,0,0,0-.21-1.837,2.658,2.658,0,0,0-.543-.691l-.266-.242.348-.087a.976.976,0,0,0,.22-.083,1.058,1.058,0,0,0,.543-1A2.667,2.667,0,0,0,22.1,12.775c-.094-.045-.17-.085-.222-.117l-.069-.044-.017-.077a1.012,1.012,0,0,0-1.979,0l-.016.077-.065.044a1.181,1.181,0,0,1-.136.077,2.807,2.807,0,0,0-1.245,1.157,1.855,1.855,0,0,0-.26,1.179,2.02,2.02,0,0,0,.2,1.091,2.712,2.712,0,0,0,.614.775l.282.248-.366.084a.938.938,0,0,0-.619.431,1.454,1.454,0,0,0-.059,1.2l.059.191-.193.051-.338.087a10.168,10.168,0,0,0-.986.32c-.375.141-.8.319-1.3.541l-.171.077L15.133,20a6.271,6.271,0,0,1-.054-5.324Zm6.338,1.034a3.266,3.266,0,0,0-.384-.063c-.576-.064-.674-.12-.844-.333a.392.392,0,0,1-.051-.437.632.632,0,0,1,.243-.256.83.83,0,0,1,.434-.117c.412,0,.655.226.745.691a1.171,1.171,0,0,0,.077.253l.154.348Zm.106,2.55v.033l-.011.031a.829.829,0,0,1-.484.427h-.006a.716.716,0,0,1-.207.03.844.844,0,0,1-.492-.165.51.51,0,0,1-.236-.391.74.74,0,0,0-.094-.36l-.2-.368.408.089a2.993,2.993,0,0,0,.355.054h0c.654.07.96.266.962.619Zm12.55,14.41A12.052,12.052,0,0,1,29.279,40.2c-.1.073-.546.4-.6.454-.077.077-.077.077-.1.807-.015.557-.028,1.062-.036,1.5l-.033,1.858-1.223.019-1.312.014-.528-1c-.717-1.382-.866-1.606-1.914-1.478-.665.077-6.076.077-6.734,0-1.061-.13-1.228.121-1.913,1.477l-.517,1.006H11.857V43.133a7.405,7.405,0,0,0-.124-2.281v-.006a3.545,3.545,0,0,0-.776-.728,15.5,15.5,0,0,1-1.439-1.295,11.544,11.544,0,0,1-2.763-4.35,3.716,3.716,0,0,0-.47-.979c-.283-.293-.551-.342-1.907-.342-.437,0-.752,0-.89-.016l-.081-.012-.049-.065-.009-.012c-.077-.1-.1-.167-.1-.921V31.49h.384c.65,0,.768-.009,1.092-.334a.91.91,0,0,0,.221-1.127c-.23-.531-.824-.576-1.359-.576H3.25v-.635c0-.753.008-.814.114-.944l.108-.124,1.177-.021c1.26-.023,1.382-.032,1.632-.28a2.039,2.039,0,0,0,.384-.714A12.064,12.064,0,0,1,8.48,23.27c.17-.22.389-.52.461-.646l.012-.025a10.6,10.6,0,0,0,.107-2.763c0-.651,0-1.273.013-1.751l.005-.323.289.158c.286.162.622.355.906.517l.253.144c1.445.844,1.842,1.042,2.149,1.056l.136.006.039.131a9.469,9.469,0,0,0,.418,1.023l.222.481-.137.107c-.177.145-.537.461-.806.715-.469.453-.57.586-.57.973a.833.833,0,0,0,.344.739c.614.553,1.175.173,1.594-.221a10.284,10.284,0,0,1,5.066-2.57,12.849,12.849,0,0,1,3.684-.006,10.388,10.388,0,0,1,4.928,2.466,2.9,2.9,0,0,0,.8.571l.018,0a1,1,0,0,0,.957-.272,1.019,1.019,0,0,0,.259-.978,3.826,3.826,0,0,0-1.279-1.352l-.109-.087-.114-.093.059-.134c.041-.094.111-.246.2-.443l.2-.421.461.307a14.213,14.213,0,0,1,3.188,3.241,12.538,12.538,0,0,1,1.873,4.586A14.363,14.363,0,0,1,34.073,32.67Z" fill="#fe85bb"/>
        <path id="Path_4772" data-name="Path 4772" d="M114.889,218.366a1,1,0,0,1-.48.869.987.987,0,0,1-.51.145,1.033,1.033,0,0,1-.473-.114.919.919,0,0,1-.537-.9.975.975,0,0,1,.575-.91,1.074,1.074,0,0,1,.409-.077,1.033,1.033,0,0,1,.578.175A.977.977,0,0,1,114.889,218.366Z" transform="translate(-103.071 -192.439)" fill="#fe85bb"/>
      </g>
      <text id="Nudges" transform="translate(684 1800)" fill="#080a1a" font-size="20" font-family="DMSans-Medium, DM Sans" font-weight="500"><tspan x="-35.72" y="0">Nudges</tspan></text>
    </g>
    <text id="Smart_goal" data-name="Smart goal" transform="translate(325.844 1796)" fill="#080a1a" font-size="20" font-family="DMSans-Medium, DM Sans" font-weight="500"><tspan x="-50.38" y="0">Smart goal</tspan></text>
    <path id="Apps_icons_-02" data-name="Apps icons -02" d="M17.82.361c-.141.015-.579.067-.964.111A19.042,19.042,0,0,0,.38,16.931a26.489,26.489,0,0,0,.03,4.97A19.225,19.225,0,0,0,10.565,36.2,19.037,19.037,0,0,0,29.63,35.195a19.355,19.355,0,0,0,7.24-8.85,19.029,19.029,0,0,0,.23-13.457c-.178-.49-.616-1.484-.979-2.211l-.668-1.328L36.47,8.333C37.583,7.22,37.7,7.02,37.553,6.478a1.209,1.209,0,0,0-.831-.786c-.134-.022-.972-.1-1.862-.178s-1.639-.156-1.662-.178-.1-.772-.178-1.662-.156-1.728-.178-1.862a1.209,1.209,0,0,0-.786-.831c-.542-.148-.749-.03-1.847,1.076a12.654,12.654,0,0,1-1.061,1,8.086,8.086,0,0,1-.816-.415A19.19,19.19,0,0,0,21.9.5,32.221,32.221,0,0,0,17.82.361Zm3.012,2.263a17.13,17.13,0,0,1,5.66,1.588,6.242,6.242,0,0,1,.972.534,7.339,7.339,0,0,1-.7.764,3.241,3.241,0,0,0-.772.95,3.088,3.088,0,0,0,0,.927c.03.371.067.809.067.964v.272l-.282-.178a14.6,14.6,0,0,0-2.389-1.12,12.682,12.682,0,1,0-6.269,24.488,11.41,11.41,0,0,0,2.188.134,9.386,9.386,0,0,0,2.381-.2,12.706,12.706,0,0,0,9.488-16.706,15.089,15.089,0,0,0-1.083-2.277l-.178-.282h.274c.156,0,.593.037.964.067a3.088,3.088,0,0,0,.927,0,3.241,3.241,0,0,0,.95-.772,6.581,6.581,0,0,1,.764-.7,5.605,5.605,0,0,1,.534.972,16.75,16.75,0,0,1-2.938,18.791,16.423,16.423,0,0,1-4.748,3.487A16.717,16.717,0,0,1,7.709,31.471a16.281,16.281,0,0,1-3.494-4.755A16.744,16.744,0,0,1,20.832,2.623ZM30.981,5.887c.148,1.447.274,1.558,1.958,1.7l1.068.1L32.679,9.011l-1.328,1.328-1.439-.119c-.794-.067-1.454-.126-1.461-.134s-.067-.66-.134-1.454l-.126-1.439,1.328-1.328c1.231-1.231,1.32-1.313,1.343-1.12.015.119.067.631.119,1.142Zm-9.656,3.18a11.168,11.168,0,0,1,2.545.868A11,11,0,0,1,25.6,11.018l.171.156-1.58,1.58-1.573,1.573-.46-.26a6.222,6.222,0,0,0-4.414-.586,6.137,6.137,0,0,0-3.887,3.19,5.206,5.206,0,0,0-.6,2.337,5.935,5.935,0,0,0,3.361,5.682,6.009,6.009,0,0,0,7.292-1.617,7.184,7.184,0,0,0,1.142-2.285,6.145,6.145,0,0,0-.579-4.407l-.26-.46,1.573-1.573,1.58-1.58.156.171A11,11,0,0,1,28.6,14.668a11.6,11.6,0,0,1,.883,2.582,12.327,12.327,0,0,1,0,4.11,10.481,10.481,0,0,1-8.2,8.2,12.327,12.327,0,0,1-4.11,0,10.491,10.491,0,0,1-8.2-8.2,12.327,12.327,0,0,1,0-4.11,10.492,10.492,0,0,1,8.991-8.331A13.812,13.812,0,0,1,21.325,9.067ZM20.383,15.7c.682.215.72.134-.72,1.58a16.5,16.5,0,0,0-1.424,1.558A1.1,1.1,0,0,0,19.7,20.3a16.5,16.5,0,0,0,1.558-1.424c1.447-1.439,1.365-1.4,1.58-.72a3.808,3.808,0,0,1-4.362,4.852,3.779,3.779,0,0,1-.119-7.381,4.84,4.84,0,0,1,2.022.077Z" transform="translate(226.879 1769.187)" fill="#8d7bf6"/>
    <g id="Group_1046" data-name="Group 1046" transform="translate(-22.391 7)">
      <text id="Subscription_Insight" data-name="Subscription Insight" transform="translate(1140.844 2065.5)" fill="#080a1a" font-size="20" font-family="DMSans-Medium, DM Sans" font-weight="500"><tspan x="-94.24" y="0">Subscription Insight</tspan></text>
      <g id="Apps_icons_-04" data-name="Apps icons -04" transform="translate(985.881 2012.599)">
        <rect id="Rectangle_2513" data-name="Rectangle 2513" width="20.117" height="2.116" rx="1.058" transform="translate(18.706 34.747)" fill="#f56868"/>
        <path id="Path_4776" data-name="Path 4776" d="M46.467,43.058v-11.8a4.192,4.192,0,0,0-4.188-4.188H16.7a4.193,4.193,0,0,0-4.188,4.188V56.839A4.193,4.193,0,0,0,16.7,61.028H31.048a12.09,12.09,0,1,0,15.419-17.97ZM16.7,58.917a2.079,2.079,0,0,1-2.077-2.077V31.258A2.078,2.078,0,0,1,16.7,29.181H42.28a2.079,2.079,0,0,1,2.077,2.077V42.14a12.091,12.091,0,0,0-9.787,1.031h-14.8a1.058,1.058,0,0,0,0,2.116H31.878a12.06,12.06,0,0,0-3.183,6.3H19.762a1.058,1.058,0,1,0,0,2.116h8.759a12.026,12.026,0,0,0,1.218,5.215Zm23.916,4.7A9.989,9.989,0,0,1,30.632,53.7v-.064a9.982,9.982,0,1,1,9.982,9.982Z" fill="#f56868"/>
        <path id="Path_4777" data-name="Path 4777" d="M287.995,276.279v.013a.871.871,0,0,1-.264.626l-2.419,2.483a.914.914,0,0,1-1.289,0l-2.436-2.472a.906.906,0,1,1,1.282-1.281l.945.961a4.657,4.657,0,1,0-4.564,5.629,4.593,4.593,0,0,0,2.623-.829.921.921,0,0,1,1.256.231.893.893,0,0,1,.153.656l-.009.051a.934.934,0,0,1-.367.552,6.287,6.287,0,0,1-3.654,1.154,6.552,6.552,0,0,1-4.515-11.192,6.326,6.326,0,0,1,4.488-1.86h.021a6.489,6.489,0,0,1,6.379,5.49l.819-.837a.914.914,0,0,1,1.288,0A.881.881,0,0,1,287.995,276.279Z" transform="translate(-239.16 -224.12)" fill="#f56868"/>
      </g>
    </g>
    <g id="Group_1047" data-name="Group 1047" transform="translate(-19.402 7)">
      <text id="Microinvesting" transform="translate(1102.844 1819)" fill="#080a1a" font-size="20" font-family="DMSans-Medium, DM Sans" font-weight="500"><tspan x="-69" y="0">Microinvesting</tspan></text>
      <g id="Apps_icons_-05" data-name="Apps icons -05" transform="translate(954.902 1784.367)">
        <path id="Path_4778" data-name="Path 4778" d="M65.918,9.555c0,2.852-.015,3.174-.172,3.473a.985.985,0,0,1-.686.565.96.96,0,0,1-.831-.263l-.327-.285-.049-4.092L53.535,19.273h-.879l-1.814-1.866L49.15,15.682,41.033,23.79c-3.062,3.056-8.288,8.257-8.453,8.363a.932.932,0,0,1-.515.156.977.977,0,0,1-.54-.166,1.045,1.045,0,0,1-.452-1.057c.037-.219.756-1,8.673-8.92,3.313-3.329,8.667-8.654,8.9-8.769.7-.328.892-.163,2.8,1.723l1.643,1.635,3.323-3.265c1.973-1.935,4.088-4.031,4.828-4.768l1.2-1.2H60.746A7.857,7.857,0,0,1,58.4,7.383a.944.944,0,0,1-.584-.847.965.965,0,0,1,.542-.9c.3-.153.627-.172,3.517-.172,2.8,0,3.226.019,3.475.153C65.918,5.908,65.918,6.183,65.918,9.555Z" fill="#5adb92"/>
        <path id="Path_4779" data-name="Path 4779" d="M224.848,147.631a9.583,9.583,0,0,0-2.517-3.073l-.36-.27v-7.93c0-8.04,0-8.04-.2-8.289a1.278,1.278,0,0,0-.564-.361,23.929,23.929,0,0,0-4,.009,1.213,1.213,0,0,0-.487.3c-.192.212-.2.216-.222,7.539l-.017,7.148-.508.049c-.343.026-.733.078-.865.1l-.086.018v-9.943l-.28-.31-.283-.327h-2.117c-1.958,0-2.113.005-2.384.205a1.091,1.091,0,0,0-.208.209.717.717,0,0,0-.133.251c-.051.286-.068,4.9-.072,6.891l-.009,6.629-.316.527a8.693,8.693,0,0,0-1.143,3.083V137.933l-.6-.58-1.956-.009c-.2,0-1.915-.015-2.119.028a1.12,1.12,0,0,0-.772.933c-.029.227-.043,4.308-.027,8.4.027,7.237.045,8.087.172,8.27.305.457.535.478,2.249.5.4.009.733.014,1.017.014,1.179,0,1.471-.086,1.761-.377l.278-.278V153.1a8.865,8.865,0,0,0,1.334,3.416,9.076,9.076,0,0,0,5.247,3.751,6.693,6.693,0,0,0,2.211.227,6.782,6.782,0,0,0,2.221-.227,9.426,9.426,0,0,0,4.632-2.933A8.993,8.993,0,0,0,224.848,147.631Zm-18.741,5.8h-1.458V139.368h1.458Zm13.809-23.759v13.53l-.022-.006c-.112-.035-.458-.128-.8-.216l-.505-.137-.026-6.6-.017-6.57Zm-8.32,4.632h1.458v9.221l-.424.238c-.277.156-.665.389-.866.529l-.172.113Zm11.8,19.507a6.776,6.776,0,0,1-3.452,3.931,5.54,5.54,0,0,1-3.074.708,5.921,5.921,0,0,1-3.048-.672,6.273,6.273,0,0,1-1.98-1.509,6.824,6.824,0,0,1-.066-9.287,7.209,7.209,0,0,1,4.125-2.206,6.533,6.533,0,0,1,.925-.075,6.914,6.914,0,0,1,6.569,9.111Z" transform="translate(-156.829 -111.69)" fill="#5adb92"/>
        <path id="Path_4780" data-name="Path 4780" d="M340.526,342.5a2.591,2.591,0,0,1-.209,1.161,2.977,2.977,0,0,1-1.215,1.4c-.323.172-.324.176-.37.528a1.128,1.128,0,0,1-.606,1,.993.993,0,0,1-.429.107.954.954,0,0,1-.5-.157,1,1,0,0,1-.491-.944c0-.2,0-.2-.3-.308a3.053,3.053,0,0,1-1.824-2.478c-.042-.665.027-1,.551-1.21a.986.986,0,0,1,.873.021,1.057,1.057,0,0,1,.5.781c.1.672.463,1.041,1.014,1.041a.962.962,0,0,0,.858-.491.9.9,0,0,0-.021-.917c-.209-.356-.408-.458-1.065-.548a3.035,3.035,0,0,1-2.448-1.674,3.415,3.415,0,0,1-.154-2.212,3.1,3.1,0,0,1,1.808-1.931c.172-.056.172-.056.22-.5.055-.618.2-.849.626-1.029a.931.931,0,0,1,.877.062c.363.172.48.564.528,1.082.031.459.031.459.352.627a2.886,2.886,0,0,1,1.416,2.4c.009.481-.015.619-.271.865a.973.973,0,0,1-1,.246,1.012,1.012,0,0,1-.7-.8,1.235,1.235,0,0,0-.457-.923.9.9,0,0,0-.766-.154.964.964,0,0,0-.652.527.765.765,0,0,0,.02.865,1.318,1.318,0,0,0,1.145.582,2.922,2.922,0,0,1,2.394,1.658A2.284,2.284,0,0,1,340.526,342.5Z" transform="translate(-277.481 -300.409)" fill="#5adb92"/>
        <path id="Path_4781" data-name="Path 4781" d="M126.787,265.017c-.3-.429-.7-.467-2.6-.467a5.989,5.989,0,0,0-2.118.143h0l-.069.034c-.473.227-.473.227-.479,6.427v8.772l.278.278c.292.292.568.377,1.748.377.292,0,.639-.005,1.055-.014l1.734-.027.309-.318.323-.313v-7.328C126.965,265.557,126.958,265.275,126.787,265.017Zm-3.3,13.6V266.6h1.458v12.008Z" transform="translate(-82.704 -236.867)" fill="#5adb92"/>
        <path id="Path_4782" data-name="Path 4782" d="M44.879,354.212c-.244-.588-.588-.628-2.625-.62-.471,0-.944.013-1.3.022s-.628.021-.686.031a1.071,1.071,0,0,0-.491.338l-.243.3v7.046l.278.278c.286.287.623.377,1.853.377.286,0,.619,0,1.011-.013,1.707-.033,1.935-.06,2.207-.623A41.664,41.664,0,0,0,44.879,354.212Zm-1.92,1.43v4.379l-1.415-.047-.024-2.174-.016-2.161Z" transform="translate(-7.747 -318.271)" fill="#5adb92"/>
      </g>
    </g>
    <g id="Group_1048" data-name="Group 1048" transform="translate(-21.301 7)">
      <text id="Credit_Insight" data-name="Credit Insight" transform="translate(547.844 1885)" fill="#080a1a" font-size="20" font-family="DMSans-Medium, DM Sans" font-weight="500"><tspan x="-63.86" y="0">Credit Insight</tspan></text>
      <path id="Apps_icons_-06" data-name="Apps icons -06" d="M55.788,44.508a5.235,5.235,0,0,0-3.611,3.611,6.452,6.452,0,0,0-.009,2.479,5.388,5.388,0,0,0,1.116,2.1,3.225,3.225,0,0,1,.45.545c0,.031-1.048,2.055-2.344,4.5l-2.34,4.446-.28-.057a7.185,7.185,0,0,0-1.131-.064,4.26,4.26,0,0,0-2.375.618,1.2,1.2,0,0,1-.437.209c-.036-.016-.842-.73-1.8-1.589a9.853,9.853,0,0,1-1.7-1.685c.017-.064.136-.393.257-.722a4.925,4.925,0,0,0-.834-4.831A5.242,5.242,0,0,0,38.1,52.356a6.408,6.408,0,0,0-2.5.008,5.207,5.207,0,0,0-3.643,3.731,5.036,5.036,0,0,0,.907,4.165,1.187,1.187,0,0,1,.273.524c-.04.073-5.231,7.832-5.28,7.888a5.018,5.018,0,0,1-.681-.144,5.032,5.032,0,0,0-6.155,4.59A5.09,5.09,0,0,0,24.8,78.285a6.537,6.537,0,0,0,2.431,0,5.176,5.176,0,0,0,3.66-3.619,6.468,6.468,0,0,0,.008-2.479,5.967,5.967,0,0,0-.955-1.922l-.273-.321L32.323,66c1.452-2.174,2.664-3.972,2.7-3.988a1.649,1.649,0,0,1,.5.08,5.042,5.042,0,0,0,3.6-.369l.667-.329.3.257a26.237,26.237,0,0,1,3.194,3.041c-.016.065-.136.37-.257.682a6.011,6.011,0,0,0-.2,2.7,5.2,5.2,0,0,0,3.779,3.884,5.719,5.719,0,0,0,2.8-.153,5.047,5.047,0,0,0,3.226-5.946,5.217,5.217,0,0,0-1.166-2.2l-.418-.466,2.343-4.456,2.351-4.456.3.04a7.037,7.037,0,0,0,2.48-.136,5.2,5.2,0,0,0,3.338-3.314A5.1,5.1,0,0,0,58.265,44.5,6.785,6.785,0,0,0,55.788,44.508Zm2.5,2.359a3.032,3.032,0,0,1,1.324,1.348,2.257,2.257,0,0,1,.188,1.179,2,2,0,0,1-.225,1.228A3,3,0,0,1,58.3,51.89,3.1,3.1,0,0,1,56.048,52a2.858,2.858,0,0,1-1.718-3.338A2.8,2.8,0,0,1,58.283,46.867ZM38.029,54.691a3.274,3.274,0,0,1,.811.57,2.8,2.8,0,0,1-.755,4.493,1.939,1.939,0,0,1-1.2.233,2.283,2.283,0,0,1-1.212-.209,2.871,2.871,0,0,1-1.324-1.292,3.1,3.1,0,0,1-.112-2.247A2.823,2.823,0,0,1,38.029,54.691Zm10.954,9.838a3.143,3.143,0,0,1,1.292,1.316,3.416,3.416,0,0,1,.136,2.1,3.059,3.059,0,0,1-1.835,1.814,3.9,3.9,0,0,1-.9.1,2.809,2.809,0,0,1-2.5-1.669,2.771,2.771,0,0,1-.016-2.231A2.844,2.844,0,0,1,48.983,64.529ZM27.044,70.788a2.886,2.886,0,0,1,1.509,1.421,1.949,1.949,0,0,1,.256,1.179,2.522,2.522,0,0,1-.529,1.685,2.661,2.661,0,0,1-2.271,1.116,1.937,1.937,0,0,1-1.179-.257,3,3,0,0,1-1.365-1.365,2.275,2.275,0,0,1-.187-1.179,1.984,1.984,0,0,1,.192-1.164,2.859,2.859,0,0,1,1.677-1.492A3.417,3.417,0,0,1,27.044,70.788Z" transform="translate(410.293 1816.106)" fill="#6ad7fd"/>
    </g>
    <g id="Group_1049" data-name="Group 1049" transform="translate(-18.629 6.741)">
      <text id="Budgeting" transform="translate(898.844 1915)" fill="#080a1a" font-size="20" font-family="DMSans-Medium, DM Sans" font-weight="500"><tspan x="-47.67" y="0">Budgeting</tspan></text>
      <g id="Apps_icons_-07" data-name="Apps icons -07" transform="translate(786.281 1875.151)">
        <path id="Path_4783" data-name="Path 4783" d="M32.277,13.2a3.4,3.4,0,0,0-2.15,1.664l-.256.489h-1.9c-1.743,0-1.925.015-2.188.151a1.167,1.167,0,0,0-.586,1.09c.023.143.451,1.512.951,3.045s.909,2.827.909,2.879-.166.211-.376.346a3.359,3.359,0,0,0-.887,4.7c.135.211.2.383.158.406s-.2.135-.368.233a17.86,17.86,0,0,0-3.621,3.268,15.8,15.8,0,0,0-3.565,11.1,8.406,8.406,0,0,0,2.413,5.572c1.865,1.894,4.346,2.842,8.646,3.307a64.682,64.682,0,0,0,7.142.008,22.383,22.383,0,0,0,4.691-.91l.436-.158.361.323a3.644,3.644,0,0,0,1.564.8c.526.113,9.819.113,10.4.008a3.385,3.385,0,0,0,2.541-4.474,4.622,4.622,0,0,0-.376-.745l-.233-.345.233-.346a3.565,3.565,0,0,0,0-3.819l-.233-.345.233-.346a3.565,3.565,0,0,0,0-3.819l-.233-.346.233-.345a3.383,3.383,0,0,0-2.165-5.217c-.248-.045-2.255-.075-5.217-.075h-4.81l-.782-.82a15.25,15.25,0,0,0-2.581-2.187c-.271-.18-.5-.33-.519-.345a1.326,1.326,0,0,1,.211-.376,3.368,3.368,0,0,0-.9-4.7c-.21-.135-.375-.286-.375-.346s.406-1.353.909-2.879.924-2.9.951-3.045a1.167,1.167,0,0,0-.586-1.09c-.264-.135-.444-.151-2.188-.151h-1.9l-.256-.489A3.372,3.372,0,0,0,32.277,13.2Zm1.316,2.3c.526.271.6.526.6,2.1,0,1.21.015,1.391.151,1.654a1.095,1.095,0,0,0,1.954,0,1.924,1.924,0,0,0,.151-.978v-.673h.9a3.847,3.847,0,0,1,.9.053c0,.03-.338,1.075-.745,2.316l-.734,2.255H29.36l-.737-2.255c-.406-1.241-.745-2.278-.745-2.316a10.452,10.452,0,0,1,1.579-.053c1.443,0,1.609-.015,1.88-.151a1.188,1.188,0,0,0,.6-.977,1.2,1.2,0,0,1,.586-.97,1.066,1.066,0,0,1,1.068-.007ZM38.1,24.673a1.1,1.1,0,0,1,0,1.955c-.286.143-.436.15-5.038.15s-4.753-.007-5.037-.15a1.188,1.188,0,0,1-.6-.978,1.2,1.2,0,0,1,.586-.97c.271-.143.451-.151,5.037-.158C37.675,24.523,37.818,24.531,38.1,24.673Zm-.346,4.541a12.308,12.308,0,0,1,2.187,1.324,12.6,12.6,0,0,1,1.917,1.736,1.977,1.977,0,0,1-.256.444,3.54,3.54,0,0,0-.039,3.864l.233.345-.233.346a3.565,3.565,0,0,0,0,3.819l.233.346-.233.345a3.565,3.565,0,0,0,0,3.819l.233.346-.231.342A3.746,3.746,0,0,0,41,47.849l-.053.429-.692.218a22.3,22.3,0,0,1-6.285.8c-7.232.188-11.328-1.249-12.743-4.451-.993-2.24-.792-5.783.5-8.728a12.964,12.964,0,0,1,2.963-4.271,11.8,11.8,0,0,1,3.21-2.391l.849-.428h8.6ZM53.967,33.7a1.095,1.095,0,0,1,0,1.954c-.286.143-.437.151-5.075.151s-4.79-.008-5.075-.151a1.188,1.188,0,0,1-.6-.978,1.205,1.205,0,0,1,.587-.97c.27-.143.451-.151,5.075-.158C53.539,33.545,53.682,33.552,53.967,33.7Zm0,4.511a1.095,1.095,0,0,1,0,1.954c-.286.143-.437.151-5.075.151s-4.79-.007-5.075-.151a1.188,1.188,0,0,1-.6-.977,1.206,1.206,0,0,1,.587-.97c.27-.143.451-.151,5.075-.158,4.662,0,4.8.007,5.09.151Zm0,4.511a1.095,1.095,0,0,1,0,1.954c-.286.143-.437.151-5.075.151s-4.79-.007-5.075-.151a1.188,1.188,0,0,1-.6-.977,1.206,1.206,0,0,1,.587-.97c.27-.143.451-.15,5.075-.158,4.662,0,4.8.008,5.09.151Zm0,4.511a1.1,1.1,0,0,1,0,1.955c-.286.143-.437.15-5.075.15s-4.79-.007-5.075-.15a1.188,1.188,0,0,1-.6-.978,1.2,1.2,0,0,1,.587-.97c.27-.143.451-.151,5.075-.158,4.662,0,4.8.006,5.09.15Z" transform="translate(0)" fill="#ffb867"/>
        <path id="Path_4784" data-name="Path 4784" d="M164.312,242.97c-.475.248-.586.571-.586,1.669v.94l-.421.2a3.988,3.988,0,0,0-.827.609,3.369,3.369,0,0,0,1.466,5.641,2.467,2.467,0,0,0,.609.105c1.03.007,1.646.744,1.308,1.564a1.03,1.03,0,0,1-1,.692,1.109,1.109,0,0,1-1.143-1.109,1.125,1.125,0,1,0-2.247.1,3.427,3.427,0,0,0,1.812,2.894l.444.234v.593a1.817,1.817,0,0,0,.151.894,1.095,1.095,0,0,0,1.954,0,1.817,1.817,0,0,0,.151-.894v-.6l.451-.238a3.6,3.6,0,0,0,.82-.634,3.364,3.364,0,0,0-2.1-5.692c-.713-.079-1.008-.218-1.249-.586a1.1,1.1,0,0,1,.9-1.669,1.126,1.126,0,0,1,1.18,1.083c.1.722.5,1.113,1.135,1.113a1.013,1.013,0,0,0,.992-.654,1.2,1.2,0,0,0,.068-.917,3.231,3.231,0,0,0-1.023-1.947,4.2,4.2,0,0,0-.812-.6l-.353-.166v-.938a2.463,2.463,0,0,0-.151-1.241A1.1,1.1,0,0,0,164.312,242.97Z" transform="translate(-131.786 -211.522)" fill="#ffb867"/>
      </g>
    </g>
    <g id="Group_1050" data-name="Group 1050" transform="translate(-20.535 7)">
      <text id="Wellness_Score" data-name="Wellness Score" transform="translate(743.844 2077)" fill="#080a1a" font-size="20" font-family="DMSans-Medium, DM Sans" font-weight="500"><tspan x="-71.73" y="0">Wellness Score</tspan></text>
      <g id="Apps_icons_-08" data-name="Apps icons -08" transform="translate(606.092 1950.435)">
        <path id="Path_4785" data-name="Path 4785" d="M24.682,232.86H4.988a24.36,24.36,0,0,1,4-13.631l15.592,11.093a5.386,5.386,0,0,0,.1,2.533Z" transform="translate(0 -101.392)" fill="#ff8383"/>
        <path id="Path_4786" data-name="Path 4786" d="M73.531,137.556a5.371,5.371,0,0,0-2.112,2.2L56.44,128.894a24.362,24.362,0,0,1,11.244-8.684Q70.609,128.883,73.531,137.556Z" transform="translate(-46.343 -12.206)" fill="#ffc07b"/>
        <path id="Path_4787" data-name="Path 4787" d="M326.781,232.861H306.91a5.384,5.384,0,0,0,.2-1.467,5.285,5.285,0,0,0-.087-.961l15.748-11.2a24.359,24.359,0,0,1,4,13.631Z" transform="translate(-271.938 -101.393)" fill="#aae27f"/>
        <path id="Path_4788" data-name="Path 4788" d="M300.309,128.894,285.2,139.846a5.387,5.387,0,0,0-2.012-2.2l5.875-17.431a24.357,24.357,0,0,1,11.244,8.684Z" transform="translate(-250.574 -12.206)" fill="#7fe2d4"/>
        <path id="Path_4789" data-name="Path 4789" d="M197.517,107.954l-5.506,16.953a5.391,5.391,0,0,0-3.092-.052q-2.838-8.558-5.68-17.115A22.07,22.07,0,0,1,197.517,107.954Z" transform="translate(-160.55)" fill="#7f86e2"/>
        <path id="Path_4790" data-name="Path 4790" d="M245.994,274.067a.09.09,0,0,0-.119,0l-7.282,5.512a1.689,1.689,0,0,0-.179.158h0a1.475,1.475,0,0,0,.048,2.086h0a1.269,1.269,0,0,0,.159.133h0a1.476,1.476,0,0,0,2.066-.338h0l5.335-7.426A.093.093,0,0,0,245.994,274.067Zm-6.356,7.016a.527.527,0,1,1,.533-.527A.527.527,0,0,1,239.638,281.083Z" transform="translate(-209.877 -150.763)" fill="#2f42ce"/>
      </g>
    </g>
    <g id="Group_1051" data-name="Group 1051" transform="translate(-15.605 7)">
      <text id="Calculators" transform="translate(384.844 1997)" fill="#080a1a" font-size="20" font-family="DMSans-Medium, DM Sans" font-weight="500"><tspan x="-53.74" y="0">Calculators</tspan></text>
      <g id="noun-calculator-1040748" transform="translate(128.004 1930.064)">
        <path id="Path_4680" data-name="Path 4680" d="M162.5,39.2a2.9,2.9,0,0,0-2.893,2.894V77.777a2.9,2.9,0,0,0,2.893,2.894h27a2.9,2.9,0,0,0,2.893-2.894V42.093A2.9,2.9,0,0,0,189.5,39.2Zm0,.964h27a1.914,1.914,0,0,1,1.929,1.929V77.777a1.914,1.914,0,0,1-1.929,1.929h-27a1.914,1.914,0,0,1-1.929-1.929V42.092A1.914,1.914,0,0,1,162.5,40.163Zm3.375,1.929A2.416,2.416,0,0,0,163.46,44.5v4.822a2.417,2.417,0,0,0,2.411,2.411h20.253a2.417,2.417,0,0,0,2.411-2.411V44.5a2.416,2.416,0,0,0-2.411-2.411Zm0,.964h20.253a1.433,1.433,0,0,1,1.446,1.447v4.822a1.433,1.433,0,0,1-1.446,1.447H165.871a1.433,1.433,0,0,1-1.446-1.447V44.5A1.433,1.433,0,0,1,165.871,43.057Zm-2.019,10.609a.483.483,0,0,0-.392.482v5.787a.482.482,0,0,0,.482.482h5.787a.482.482,0,0,0,.482-.482V54.148a.482.482,0,0,0-.482-.482h-5.787A.509.509,0,0,0,163.851,53.666Zm9.162,0a.482.482,0,0,0-.392.482v5.787a.482.482,0,0,0,.482.482h5.787a.482.482,0,0,0,.482-.482V54.148a.482.482,0,0,0-.482-.482H173.1A.505.505,0,0,0,173.014,53.666Zm9.223,0a.483.483,0,0,0-.452.482v5.787a.482.482,0,0,0,.482.482h5.787a.482.482,0,0,0,.482-.482V54.148a.483.483,0,0,0-.392-.482.509.509,0,0,0-.09,0h-5.817Zm-17.812.964h4.822v4.822h-4.822Zm9.162,0h4.822v4.822h-4.822Zm9.162,0h4.822v4.822h-4.822Zm-18.9,7.716a.483.483,0,0,0-.392.482v5.787a.482.482,0,0,0,.482.482h5.787a.482.482,0,0,0,.482-.482V62.828a.482.482,0,0,0-.482-.482h-5.787A.509.509,0,0,0,163.851,62.346Zm9.162,0a.482.482,0,0,0-.392.482v5.787a.482.482,0,0,0,.482.482h5.787a.482.482,0,0,0,.482-.482V62.828a.482.482,0,0,0-.482-.482H173.1A.505.505,0,0,0,173.014,62.346Zm9.223,0a.483.483,0,0,0-.452.482v5.787a.482.482,0,0,0,.482.482h5.787a.482.482,0,0,0,.482-.482V62.828a.483.483,0,0,0-.392-.482.509.509,0,0,0-.09,0h-5.817Zm-17.812.964h4.822v4.822h-4.822Zm9.162,0h4.822v4.822h-4.822Zm9.162,0h4.822v4.822h-4.822Zm-18.9,7.716a.483.483,0,0,0-.392.482v5.787a.482.482,0,0,0,.482.482h5.787a.482.482,0,0,0,.482-.482V71.508a.482.482,0,0,0-.482-.482h-5.787A.453.453,0,0,0,163.851,71.026Zm9.162,0a.482.482,0,0,0-.392.482v5.787a.482.482,0,0,0,.482.482h5.787a.482.482,0,0,0,.482-.482V71.508a.482.482,0,0,0-.482-.482H173.1A.449.449,0,0,0,173.014,71.026Zm9.223,0a.482.482,0,0,0-.452.482v5.787a.482.482,0,0,0,.482.482h5.787a.482.482,0,0,0,.482-.482V71.508a.483.483,0,0,0-.392-.482.452.452,0,0,0-.09,0h-5.817Zm-17.812.964h4.822v4.822h-4.822Zm9.162,0h4.822v4.822h-4.822Zm9.162,0h4.822v4.822h-4.822Z" transform="translate(0 0)" fill="#ff687a" stroke="#ff687a" stroke-width="0.5"/>
      </g>
    </g>
    <rect id="Rectangle_2522" data-name="Rectangle 2522" width="334" height="464" transform="translate(-8 1698)" fill="#fff" opacity="0.69"/>
    <rect id="Rectangle_2523" data-name="Rectangle 2523" width="334" height="464" transform="translate(1359 2162) rotate(180)" fill="#fff" opacity="0.69"/>
  </g>
</svg>
