<svg xmlns="http://www.w3.org/2000/svg" width="176.816" height="36.614" viewBox="0 0 176.816 36.614">
  <g id="Group_1058" data-name="Group 1058" transform="translate(-80 -21.693)">
    <text id="Kapitalwise" transform="translate(111.816 49)" fill="#404040" font-size="26" font-family="DMSans-Bold, DM Sans" font-weight="700"><tspan x="0" y="0">Kapitalwise</tspan></text>
    <g id="Kapitalwise_new_logo_32x32_" data-name="Kapitalwise new logo (32x32)" transform="translate(73 21.402)">
      <path id="Path_4558" data-name="Path 4558" d="M9.229,18.243,26.424,28.17a.817.817,0,0,0,1.272-.712V7.627a.817.817,0,0,0-1.225-.712L9.229,16.82a.817.817,0,0,0,0,1.423Z" transform="translate(0.302 1.085)" fill="#f04f61"/>
      <path id="Path_4559" data-name="Path 4559" d="M17.849,5.971,8.272.43A.817.817,0,0,0,7,1.118v11.07a.817.817,0,0,0,1.167.7l9.682-5.506a.817.817,0,0,0,0-1.412Z" fill="#02b4cc"/>
      <path id="Path_4560" data-name="Path 4560" d="M17.834,26.431,8.257,20.9a.817.817,0,0,0-1.167.7V32.7a.817.817,0,0,0,1.167.712l9.577-5.541a.817.817,0,0,0,0-1.435Z" transform="translate(0.015 3.419)" fill="#ffcb06"/>
    </g>
  </g>
</svg>
